<svg id="Layer_1" data-name="Layer 1" xmlns="http://www.w3.org/2000/svg" viewBox="0 0 34.6 34.6"><defs><style>.cls-1{fill:#fff5ff;}.cls-2{fill:none;stroke:#fff5ff;stroke-miterlimit:10;}</style></defs><g id="behance"><rect class="cls-1" x="20.25" y="12.03" width="4.92" height="1.41"/><path class="cls-1" d="M23.21,14.73c-4.55,0-4.54,4.52-4.54,4.52a4.16,4.16,0,0,0,4.54,4.48s4.05.25,4.05-3.2H25.17s.07,1.35-1.89,1.35a1.91,1.91,0,0,1-2.08-2h6.13S28,14.73,23.21,14.73Zm1.85,3.56H21.17a2.13,2.13,0,0,1,2.08-1.83A1.77,1.77,0,0,1,25.06,18.29Z" transform="translate(-0.35 -0.35)"/><path class="cls-1" d="M16,17.08a2.06,2.06,0,0,0,1.81-2.25,3,3,0,0,0-3.35-3.15H8.23V23.49h6.21s3.76.12,3.76-3.48C18.2,20,18.36,17.08,16,17.08Zm-5-3.29h3.46s.84,0,.84,1.24-.49,1.43-1,1.43H11Zm3.29,7.6H11V18.29h3.46s1.25-.05,1.25,1.59C15.69,21.26,14.76,21.38,14.27,21.39Z" transform="translate(-0.35 -0.35)"/><path class="cls-2" d="M17.65.85a16.8,16.8,0,1,0,16.8,16.8A16.8,16.8,0,0,0,17.65.85ZM28.79,28.79A15.75,15.75,0,1,1,33.4,17.65,15.67,15.67,0,0,1,28.79,28.79Z" transform="translate(-0.35 -0.35)"/></g></svg>