<?xml version="1.0" encoding="utf-8"?>
<!-- Generator: Adobe Illustrator 23.0.5, SVG Export Plug-In . SVG Version: 6.00 Build 0)  -->
<svg version="1.1" id="Capa_1" xmlns="http://www.w3.org/2000/svg" xmlns:xlink="http://www.w3.org/1999/xlink" x="0px" y="0px"
	 viewBox="0 0 35.7 35.7" style="enable-background:new 0 0 35.7 35.7;" xml:space="preserve">
<style type="text/css">
	.st0{fill:none;stroke:#FFF5FF;stroke-width:2;}
	.st1{fill:#FFF5FF;}
</style>
<title>email</title>
<circle id="Oval" class="st0" cx="17.8" cy="17.8" r="16.8"/>
<path id="Shape" class="st1" d="M10.1,15.5l1.9,1.2c1.1,0.7,1.9,1.2,2.5,1.6c0.1,0.1,0.2,0.2,0.4,0.2c0.2,0.1,0.4,0.2,0.5,0.3
	c0.2,0.1,0.3,0.2,0.5,0.3c0.1,0.1,0.4,0.1,0.5,0.2c0.1,0.1,0.3,0.1,0.5,0.1l0,0c0.2,0,0.3,0,0.5-0.1c0.1-0.1,0.4-0.1,0.5-0.2
	c0.2-0.1,0.3-0.2,0.5-0.3c0.2-0.1,0.4-0.2,0.5-0.3c0.2-0.1,0.3-0.2,0.4-0.2c0.6-0.4,2.1-1.3,4.4-2.8c0.4-0.3,0.8-0.7,1.1-1.1
	c0.3-0.4,0.5-0.8,0.5-1.3c0-0.4-0.2-0.7-0.5-1c-0.3-0.3-0.7-0.4-1.1-0.4H9.9c-0.4,0-0.8,0.2-1.1,0.5c-0.6,0.7-0.5,1.8,0.2,2.4
	C9.3,14.9,9.6,15.2,10.1,15.5z M24.4,16.4c-2.1,1.3-3.6,2.3-4.7,3c-0.3,0.2-0.5,0.4-0.8,0.5c-0.3,0.2-0.6,0.3-0.9,0.4
	c-0.3,0.1-0.7,0.2-1.1,0.2l0,0c-0.4,0-0.7-0.1-1.1-0.2c-0.4-0.2-0.7-0.3-0.9-0.4s-0.5-0.3-0.8-0.5c-0.8-0.5-2.4-1.6-4.7-3
	c-0.4-0.2-0.7-0.5-0.9-0.8v6.9c0,0.8,0.7,1.4,1.5,1.4c0,0,0,0,0.1,0h13.7c0.4,0,0.8-0.1,1.1-0.4c0.3-0.3,0.5-0.6,0.5-1v-6.9
	C25,15.9,24.7,16.1,24.4,16.4L24.4,16.4z"/>
</svg>
