<svg id="Capa_1" data-name="Capa 1" xmlns="http://www.w3.org/2000/svg" viewBox="0 0 35.65 35.65"><defs><style>.cls-1{fill:none;stroke:#000;stroke-width:2px;}</style></defs><title>email</title><circle id="Oval" class="cls-1" cx="17.82" cy="17.82" r="16.82"/><path id="Shape" d="M14,18.89l1.91,1.22c1.07.69,1.91,1.23,2.45,1.61a1.8,1.8,0,0,0,.38.23,3.49,3.49,0,0,0,.54.3,2,2,0,0,1,.46.31c.15.08.38.15.53.23a.94.94,0,0,0,.46.08h0a.94.94,0,0,0,.46-.08c.15-.08.38-.15.53-.23a2,2,0,0,0,.46-.31,3.73,3.73,0,0,1,.54-.3c.23-.15.3-.23.38-.23.61-.38,2.07-1.3,4.36-2.83a5.38,5.38,0,0,0,1.15-1.07,2.11,2.11,0,0,0,.46-1.3,1.39,1.39,0,0,0-.46-1,1.35,1.35,0,0,0-1.07-.38H13.87a1.57,1.57,0,0,0-1.14.46A1.78,1.78,0,0,0,12.88,18,4.19,4.19,0,0,0,14,18.89Zm14.3.92c-2.06,1.3-3.59,2.29-4.66,3a7.16,7.16,0,0,1-.84.53,2.53,2.53,0,0,1-.92.39,2.75,2.75,0,0,1-1.07.23h0a3,3,0,0,1-1.07-.23c-.39-.16-.69-.31-.92-.39s-.54-.3-.84-.53c-.84-.54-2.37-1.61-4.67-3a2.91,2.91,0,0,1-.91-.77v6.88a1.42,1.42,0,0,0,1.52,1.38H27.64a1.83,1.83,0,0,0,1.07-.38,1.34,1.34,0,0,0,.46-1V19A4.18,4.18,0,0,1,28.25,19.81Z" transform="translate(-3.93 -3.44)"/></svg>