<svg id="Capa_1" data-name="Capa 1" xmlns="http://www.w3.org/2000/svg" viewBox="0 0 35.65 35.65"><defs><style>.cls-1{fill:none;stroke:#000;stroke-width:2px;}</style></defs><title>github</title><circle id="Oval" class="cls-1" cx="17.82" cy="17.82" r="16.82"/><path id="Shape" d="M12.48,21a9.46,9.46,0,0,0,6.27,9,.46.46,0,0,0,.61-.46V27.91c-2.52.54-3.05-1.22-3.05-1.22a2.47,2.47,0,0,0-1-1.38c-.84-.61.08-.53.08-.53a1.87,1.87,0,0,1,1.37,1,1.92,1.92,0,0,0,2.68.77,1.76,1.76,0,0,1,.61-1.23c-2.06-.23-4.2-1.07-4.2-4.66a4.07,4.07,0,0,1,.91-2.52,4,4,0,0,1,.08-2.53s.77-.23,2.52,1a8.65,8.65,0,0,1,4.59,0c1.76-1.23,2.53-1,2.53-1a3.47,3.47,0,0,1,.07,2.53,3.66,3.66,0,0,1,.92,2.52c0,3.59-2.14,4.43-4.21,4.66a2.38,2.38,0,0,1,.62,1.76v2.6a.46.46,0,0,0,.61.46,9.31,9.31,0,0,0,6.27-8.95,9.3,9.3,0,0,0-9.18-9.4A9.06,9.06,0,0,0,12.48,21Z" transform="translate(-3.84 -2.98)"/></svg>