<?xml version="1.0" encoding="utf-8"?>
<!-- Generator: Adobe Illustrator 23.0.5, SVG Export Plug-In . SVG Version: 6.00 Build 0)  -->
<svg version="1.1" id="Capa_1" xmlns="http://www.w3.org/2000/svg" xmlns:xlink="http://www.w3.org/1999/xlink" x="0px" y="0px"
	 viewBox="0 0 35.7 35.7" style="enable-background:new 0 0 35.7 35.7;" xml:space="preserve">
<style type="text/css">
	.st0{fill:none;stroke:#FFF5FF;stroke-width:2;}
	.st1{fill:#FFF5FF;}
</style>
<title>github</title>
<circle id="Oval" class="st0" cx="17.8" cy="17.8" r="16.8"/>
<path id="Shape" class="st1" d="M8.6,18c0,4,2.5,7.6,6.3,9c0.2,0.1,0.5,0,0.6-0.3c0-0.1,0-0.1,0-0.2v-1.6c-2.5,0.5-3-1.2-3-1.2
	c-0.2-0.6-0.5-1.1-1-1.4c-0.8-0.6,0.1-0.5,0.1-0.5c0.6,0.1,1.1,0.5,1.4,1c0.5,0.9,1.6,1.3,2.6,0.8c0,0,0.1,0,0.1-0.1
	c0-0.5,0.2-0.9,0.6-1.2c-2.1-0.2-4.2-1.1-4.2-4.7c0-0.9,0.3-1.8,0.9-2.5c-0.2-0.8-0.2-1.7,0.1-2.5c0,0,0.8-0.2,2.5,1
	c1.5-0.4,3.1-0.4,4.6,0c1.8-1.2,2.5-1,2.5-1c0.3,0.8,0.4,1.7,0.1,2.5c0.6,0.7,0.9,1.6,0.9,2.5c0,3.6-2.1,4.4-4.2,4.7
	c0.4,0.5,0.7,1.1,0.6,1.8v2.6c0,0.3,0.2,0.5,0.4,0.5c0.1,0,0.1,0,0.2,0c3.8-1.3,6.3-4.9,6.3-8.9c0.1-5.1-4.1-9.3-9.2-9.4
	c-5,0-9.1,4-9.1,9C8.6,17.9,8.6,18,8.6,18z"/>
</svg>
