<svg id="Capa_1" data-name="Capa 1" xmlns="http://www.w3.org/2000/svg" viewBox="0 0 35.65 35.65"><defs><style>.cls-1{fill:none;stroke:#000;stroke-width:2px;}</style></defs><title>linkedin</title><circle id="Oval" class="cls-1" cx="17.82" cy="17.82" r="16.82"/><path id="Shape" d="M13.54,18h3v10.4h-3ZM15,16.67h0A1.84,1.84,0,1,1,15,13a1.84,1.84,0,0,1,0,3.67Zm13.46,11.7H25.09V23c0-1.37-.53-2.37-1.68-2.37a1.66,1.66,0,0,0-1.61,1.3,3.18,3.18,0,0,0-.07.85v5.58H18.36s.08-9.56,0-10.4h3.37v1.6a3.17,3.17,0,0,1,3-1.76c2.14,0,3.75,1.53,3.75,4.75v5.81Z" transform="translate(-2.99 -2.9)"/></svg>