<?xml version="1.0" encoding="utf-8"?>
<!-- Generator: Adobe Illustrator 23.0.5, SVG Export Plug-In . SVG Version: 6.00 Build 0)  -->
<svg version="1.1" id="Capa_1" xmlns="http://www.w3.org/2000/svg" xmlns:xlink="http://www.w3.org/1999/xlink" x="0px" y="0px"
	 viewBox="0 0 35.7 35.7" style="enable-background:new 0 0 35.7 35.7;" xml:space="preserve">
<style type="text/css">
	.st0{fill:none;stroke:#FFF5FF;stroke-width:2;}
	.st1{fill:#FFF5FF;}
</style>
<title>linkedin</title>
<circle id="Oval" class="st0" cx="17.8" cy="17.8" r="16.8"/>
<path id="Shape" class="st1" d="M10.6,15.1h3v10.4h-3L10.6,15.1z M12,13.8L12,13.8c-1,0.1-1.9-0.7-2-1.7s0.7-1.9,1.7-2
	c0.1,0,0.2,0,0.3,0c1,0.1,1.8,1,1.7,2C13.6,13,12.9,13.7,12,13.8z M25.5,25.5h-3.4v-5.4c0-1.4-0.5-2.4-1.7-2.4
	c-0.8,0-1.4,0.5-1.6,1.3c-0.1,0.3-0.1,0.6-0.1,0.9v5.6h-3.4c0,0,0.1-9.6,0-10.4h3.4v1.6c0.6-1.1,1.7-1.8,3-1.8
	c2.1,0,3.8,1.5,3.8,4.7L25.5,25.5L25.5,25.5z"/>
</svg>
