<?xml version="1.0" encoding="utf-8"?>
<!-- Generator: Adobe Illustrator 23.0.5, SVG Export Plug-In . SVG Version: 6.00 Build 0)  -->
<svg version="1.1" id="Capa_1" xmlns="http://www.w3.org/2000/svg" xmlns:xlink="http://www.w3.org/1999/xlink" x="0px" y="0px"
	 viewBox="0 0 35.7 35.7" style="enable-background:new 0 0 35.7 35.7;" xml:space="preserve">
<style type="text/css">
	.st0{fill:none;stroke:#FFF5FF;stroke-width:2;}
	.st1{fill:#FFF5FF;}
</style>
<title>twitter</title>
<circle id="Oval" class="st0" cx="17.8" cy="17.8" r="16.8"/>
<path id="Shape" class="st1" d="M24.3,13.9c0.7-0.5,1.2-1.1,1.5-1.9c-0.6,0.4-1.3,0.7-2.1,0.9c-0.6-0.7-1.5-1.1-2.4-1.1
	c-1.8,0-3.3,1.6-3.3,3.4c0,0,0,0,0,0c0,0.3,0,0.5,0.1,0.8c-2.7-0.2-5.2-1.5-6.8-3.6c-0.3,0.5-0.5,1.1-0.5,1.8c0,1.2,0.5,2.2,1.5,2.9
	c-0.5,0-1.1-0.2-1.5-0.5v0.1c0,1.6,1.1,3,2.7,3.4c-0.3,0.1-0.6,0.1-0.8,0.1c-0.2,0-0.4,0-0.6-0.1c0.4,1.4,1.6,2.4,3.1,2.4
	c-1.2,1-2.6,1.5-4.1,1.5c-0.3,0-0.5,0-0.8-0.1c1.5,1,3.2,1.5,5,1.5c6,0,9.4-5.3,9.4-9.9v-0.5c0.7-0.5,1.2-1.1,1.6-1.8
	C25.6,13.6,25,13.8,24.3,13.9z"/>
</svg>
