<svg id="Capa_1" data-name="Capa 1" xmlns="http://www.w3.org/2000/svg" viewBox="0 0 35.65 35.65"><defs><style>.cls-1{fill:none;stroke:#000;stroke-width:2px;}</style></defs><title>twitter</title><circle id="Oval" class="cls-1" cx="17.82" cy="17.82" r="16.82"/><path id="Shape" d="M28.16,16.83a3.59,3.59,0,0,0,1.45-1.92,6.85,6.85,0,0,1-2.06.85,3.15,3.15,0,0,0-2.37-1.08,3.35,3.35,0,0,0-3.29,3.45,2.56,2.56,0,0,0,.07.76,9.27,9.27,0,0,1-6.8-3.59,3.48,3.48,0,0,0-.46,1.76A3.61,3.61,0,0,0,16.15,20a2.74,2.74,0,0,1-1.53-.46v.08A3.54,3.54,0,0,0,17.3,23a3.17,3.17,0,0,1-.84.15,1.82,1.82,0,0,1-.61-.07,3.34,3.34,0,0,0,3.06,2.44A6.48,6.48,0,0,1,14.78,27a2.53,2.53,0,0,1-.77-.08,9,9,0,0,0,5,1.53c6,0,9.4-5.28,9.4-9.87v-.45a5.25,5.25,0,0,0,1.61-1.84A5.45,5.45,0,0,1,28.16,16.83Z" transform="translate(-3.84 -2.98)"/></svg>