<svg id="Capa_1" data-name="Capa 1" xmlns="http://www.w3.org/2000/svg" viewBox="0 0 153.66 484.39"><defs><style>.cls-1,.cls-2{fill:#faf2f7;}.cls-2{font-size:14px;font-family:Lato-Bold, Lato;font-weight:700;}.cls-3{letter-spacing:0.03em;}.cls-4{letter-spacing:-0.02em;}.cls-5{letter-spacing:-0.02em;}.cls-6{letter-spacing:-0.05em;}.cls-7{letter-spacing:-0.01em;}.cls-8{letter-spacing:0em;}</style></defs><path class="cls-1" d="M27.85,16.21a5.38,5.38,0,0,0-4.65,2.7H18.4A9.45,9.45,0,0,1,9,10a5.4,5.4,0,1,0-5.46,0V27.76a5.41,5.41,0,1,0,5.4,0V20.9a14.8,14.8,0,0,0,9.46,3.41h4.8a5.39,5.39,0,1,0,4.65-8.1ZM6.24,2.7a2.7,2.7,0,1,1-2.7,2.7A2.7,2.7,0,0,1,6.24,2.7Zm0,32.41a2.7,2.7,0,1,1,2.7-2.7A2.71,2.71,0,0,1,6.24,35.11Zm21.61-10.8a2.7,2.7,0,1,1,2.7-2.7A2.7,2.7,0,0,1,27.85,24.31Z"/><path class="cls-1" d="M27.85,42.6a5.38,5.38,0,0,0-4.65,2.7H18.4A9.44,9.44,0,0,1,9,36.42c1.58-1-7.06-.91-5.46,0v17.7a5.41,5.41,0,1,0,5.4,0V47.3a14.85,14.85,0,0,0,9.46,3.4h4.8a5.39,5.39,0,1,0,4.65-8.1ZM6.24,61.51a2.71,2.71,0,1,1,2.7-2.7A2.71,2.71,0,0,1,6.24,61.51ZM27.85,50.7a2.7,2.7,0,1,1,2.7-2.7A2.7,2.7,0,0,1,27.85,50.7Z"/><path class="cls-1" d="M27.85,69.46a5.38,5.38,0,0,0-4.65,2.7H18.4A9.44,9.44,0,0,1,9,63.27c1.58-.94-7.06-.9-5.46,0V81a5.41,5.41,0,1,0,5.4,0V74.16a14.85,14.85,0,0,0,9.46,3.4h4.8a5.39,5.39,0,1,0,4.65-8.1ZM6.24,88.36a2.7,2.7,0,1,1,2.7-2.7A2.71,2.71,0,0,1,6.24,88.36Zm21.61-10.8a2.7,2.7,0,1,1,2.7-2.7A2.7,2.7,0,0,1,27.85,77.56Z"/><path class="cls-1" d="M27.85,96.29A5.4,5.4,0,0,0,23.2,99H18.4A9.44,9.44,0,0,1,9,90.11c1.58-.94-7.06-.91-5.46,0v17.71a5.41,5.41,0,1,0,5.4,0V101a14.8,14.8,0,0,0,9.46,3.41h4.8a5.39,5.39,0,1,0,4.65-8.11ZM6.24,115.2a2.7,2.7,0,1,1,2.7-2.7A2.71,2.71,0,0,1,6.24,115.2Zm21.61-10.8a2.71,2.71,0,1,1,2.7-2.7A2.7,2.7,0,0,1,27.85,104.4Z"/><path class="cls-1" d="M27.85,123.15a5.4,5.4,0,0,0-4.65,2.7H18.4A9.44,9.44,0,0,1,9,117c1.58-1-7.06-.91-5.46,0v17.71a5.41,5.41,0,1,0,5.4,0v-6.86a14.85,14.85,0,0,0,9.46,3.4h4.8a5.39,5.39,0,1,0,4.65-8.1ZM6.24,142.06a2.7,2.7,0,1,1,2.7-2.7A2.71,2.71,0,0,1,6.24,142.06Zm21.61-10.81a2.7,2.7,0,1,1,2.7-2.7A2.7,2.7,0,0,1,27.85,131.25Z"/><path class="cls-1" d="M27.85,150a5.38,5.38,0,0,0-4.65,2.7H18.4A9.44,9.44,0,0,1,9,143.82c1.58-.94-7.06-.9-5.46,0v17.7a5.41,5.41,0,1,0,5.4,0v-6.85a14.85,14.85,0,0,0,9.46,3.4h4.8a5.39,5.39,0,1,0,4.65-8.1ZM6.24,168.92a2.71,2.71,0,1,1,2.7-2.71A2.71,2.71,0,0,1,6.24,168.92Zm21.61-10.81a2.7,2.7,0,1,1,2.7-2.7A2.7,2.7,0,0,1,27.85,158.11Z"/><text class="cls-2" transform="translate(42.03 78.96)">C</text><text class="cls-2" transform="translate(42.03 106.4)">SQL</text><text class="cls-2" transform="translate(42.58 132.66)">Data Strcutures</text><text class="cls-2" transform="translate(43.14 160.11)">Algorithms</text><text class="cls-2" transform="translate(42.58 52.71)">Python</text><text class="cls-2" transform="translate(42.58 25.29)">HTM<tspan class="cls-3" x="31.93" y="0">L</tspan><tspan x="39.58" y="0">, CSS &amp; JS</tspan></text><path class="cls-1" d="M27,213.37a5.37,5.37,0,0,0-4.65,2.7h-4.8a9.44,9.44,0,0,1-9.4-8.89A5.39,5.39,0,1,0,0,202.57a5.38,5.38,0,0,0,2.7,4.65v17.7a5.4,5.4,0,1,0,5.4,0v-6.85a14.83,14.83,0,0,0,9.46,3.4h4.8a5.39,5.39,0,1,0,4.65-8.1ZM5.4,199.86a2.71,2.71,0,1,1-2.7,2.71A2.71,2.71,0,0,1,5.4,199.86Zm0,32.41a2.7,2.7,0,1,1,2.7-2.7A2.7,2.7,0,0,1,5.4,232.27ZM27,221.47a2.7,2.7,0,1,1,2.7-2.7A2.7,2.7,0,0,1,27,221.47Z"/><path class="cls-1" d="M27,239.76a5.39,5.39,0,0,0-4.65,2.7h-4.8a9.44,9.44,0,0,1-9.4-8.88c1.58-.94-7.07-.91-5.46,0v17.71a5.4,5.4,0,1,0,5.4,0v-6.86a14.78,14.78,0,0,0,9.46,3.41h4.8A5.39,5.39,0,1,0,27,239.76ZM5.4,258.67A2.7,2.7,0,1,1,8.1,256,2.7,2.7,0,0,1,5.4,258.67ZM27,247.87a2.71,2.71,0,1,1,2.7-2.7A2.7,2.7,0,0,1,27,247.87Z"/><path class="cls-1" d="M27,266.62a5.39,5.39,0,0,0-4.65,2.7h-4.8a9.44,9.44,0,0,1-9.4-8.88c1.58-.95-7.07-.91-5.46,0v17.71a5.39,5.39,0,1,0,8.1,4.65,5.37,5.37,0,0,0-2.7-4.65v-6.86a14.83,14.83,0,0,0,9.46,3.4h4.8a5.39,5.39,0,1,0,4.65-8.1ZM5.4,285.53a2.7,2.7,0,1,1,2.7-2.7A2.7,2.7,0,0,1,5.4,285.53ZM27,274.72a2.7,2.7,0,1,1,2.7-2.7A2.7,2.7,0,0,1,27,274.72Z"/><path class="cls-1" d="M27,293.46a5.37,5.37,0,0,0-4.65,2.7h-4.8a9.44,9.44,0,0,1-9.4-8.89c1.58-.94-7.07-.9-5.46,0V305a5.4,5.4,0,1,0,5.4,0v-6.86a14.78,14.78,0,0,0,9.46,3.41h4.8a5.39,5.39,0,1,0,4.65-8.1ZM5.4,312.36a2.7,2.7,0,1,1,2.7-2.7A2.7,2.7,0,0,1,5.4,312.36ZM27,301.56a2.7,2.7,0,1,1,2.7-2.7A2.7,2.7,0,0,1,27,301.56Z"/><path class="cls-1" d="M27,320.32a5.37,5.37,0,0,0-4.65,2.7h-4.8a9.45,9.45,0,0,1-9.4-8.89c1.58-.94-7.07-.9-5.46,0v17.71a5.4,5.4,0,1,0,5.4,0V325a14.78,14.78,0,0,0,9.46,3.41h4.8a5.39,5.39,0,1,0,4.65-8.1ZM5.4,339.22a2.7,2.7,0,1,1,2.7-2.7A2.7,2.7,0,0,1,5.4,339.22ZM27,328.42a2.7,2.7,0,1,1,2.7-2.7A2.7,2.7,0,0,1,27,328.42Z"/><path class="cls-1" d="M27,347.17a5.39,5.39,0,0,0-4.65,2.7h-4.8A9.44,9.44,0,0,1,8.16,341c1.58-.94-7.07-.91-5.46,0v17.71a5.39,5.39,0,1,0,8.1,4.65,5.37,5.37,0,0,0-2.7-4.65v-6.86a14.78,14.78,0,0,0,9.46,3.41h4.8A5.39,5.39,0,1,0,27,347.17ZM5.4,366.08a2.7,2.7,0,1,1,2.7-2.7A2.7,2.7,0,0,1,5.4,366.08ZM27,355.28a2.71,2.71,0,1,1,2.7-2.71A2.7,2.7,0,0,1,27,355.28Z"/><text class="cls-2" transform="translate(41.18 276.13)">SQLAlche<tspan class="cls-4" x="61.8" y="0">m</tspan><tspan x="73.33" y="0">y</tspan></text><text class="cls-2" transform="translate(41.18 303.56)"><tspan class="cls-5">W</tspan><tspan x="14.36" y="0">ordpress</tspan></text><text class="cls-2" transform="translate(41.74 329.82)">Firebase</text><text class="cls-2" transform="translate(42.3 357.28)">Git</text><text class="cls-2" transform="translate(41.74 249.88)">Flask</text><text class="cls-2" transform="translate(41.74 222.45)"><tspan class="cls-6">V</tspan><tspan x="9.25" y="0">ue.js</tspan></text><path class="cls-1" d="M27.45,409.53a5.4,5.4,0,0,0-4.66,2.7H18a9.43,9.43,0,0,1-9.39-8.88,5.4,5.4,0,1,0-5.46,0v17.71a5.39,5.39,0,1,0,8.1,4.65,5.37,5.37,0,0,0-2.7-4.65v-6.86a14.82,14.82,0,0,0,9.45,3.4h4.8a5.39,5.39,0,1,0,4.66-8.1ZM5.84,396a2.7,2.7,0,1,1-2.7,2.7A2.7,2.7,0,0,1,5.84,396Zm0,32.41a2.7,2.7,0,1,1,2.7-2.7A2.7,2.7,0,0,1,5.84,428.44Zm21.61-10.81a2.7,2.7,0,1,1,2.7-2.7A2.7,2.7,0,0,1,27.45,417.63Z"/><path class="cls-1" d="M27.45,435.93a5.38,5.38,0,0,0-4.66,2.7H18a9.43,9.43,0,0,1-9.39-8.89c1.57-.94-7.07-.9-5.46,0v17.71a5.4,5.4,0,1,0,5.4,0v-6.86A14.77,14.77,0,0,0,18,444h4.8a5.39,5.39,0,1,0,4.66-8.1ZM5.84,454.83a2.7,2.7,0,1,1,2.7-2.7A2.7,2.7,0,0,1,5.84,454.83ZM27.45,444a2.7,2.7,0,1,1,2.7-2.7A2.7,2.7,0,0,1,27.45,444Z"/><path class="cls-1" d="M27.45,462.79a5.38,5.38,0,0,0-4.66,2.7H18A9.44,9.44,0,0,1,8.6,456.6c1.57-.94-7.07-.9-5.46,0v17.71a5.4,5.4,0,1,0,5.4,0v-6.86A14.77,14.77,0,0,0,18,470.89h4.8a5.39,5.39,0,1,0,4.66-8.1ZM5.84,481.69a2.7,2.7,0,1,1,2.7-2.7A2.7,2.7,0,0,1,5.84,481.69Zm21.61-10.8a2.7,2.7,0,1,1,2.7-2.7A2.7,2.7,0,0,1,27.45,470.89Z"/><text class="cls-2" transform="translate(41.62 472.29)">Adobe Photoshop</text><text class="cls-2" transform="translate(42.18 446.04)">Adobe Illust<tspan class="cls-7" x="75.52" y="0">r</tspan><tspan class="cls-8" x="81.04" y="0">ator</tspan></text><text class="cls-2" transform="translate(42.18 418.62)">Adobe XD</text></svg>