<svg id="Capa_1" data-name="Capa 1" xmlns="http://www.w3.org/2000/svg" viewBox="0 0 500.38 143.01"><defs><style>.cls-1{fill:#faf2f7;}</style></defs><path class="cls-1" d="M22.51,13.5a4.51,4.51,0,0,0-3.88,2.25h-4A7.86,7.86,0,0,1,6.8,8.35a4.5,4.5,0,1,0-4.55,0V23.13a4.5,4.5,0,1,0,4.5,0V17.42a12.34,12.34,0,0,0,7.88,2.84h4a4.5,4.5,0,1,0,3.88-6.76ZM4.5,2.25A2.25,2.25,0,1,1,2.25,4.5,2.25,2.25,0,0,1,4.5,2.25Zm0,27A2.25,2.25,0,1,1,6.75,27,2.25,2.25,0,0,1,4.5,29.26Zm18-9A2.26,2.26,0,1,1,24.76,18,2.25,2.25,0,0,1,22.51,20.26Z"/><path class="cls-1" d="M22.51,35.5a4.49,4.49,0,0,0-3.88,2.25h-4a7.86,7.86,0,0,1-7.83-7.4c1.31-.79-5.89-.76-4.55,0V45.13a4.5,4.5,0,1,0,4.5,0V39.41a12.28,12.28,0,0,0,7.88,2.84h4a4.49,4.49,0,1,0,3.88-6.75ZM4.5,51.26A2.26,2.26,0,1,1,6.75,49,2.26,2.26,0,0,1,4.5,51.26Zm18-9A2.25,2.25,0,1,1,24.76,40,2.25,2.25,0,0,1,22.51,42.25Z"/><path class="cls-1" d="M22.51,57.88a4.49,4.49,0,0,0-3.88,2.25h-4a7.86,7.86,0,0,1-7.83-7.4c1.31-.79-5.89-.76-4.55,0V67.51a4.5,4.5,0,1,0,4.5,0V61.8a12.33,12.33,0,0,0,7.88,2.83h4a4.49,4.49,0,1,0,3.88-6.75ZM4.5,73.64a2.25,2.25,0,1,1,2.25-2.25A2.25,2.25,0,0,1,4.5,73.64Zm18-9a2.25,2.25,0,1,1,2.25-2.25A2.24,2.24,0,0,1,22.51,64.63Z"/><path class="cls-1" d="M22.51,80.25a4.49,4.49,0,0,0-3.88,2.25h-4A7.87,7.87,0,0,1,6.8,75.09c1.31-.78-5.89-.75-4.55,0V89.87a4.5,4.5,0,1,0,4.5,0V84.16A12.34,12.34,0,0,0,14.63,87h4a4.49,4.49,0,1,0,3.88-6.75ZM4.5,96a2.25,2.25,0,1,1,2.25-2.25A2.25,2.25,0,0,1,4.5,96Zm18-9a2.25,2.25,0,1,1,2.25-2.25A2.25,2.25,0,0,1,22.51,87Z"/><path class="cls-1" d="M22.51,102.63a4.49,4.49,0,0,0-3.88,2.25h-4A7.87,7.87,0,0,1,6.8,97.47c1.31-.78-5.89-.75-4.55,0v14.76A4.49,4.49,0,1,0,9,116.13a4.47,4.47,0,0,0-2.25-3.87v-5.72a12.34,12.34,0,0,0,7.88,2.84h4a4.49,4.49,0,1,0,3.88-6.75Zm-18,15.75a2.25,2.25,0,1,1,2.25-2.25A2.25,2.25,0,0,1,4.5,118.38Zm18-9a2.25,2.25,0,1,1,2.25-2.25A2.25,2.25,0,0,1,22.51,109.38Z"/><path class="cls-1" d="M22.51,125a4.49,4.49,0,0,0-3.88,2.25h-4a7.87,7.87,0,0,1-7.83-7.41c1.31-.78-5.89-.75-4.55,0v14.76A4.49,4.49,0,1,0,9,138.51a4.47,4.47,0,0,0-2.25-3.87v-5.72a12.34,12.34,0,0,0,7.88,2.84h4A4.49,4.49,0,1,0,22.51,125Zm-18,15.75a2.25,2.25,0,1,1,2.25-2.25A2.25,2.25,0,0,1,4.5,140.76Zm18-9a2.25,2.25,0,1,1,2.25-2.25A2.25,2.25,0,0,1,22.51,131.76Z"/><path class="cls-1" d="M38.06,67.83A4.76,4.76,0,0,1,36.19,66a4.91,4.91,0,0,1-.68-2.59,5,5,0,0,1,.68-2.59,5,5,0,0,1,1.89-1.8,5.56,5.56,0,0,1,2.68-.65,5.64,5.64,0,0,1,2.2.42A4.55,4.55,0,0,1,44.64,60l-1.18,1.11A3.41,3.41,0,0,0,40.84,60a3.69,3.69,0,0,0-1.8.44,3.12,3.12,0,0,0-1.25,1.22,3.54,3.54,0,0,0-.45,1.78,3.49,3.49,0,0,0,.45,1.78A3.21,3.21,0,0,0,39,66.45a3.69,3.69,0,0,0,1.8.44,3.4,3.4,0,0,0,2.62-1.17l1.18,1.12A4.4,4.4,0,0,1,43,68.06a5.65,5.65,0,0,1-2.21.42A5.48,5.48,0,0,1,38.06,67.83Z"/><path class="cls-1" d="M37.87,88.74A3.92,3.92,0,0,1,36.44,88L37,86.79a4.23,4.23,0,0,0,1.27.67,4.64,4.64,0,0,0,1.5.26,2.6,2.6,0,0,0,1.4-.3.91.91,0,0,0,.46-.8.74.74,0,0,0-.26-.59,1.79,1.79,0,0,0-.65-.37l-1.08-.3a12.32,12.32,0,0,1-1.55-.45,2.44,2.44,0,0,1-1-.72,1.88,1.88,0,0,1-.43-1.31A2.28,2.28,0,0,1,37,81.61a2.5,2.5,0,0,1,1.14-.9A4.51,4.51,0,0,1,40,80.37a6.46,6.46,0,0,1,1.52.19,4.28,4.28,0,0,1,1.28.56l-.49,1.21a4.63,4.63,0,0,0-1.15-.49A4,4,0,0,0,40,81.67a2.42,2.42,0,0,0-1.37.31,1,1,0,0,0-.45.83.74.74,0,0,0,.26.59,1.93,1.93,0,0,0,.65.36l1.08.3a10.52,10.52,0,0,1,1.54.45,2.51,2.51,0,0,1,1,.71,1.86,1.86,0,0,1,.43,1.3,2.25,2.25,0,0,1-.38,1.26,2.61,2.61,0,0,1-1.15.9,4.71,4.71,0,0,1-1.87.33A6.57,6.57,0,0,1,37.87,88.74Z"/><path class="cls-1" d="M53.56,89.73a2.79,2.79,0,0,1-1,.75,3.09,3.09,0,0,1-1.22.25,3.28,3.28,0,0,1-1.59-.39A7.29,7.29,0,0,1,48.14,89a4.62,4.62,0,0,1-2.09-.68,4.28,4.28,0,0,1-1.44-1.52,4.35,4.35,0,0,1-.51-2.1,4.16,4.16,0,0,1,2.2-3.76,5.09,5.09,0,0,1,4.64,0,4.37,4.37,0,0,1,1.81,5.6A4,4,0,0,1,51.64,88a4.23,4.23,0,0,1-1.64.86,2.43,2.43,0,0,0,.68.54,1.65,1.65,0,0,0,.72.17,1.86,1.86,0,0,0,1.44-.67Zm-7.51-3.52a2.84,2.84,0,0,0,1.06,1.06,3.27,3.27,0,0,0,3,0,2.84,2.84,0,0,0,1.06-1.06,3.23,3.23,0,0,0,0-3,2.74,2.74,0,0,0-1.06-1,3.19,3.19,0,0,0-3,0,2.74,2.74,0,0,0-1.06,1,3.23,3.23,0,0,0,0,3Z"/><path class="cls-1" d="M54.8,80.49h1.56v7.08h4.39v1.32h-6Z"/><path class="cls-1" d="M42.94,109.83v1.31h-6.3v-8.4h6.13v1.31H38.2v2.18h4v1.29h-4v2.31Z"/><path class="cls-1" d="M44.93,111a3.9,3.9,0,0,1-1.19-.51l.58-1.14a3.77,3.77,0,0,0,1,.46,4.63,4.63,0,0,0,1.2.17c.89,0,1.34-.23,1.34-.71a.46.46,0,0,0-.34-.46,5.57,5.57,0,0,0-1.1-.26,9.46,9.46,0,0,1-1.29-.27,2,2,0,0,1-.86-.55,1.49,1.49,0,0,1-.37-1.08,1.72,1.72,0,0,1,.76-1.46,3.44,3.44,0,0,1,2.06-.55,5.94,5.94,0,0,1,1.32.15,4,4,0,0,1,1.08.4l-.57,1.14a3.58,3.58,0,0,0-1.84-.48,2.05,2.05,0,0,0-1,.2.59.59,0,0,0-.34.52.52.52,0,0,0,.36.51,5.9,5.9,0,0,0,1.14.29,9.58,9.58,0,0,1,1.26.27,2,2,0,0,1,.84.53,1.46,1.46,0,0,1,.36,1.06,1.67,1.67,0,0,1-.78,1.44,3.69,3.69,0,0,1-2.13.54A5.52,5.52,0,0,1,44.93,111Z"/><path class="cls-1" d="M54.5,110.79a1.62,1.62,0,0,1-.64.33,3,3,0,0,1-.8.11,2.27,2.27,0,0,1-1.63-.56,2.11,2.11,0,0,1-.57-1.6V106H49.8v-1.2h1.06v-1.46h1.5v1.46h1.71V106H52.36v3a1,1,0,0,0,.22.71.86.86,0,0,0,.66.25,1.34,1.34,0,0,0,.84-.26Z"/><path class="cls-1" d="M59.45,104.66v1.43a2.5,2.5,0,0,0-.35,0,1.83,1.83,0,0,0-1.37.51,2,2,0,0,0-.49,1.47v3.11h-1.5v-6.41h1.43v.94A2.5,2.5,0,0,1,59.45,104.66Z"/><path class="cls-1" d="M67,104.73v6.41H65.56v-.81a2.39,2.39,0,0,1-.9.66,2.85,2.85,0,0,1-1.17.24,2.77,2.77,0,0,1-2-.72,2.82,2.82,0,0,1-.74-2.12v-3.66h1.5v3.46a1.84,1.84,0,0,0,.39,1.29,1.45,1.45,0,0,0,1.11.43,1.69,1.69,0,0,0,1.28-.5,2,2,0,0,0,.47-1.44v-3.24Z"/><path class="cls-1" d="M70.1,110.81a3.08,3.08,0,0,1-1.23-1.17,3.25,3.25,0,0,1-.45-1.7,3.19,3.19,0,0,1,.45-1.69,3,3,0,0,1,1.23-1.17,3.73,3.73,0,0,1,1.79-.42,3.39,3.39,0,0,1,1.66.39,2.45,2.45,0,0,1,1.08,1.1l-1.15.67a1.86,1.86,0,0,0-1.6-.89,1.92,1.92,0,0,0-1.39.55,2,2,0,0,0-.55,1.46,2,2,0,0,0,.54,1.46,1.92,1.92,0,0,0,1.4.54,1.88,1.88,0,0,0,.91-.22,1.92,1.92,0,0,0,.69-.67l1.15.68a2.59,2.59,0,0,1-1.09,1.11,3.35,3.35,0,0,1-1.65.39A3.78,3.78,0,0,1,70.1,110.81Z"/><path class="cls-1" d="M79.86,110.79a1.69,1.69,0,0,1-.64.33,3,3,0,0,1-.8.11,2.25,2.25,0,0,1-1.63-.56,2.08,2.08,0,0,1-.58-1.6V106h-1v-1.2h1v-1.46h1.5v1.46h1.72V106H77.71v3a1,1,0,0,0,.23.71.83.83,0,0,0,.66.25,1.34,1.34,0,0,0,.84-.26Z"/><path class="cls-1" d="M87.3,104.73v6.41H85.87v-.81a2.39,2.39,0,0,1-.9.66,2.83,2.83,0,0,1-1.16.24,2.54,2.54,0,0,1-2.76-2.84v-3.66h1.5v3.46a1.84,1.84,0,0,0,.39,1.29,1.45,1.45,0,0,0,1.11.43,1.71,1.71,0,0,0,1.28-.5A2,2,0,0,0,85.8,108v-3.24Z"/><path class="cls-1" d="M93,104.66v1.43a2.5,2.5,0,0,0-.35,0,1.81,1.81,0,0,0-1.37.51,2,2,0,0,0-.49,1.47v3.11h-1.5v-6.41H90.7v.94A2.5,2.5,0,0,1,93,104.66Z"/><path class="cls-1" d="M98.83,105.34a2.62,2.62,0,0,1,.75,2v3.75H98.16v-.78a1.68,1.68,0,0,1-.79.64,3,3,0,0,1-1.23.23,3.08,3.08,0,0,1-1.26-.25,1.94,1.94,0,0,1-.83-.68,1.74,1.74,0,0,1-.29-1,1.69,1.69,0,0,1,.64-1.39,3.17,3.17,0,0,1,2-.52h1.66v-.1a1.3,1.3,0,0,0-.41-1,1.71,1.71,0,0,0-1.19-.36,3.51,3.51,0,0,0-1.06.17,2.55,2.55,0,0,0-.88.47l-.59-1.1a3.58,3.58,0,0,1,1.21-.58,5.23,5.23,0,0,1,1.5-.21A3.15,3.15,0,0,1,98.83,105.34Zm-1.37,4.54a1.45,1.45,0,0,0,.62-.74v-.75H96.53c-.87,0-1.3.29-1.3.86a.75.75,0,0,0,.33.64,1.46,1.46,0,0,0,.9.24A2,2,0,0,0,97.46,109.88Z"/><path class="cls-1" d="M102,111a4,4,0,0,1-1.19-.51l.58-1.14a3.84,3.84,0,0,0,1,.46,4.5,4.5,0,0,0,1.19.17c.9,0,1.35-.23,1.35-.71a.47.47,0,0,0-.35-.46,5.44,5.44,0,0,0-1.09-.26,9.46,9.46,0,0,1-1.29-.27,2.05,2.05,0,0,1-.87-.55,1.53,1.53,0,0,1-.36-1.08,1.7,1.7,0,0,1,.76-1.46,3.42,3.42,0,0,1,2.06-.55,5.94,5.94,0,0,1,1.32.15,4,4,0,0,1,1.08.4l-.58,1.14a3.56,3.56,0,0,0-1.84-.48,2.05,2.05,0,0,0-1,.2.59.59,0,0,0-.34.52.52.52,0,0,0,.37.51,5.76,5.76,0,0,0,1.13.29,9.58,9.58,0,0,1,1.26.27,2,2,0,0,1,.85.53,1.5,1.5,0,0,1,.35,1.06,1.67,1.67,0,0,1-.78,1.44,3.68,3.68,0,0,1-2.12.54A5.65,5.65,0,0,1,102,111Z"/><path class="cls-1" d="M117.26,102.24v8.9h-1.44v-.83a2.21,2.21,0,0,1-.91.69,3.18,3.18,0,0,1-1.21.23,3.38,3.38,0,0,1-1.66-.41,2.94,2.94,0,0,1-1.16-1.16,3.73,3.73,0,0,1,0-3.44,3,3,0,0,1,1.16-1.15,3.38,3.38,0,0,1,1.66-.41,2.92,2.92,0,0,1,1.16.22,2.18,2.18,0,0,1,.9.65v-3.29Zm-2.41,7.46a1.81,1.81,0,0,0,.69-.71,2.2,2.2,0,0,0,.25-1,2.27,2.27,0,0,0-.25-1.06,1.79,1.79,0,0,0-.69-.7,2,2,0,0,0-1.94,0,1.79,1.79,0,0,0-.69.7,2.27,2.27,0,0,0-.25,1.06,2.2,2.2,0,0,0,.25,1,1.81,1.81,0,0,0,.69.71,2.08,2.08,0,0,0,1.94,0Z"/><path class="cls-1" d="M125.23,108.42h-5a1.77,1.77,0,0,0,.69,1.12,2.27,2.27,0,0,0,1.39.41,2.36,2.36,0,0,0,1.74-.69l.8.92a2.54,2.54,0,0,1-1.09.78,3.88,3.88,0,0,1-1.49.27,4,4,0,0,1-1.86-.42,3,3,0,0,1-1.24-1.17,3.34,3.34,0,0,1-.44-1.7,3.4,3.4,0,0,1,.43-1.69,3,3,0,0,1,1.18-1.17,3.47,3.47,0,0,1,1.71-.42,3.31,3.31,0,0,1,1.67.42,2.85,2.85,0,0,1,1.15,1.16,3.49,3.49,0,0,1,.42,1.73Q125.26,108.14,125.23,108.42Zm-4.43-2.13a1.78,1.78,0,0,0-.61,1.13h3.64a1.81,1.81,0,0,0-.59-1.13,1.83,1.83,0,0,0-1.22-.43A1.78,1.78,0,0,0,120.8,106.29Z"/><path class="cls-1" d="M136.28,102.24v8.9h-1.44v-.83a2.21,2.21,0,0,1-.91.69,3.18,3.18,0,0,1-1.21.23,3.38,3.38,0,0,1-1.66-.41,2.94,2.94,0,0,1-1.16-1.16,3.73,3.73,0,0,1,0-3.44,3,3,0,0,1,1.16-1.15,3.38,3.38,0,0,1,1.66-.41,2.92,2.92,0,0,1,1.16.22,2.18,2.18,0,0,1,.9.65v-3.29Zm-2.41,7.46a1.81,1.81,0,0,0,.69-.71,2.2,2.2,0,0,0,.25-1,2.27,2.27,0,0,0-.25-1.06,1.79,1.79,0,0,0-.69-.7,2,2,0,0,0-1.94,0,1.79,1.79,0,0,0-.69.7,2.27,2.27,0,0,0-.25,1.06,2.2,2.2,0,0,0,.25,1,1.81,1.81,0,0,0,.69.71,2.08,2.08,0,0,0,1.94,0Z"/><path class="cls-1" d="M142.87,105.34a2.62,2.62,0,0,1,.75,2v3.75H142.2v-.78a1.68,1.68,0,0,1-.79.64,3,3,0,0,1-1.23.23,3.08,3.08,0,0,1-1.26-.25,1.94,1.94,0,0,1-.83-.68,1.74,1.74,0,0,1-.29-1,1.69,1.69,0,0,1,.64-1.39,3.17,3.17,0,0,1,2-.52h1.66v-.1a1.3,1.3,0,0,0-.41-1,1.71,1.71,0,0,0-1.19-.36,3.51,3.51,0,0,0-1.06.17,2.55,2.55,0,0,0-.88.47l-.59-1.1a3.58,3.58,0,0,1,1.21-.58,5.23,5.23,0,0,1,1.5-.21A3.15,3.15,0,0,1,142.87,105.34Zm-1.37,4.54a1.45,1.45,0,0,0,.62-.74v-.75h-1.55c-.87,0-1.3.29-1.3.86a.75.75,0,0,0,.33.64,1.46,1.46,0,0,0,.9.24A2,2,0,0,0,141.5,109.88Z"/><path class="cls-1" d="M149.39,110.79a1.69,1.69,0,0,1-.64.33,3,3,0,0,1-.8.11,2.24,2.24,0,0,1-1.63-.56,2.08,2.08,0,0,1-.58-1.6V106h-1.06v-1.2h1.06v-1.46h1.5v1.46H149V106h-1.72v3a1,1,0,0,0,.23.71.83.83,0,0,0,.66.25,1.38,1.38,0,0,0,.84-.26Z"/><path class="cls-1" d="M151.54,110.81a3.05,3.05,0,0,1-1.22-1.17,3.34,3.34,0,0,1-.44-1.7,3.27,3.27,0,0,1,.44-1.69,3.05,3.05,0,0,1,1.22-1.17,3.62,3.62,0,0,1,1.75-.42,3.66,3.66,0,0,1,1.76.42,3.05,3.05,0,0,1,1.22,1.17,3.27,3.27,0,0,1,.44,1.69,3.34,3.34,0,0,1-.44,1.7,3.05,3.05,0,0,1-1.22,1.17,3.66,3.66,0,0,1-1.76.42A3.62,3.62,0,0,1,151.54,110.81Zm3.12-1.42a2.22,2.22,0,0,0,0-2.9,1.84,1.84,0,0,0-1.37-.56,1.8,1.8,0,0,0-1.36.56,2.22,2.22,0,0,0,0,2.9,1.79,1.79,0,0,0,1.36.55A1.83,1.83,0,0,0,154.66,109.39Z"/><path class="cls-1" d="M158.6,111a3.83,3.83,0,0,1-1.18-.51l.57-1.14a4,4,0,0,0,1,.46,4.5,4.5,0,0,0,1.19.17c.9,0,1.35-.23,1.35-.71a.47.47,0,0,0-.34-.46,5.77,5.77,0,0,0-1.1-.26,9.46,9.46,0,0,1-1.29-.27,2.11,2.11,0,0,1-.87-.55,1.53,1.53,0,0,1-.36-1.08,1.7,1.7,0,0,1,.76-1.46,3.42,3.42,0,0,1,2.06-.55,5.94,5.94,0,0,1,1.32.15,4,4,0,0,1,1.08.4l-.58,1.14a3.52,3.52,0,0,0-1.83-.48,2.1,2.1,0,0,0-1,.2.61.61,0,0,0-.34.52.52.52,0,0,0,.37.51,5.76,5.76,0,0,0,1.13.29,9.58,9.58,0,0,1,1.26.27,2,2,0,0,1,.85.53,1.5,1.5,0,0,1,.35,1.06,1.67,1.67,0,0,1-.78,1.44,3.68,3.68,0,0,1-2.12.54A5.65,5.65,0,0,1,158.6,111Z"/><path class="cls-1" d="M41.47,131.45h-4.2l-.83,1.94H34.83l3.78-8.4h1.54l3.79,8.4H42.31ZM41,130.22l-1.58-3.67-1.57,3.67Z"/><path class="cls-1" d="M44.86,124.49h1.5v8.9h-1.5Z"/><path class="cls-1" d="M54.69,127v5.44c0,2.26-1.15,3.38-3.45,3.38a6.34,6.34,0,0,1-1.76-.23,3.7,3.7,0,0,1-1.36-.68l.67-1.13a3,3,0,0,0,1.06.56,4.16,4.16,0,0,0,1.3.21,2.15,2.15,0,0,0,1.55-.48,2,2,0,0,0,.49-1.46v-.34a2.54,2.54,0,0,1-.93.64,3.43,3.43,0,0,1-1.22.21,3.52,3.52,0,0,1-1.65-.39,2.9,2.9,0,0,1-1.16-1.09A3.16,3.16,0,0,1,47.8,130a3.11,3.11,0,0,1,.43-1.62,2.81,2.81,0,0,1,1.16-1.08,3.52,3.52,0,0,1,1.65-.39,3.42,3.42,0,0,1,1.27.23,2.21,2.21,0,0,1,.95.7V127Zm-2,4.34a1.74,1.74,0,0,0,.55-1.32,1.7,1.7,0,0,0-.55-1.31,2,2,0,0,0-1.4-.51,2,2,0,0,0-1.41.51,1.7,1.7,0,0,0-.54,1.31,1.73,1.73,0,0,0,.54,1.32,2,2,0,0,0,1.41.51A2,2,0,0,0,52.67,131.32Z"/><path class="cls-1" d="M57.79,133.06a3.05,3.05,0,0,1-1.22-1.17,3.34,3.34,0,0,1-.44-1.7,3.27,3.27,0,0,1,.44-1.69,3.05,3.05,0,0,1,1.22-1.17,3.88,3.88,0,0,1,3.51,0,3.05,3.05,0,0,1,1.22,1.17,3.27,3.27,0,0,1,.44,1.69,3.34,3.34,0,0,1-.44,1.7,3.05,3.05,0,0,1-1.22,1.17,3.88,3.88,0,0,1-3.51,0Zm3.12-1.42a2.22,2.22,0,0,0,0-2.9,1.84,1.84,0,0,0-1.37-.56,1.8,1.8,0,0,0-1.36.56,2.22,2.22,0,0,0,0,2.9,1.79,1.79,0,0,0,1.36.55A1.83,1.83,0,0,0,60.91,131.64Z"/><path class="cls-1" d="M68.11,126.91v1.43a2.5,2.5,0,0,0-.35,0,1.83,1.83,0,0,0-1.37.51,2,2,0,0,0-.49,1.47v3.11H64.4V127h1.43v.94A2.5,2.5,0,0,1,68.11,126.91Z"/><path class="cls-1" d="M69.45,125.67a.85.85,0,0,1-.27-.64.84.84,0,0,1,.27-.64.94.94,0,0,1,.69-.26,1,1,0,0,1,.68.24.82.82,0,0,1,.28.62.9.9,0,0,1-.27.67.93.93,0,0,1-.69.27A1,1,0,0,1,69.45,125.67ZM69.38,127h1.5v6.41h-1.5Z"/><path class="cls-1" d="M76.7,133a1.69,1.69,0,0,1-.64.33,3,3,0,0,1-.8.11,2.25,2.25,0,0,1-1.63-.56,2.08,2.08,0,0,1-.58-1.6v-3.09H72V127h1v-1.46h1.5V127h1.72v1.2H74.55v3.05a1,1,0,0,0,.23.71.83.83,0,0,0,.66.25,1.34,1.34,0,0,0,.84-.26Z"/><path class="cls-1" d="M87.94,127.61a2.82,2.82,0,0,1,.71,2.11v3.67h-1.5v-3.48a1.84,1.84,0,0,0-.37-1.26,1.32,1.32,0,0,0-1.07-.43,1.57,1.57,0,0,0-1.21.5,2,2,0,0,0-.46,1.42v3.25h-1.5v-3.48a1.84,1.84,0,0,0-.37-1.26,1.32,1.32,0,0,0-1.07-.43,1.55,1.55,0,0,0-1.21.49,2.06,2.06,0,0,0-.45,1.43v3.25h-1.5V127h1.42v.82a2.29,2.29,0,0,1,.9-.66,3.09,3.09,0,0,1,1.2-.23,2.9,2.9,0,0,1,1.28.27,2.06,2.06,0,0,1,.88.8,2.75,2.75,0,0,1,1-.79,3.47,3.47,0,0,1,1.38-.28A2.63,2.63,0,0,1,87.94,127.61Z"/><path class="cls-1" d="M91.76,133.06a3.05,3.05,0,0,1-1.22-1.17,3.34,3.34,0,0,1-.44-1.7,3.27,3.27,0,0,1,.44-1.69,3.05,3.05,0,0,1,1.22-1.17,3.62,3.62,0,0,1,1.75-.42,3.67,3.67,0,0,1,1.77.42,3,3,0,0,1,1.21,1.17,3.18,3.18,0,0,1,.44,1.69,3.24,3.24,0,0,1-.44,1.7,3,3,0,0,1-1.21,1.17,3.67,3.67,0,0,1-1.77.42A3.62,3.62,0,0,1,91.76,133.06Zm3.12-1.42a2.22,2.22,0,0,0,0-2.9,1.84,1.84,0,0,0-1.37-.56,1.82,1.82,0,0,0-1.36.56,2.25,2.25,0,0,0,0,2.9,1.81,1.81,0,0,0,1.36.55A1.83,1.83,0,0,0,94.88,131.64Z"/><path class="cls-1" d="M98.83,133.27a3.9,3.9,0,0,1-1.19-.51l.58-1.14a3.77,3.77,0,0,0,1,.46,4.63,4.63,0,0,0,1.2.17c.89,0,1.34-.23,1.34-.71a.46.46,0,0,0-.34-.46,5.57,5.57,0,0,0-1.1-.26,9.46,9.46,0,0,1-1.29-.27,2,2,0,0,1-.86-.55,1.49,1.49,0,0,1-.37-1.08,1.72,1.72,0,0,1,.76-1.46,3.44,3.44,0,0,1,2.06-.55,5.94,5.94,0,0,1,1.32.15,4,4,0,0,1,1.08.4l-.57,1.14a3.58,3.58,0,0,0-1.84-.48,2.05,2.05,0,0,0-1,.2.59.59,0,0,0-.34.52.52.52,0,0,0,.36.51,5.9,5.9,0,0,0,1.14.29,9.58,9.58,0,0,1,1.26.27,2,2,0,0,1,.84.53,1.46,1.46,0,0,1,.36,1.06,1.67,1.67,0,0,1-.78,1.44,3.69,3.69,0,0,1-2.13.54A5.52,5.52,0,0,1,98.83,133.27Z"/><path class="cls-1" d="M41.38,36.35a2.82,2.82,0,0,1,1.24,1,3.17,3.17,0,0,1,0,3.19,2.77,2.77,0,0,1-1.24,1,4.67,4.67,0,0,1-1.9.36h-1.9v2.42H36V36h3.46A4.67,4.67,0,0,1,41.38,36.35ZM41,40.22a1.72,1.72,0,0,0,0-2.48,2.45,2.45,0,0,0-1.55-.43H37.58v3.34H39.4A2.45,2.45,0,0,0,41,40.22Z"/><path class="cls-1" d="M50.53,38l-3,6.93a3.29,3.29,0,0,1-1,1.47,2.48,2.48,0,0,1-1.45.42,3.09,3.09,0,0,1-1-.15,2.27,2.27,0,0,1-.77-.43l.6-1.11a1.5,1.5,0,0,0,.51.33,1.56,1.56,0,0,0,.59.12,1,1,0,0,0,.66-.21,1.71,1.71,0,0,0,.47-.68l.11-.25L43.48,38H45l2,4.74,2-4.74Z"/><path class="cls-1" d="M55.5,44a1.67,1.67,0,0,1-.65.33,2.9,2.9,0,0,1-.79.11,2.28,2.28,0,0,1-1.63-.55,2.12,2.12,0,0,1-.58-1.61V39.23H50.79V38h1.06V36.57h1.5V38h1.71v1.2H53.35v3.05a1,1,0,0,0,.23.71.83.83,0,0,0,.66.25,1.38,1.38,0,0,0,.84-.26Z"/><path class="cls-1" d="M62.31,38.62a2.78,2.78,0,0,1,.73,2.1v3.67h-1.5V40.91a1.79,1.79,0,0,0-.39-1.26A1.46,1.46,0,0,0,60,39.22a1.75,1.75,0,0,0-1.31.5,2,2,0,0,0-.48,1.43v3.24h-1.5v-8.9h1.5v3.24a2.43,2.43,0,0,1,.92-.61,3.36,3.36,0,0,1,1.22-.21A2.68,2.68,0,0,1,62.31,38.62Z"/><path class="cls-1" d="M66.14,44.06a3.05,3.05,0,0,1-1.22-1.17,3.34,3.34,0,0,1-.44-1.7,3.27,3.27,0,0,1,.44-1.69,3.05,3.05,0,0,1,1.22-1.17,3.62,3.62,0,0,1,1.75-.42,3.67,3.67,0,0,1,1.77.42,3,3,0,0,1,1.21,1.17,3.18,3.18,0,0,1,.44,1.69,3.24,3.24,0,0,1-.44,1.7,3,3,0,0,1-1.21,1.17,3.67,3.67,0,0,1-1.77.42A3.62,3.62,0,0,1,66.14,44.06Zm3.12-1.42a2.22,2.22,0,0,0,0-2.9,1.84,1.84,0,0,0-1.37-.56,1.82,1.82,0,0,0-1.36.56,2.25,2.25,0,0,0,0,2.9,1.81,1.81,0,0,0,1.36.55A1.83,1.83,0,0,0,69.26,42.64Z"/><path class="cls-1" d="M78.33,38.62a2.78,2.78,0,0,1,.73,2.1v3.67h-1.5V40.91a1.79,1.79,0,0,0-.39-1.26A1.46,1.46,0,0,0,76,39.22a1.75,1.75,0,0,0-1.31.5,2,2,0,0,0-.48,1.43v3.24h-1.5V38h1.43v.83a2.38,2.38,0,0,1,.94-.67,3.38,3.38,0,0,1,1.27-.23A2.68,2.68,0,0,1,78.33,38.62Z"/><path class="cls-1" d="M42.36,13.74v8.4H40.8v-3.6H36.45v3.6H34.89v-8.4h1.56v3.47H40.8V13.74Z"/><path class="cls-1" d="M46.32,15.06H43.53V13.74h7.13v1.32H47.88v7.08H46.32Z"/><path class="cls-1" d="M59.55,22.14V16.57l-2.76,4.61h-.7l-2.76-4.53v5.49H51.84v-8.4h1.28l3.34,5.57,3.27-5.57H61v8.4Z"/><path class="cls-1" d="M63.3,13.74h1.56v7.08h4.39v1.32h-6Z"/><path class="cls-1" d="M71.89,20.51a1,1,0,0,1,.27.72,1.41,1.41,0,0,1,0,.4c0,.14-.11.35-.22.63L71.28,24h-1l.48-1.83a.91.91,0,0,1-.41-.34,1,1,0,0,1-.15-.55,1,1,0,0,1,.28-.72.94.94,0,0,1,.69-.28A1,1,0,0,1,71.89,20.51Z"/><path class="cls-1" d="M78.67,21.7a4,4,0,0,1-1.6-1.54,4.23,4.23,0,0,1-.59-2.22,4.28,4.28,0,0,1,.59-2.22,4.14,4.14,0,0,1,1.62-1.54A4.73,4.73,0,0,1,81,13.62a4.82,4.82,0,0,1,1.89.36,3.78,3.78,0,0,1,1.44,1l-1,.94a3,3,0,0,0-2.24-1,3.15,3.15,0,0,0-1.55.38,2.7,2.7,0,0,0-1.07,1.05,3,3,0,0,0-.38,1.52,3,3,0,0,0,.38,1.53,2.84,2.84,0,0,0,1.07,1.05,3.14,3.14,0,0,0,1.55.37,2.94,2.94,0,0,0,2.24-1l1,1a3.9,3.9,0,0,1-1.45,1,4.82,4.82,0,0,1-1.89.36A4.66,4.66,0,0,1,78.67,21.7Z"/><path class="cls-1" d="M86.49,22a3.89,3.89,0,0,1-1.44-.74L85.59,20a4.36,4.36,0,0,0,1.27.67,4.64,4.64,0,0,0,1.5.26,2.6,2.6,0,0,0,1.4-.3.91.91,0,0,0,.46-.8.76.76,0,0,0-.25-.59,1.83,1.83,0,0,0-.66-.37l-1.08-.3a12.32,12.32,0,0,1-1.55-.45,2.44,2.44,0,0,1-1-.72,1.88,1.88,0,0,1-.43-1.31,2.28,2.28,0,0,1,.38-1.27,2.57,2.57,0,0,1,1.14-.9,4.7,4.7,0,0,1,1.87-.34,6.44,6.44,0,0,1,1.51.19,4.28,4.28,0,0,1,1.28.56l-.49,1.21a4.63,4.63,0,0,0-1.15-.49,4,4,0,0,0-1.17-.17,2.42,2.42,0,0,0-1.37.31,1,1,0,0,0-.45.83.77.77,0,0,0,.26.59,1.93,1.93,0,0,0,.65.36c.27.08.63.19,1.08.3a10.16,10.16,0,0,1,1.54.45,2.51,2.51,0,0,1,1,.71,1.86,1.86,0,0,1,.43,1.3A2.25,2.25,0,0,1,91.38,21a2.64,2.64,0,0,1-1.14.9,4.79,4.79,0,0,1-1.88.33A6.51,6.51,0,0,1,86.49,22Z"/><path class="cls-1" d="M94,22a3.92,3.92,0,0,1-1.43-.74L93.14,20a4.23,4.23,0,0,0,1.27.67,4.64,4.64,0,0,0,1.5.26,2.6,2.6,0,0,0,1.4-.3.91.91,0,0,0,.46-.8.74.74,0,0,0-.26-.59,1.79,1.79,0,0,0-.65-.37l-1.08-.3a12.32,12.32,0,0,1-1.55-.45,2.44,2.44,0,0,1-1-.72,1.88,1.88,0,0,1-.43-1.31,2.28,2.28,0,0,1,.38-1.27A2.57,2.57,0,0,1,94.3,14a4.68,4.68,0,0,1,1.86-.34,6.46,6.46,0,0,1,1.52.19,4.28,4.28,0,0,1,1.28.56l-.49,1.21a4.63,4.63,0,0,0-1.15-.49,4,4,0,0,0-1.17-.17,2.42,2.42,0,0,0-1.37.31,1,1,0,0,0-.45.83.74.74,0,0,0,.26.59,1.93,1.93,0,0,0,.65.36c.26.08.62.19,1.08.3a10.52,10.52,0,0,1,1.54.45,2.51,2.51,0,0,1,1,.71,1.86,1.86,0,0,1,.43,1.3A2.25,2.25,0,0,1,98.93,21a2.61,2.61,0,0,1-1.15.9,4.71,4.71,0,0,1-1.87.33A6.57,6.57,0,0,1,94,22Z"/><path class="cls-1" d="M110.47,22.27l-1.06-1a4.14,4.14,0,0,1-2.82,1A3.92,3.92,0,0,1,105,22a2.57,2.57,0,0,1-1.09-.79,1.82,1.82,0,0,1-.4-1.16,2.19,2.19,0,0,1,.46-1.38,4.94,4.94,0,0,1,1.49-1.17,3.47,3.47,0,0,1-.72-.94,1.93,1.93,0,0,1-.22-.9,1.76,1.76,0,0,1,.67-1.44,2.71,2.71,0,0,1,1.77-.54,2.53,2.53,0,0,1,1.63.49,1.66,1.66,0,0,1,.61,1.35,1.8,1.8,0,0,1-.4,1.16,4.79,4.79,0,0,1-1.32,1l1.82,1.72a5.43,5.43,0,0,0,.46-1.41l1.22.39a5.76,5.76,0,0,1-.76,1.92l1.06,1Zm-2-1.87-2.22-2.12a3.46,3.46,0,0,0-1,.76,1.25,1.25,0,0,0-.29.82,1,1,0,0,0,.46.85,2.14,2.14,0,0,0,1.24.33A2.75,2.75,0,0,0,108.52,20.4ZM106.2,15a.78.78,0,0,0-.29.64,1.08,1.08,0,0,0,.15.55,5.28,5.28,0,0,0,.6.7,4.27,4.27,0,0,0,1-.69.93.93,0,0,0,.28-.64.73.73,0,0,0-.26-.59,1.09,1.09,0,0,0-.71-.22A1.18,1.18,0,0,0,106.2,15Z"/><path class="cls-1" d="M115.78,21.94a2.8,2.8,0,0,1-1.11-.89l.88-1.07a2,2,0,0,0,1.67,1c.87,0,1.31-.51,1.31-1.55V15.05h-3V13.74h4.55v5.57a3,3,0,0,1-.72,2.21,2.78,2.78,0,0,1-2.11.74A3.31,3.31,0,0,1,115.78,21.94Z"/><path class="cls-1" d="M123,22a3.92,3.92,0,0,1-1.43-.74l.54-1.21a4.17,4.17,0,0,0,1.26.67,4.7,4.7,0,0,0,1.51.26,2.62,2.62,0,0,0,1.4-.3.91.91,0,0,0,.46-.8.77.77,0,0,0-.26-.59,1.79,1.79,0,0,0-.65-.37l-1.08-.3a13.07,13.07,0,0,1-1.56-.45,2.58,2.58,0,0,1-1-.72,1.93,1.93,0,0,1-.42-1.31,2.2,2.2,0,0,1,.38-1.27,2.57,2.57,0,0,1,1.14-.9,4.65,4.65,0,0,1,1.86-.34,6.37,6.37,0,0,1,1.51.19,4.23,4.23,0,0,1,1.29.56l-.49,1.21a4.7,4.7,0,0,0-1.16-.49,4,4,0,0,0-1.16-.17,2.39,2.39,0,0,0-1.37.31,1,1,0,0,0-.45.83.76.76,0,0,0,.25.59,2,2,0,0,0,.66.36c.26.08.62.19,1.08.3a10.35,10.35,0,0,1,1.53.45,2.55,2.55,0,0,1,1,.71,1.9,1.9,0,0,1,.43,1.3A2.25,2.25,0,0,1,127.9,21a2.67,2.67,0,0,1-1.15.9,4.74,4.74,0,0,1-1.87.33A6.57,6.57,0,0,1,123,22Z"/><path class="cls-1" d="M214.76,13.5a4.49,4.49,0,0,0-3.87,2.25h-4a7.85,7.85,0,0,1-7.83-7.4,4.5,4.5,0,1,0-4.55,0V23.13a4.5,4.5,0,1,0,4.5,0V17.42a12.34,12.34,0,0,0,7.88,2.84h4a4.49,4.49,0,1,0,3.87-6.76Zm-18-11.25a2.25,2.25,0,1,1-2.25,2.25A2.25,2.25,0,0,1,196.76,2.25Zm0,27A2.25,2.25,0,1,1,199,27,2.25,2.25,0,0,1,196.76,29.26Zm18-9A2.26,2.26,0,1,1,217,18,2.25,2.25,0,0,1,214.76,20.26Z"/><path class="cls-1" d="M214.76,35.5a4.47,4.47,0,0,0-3.87,2.25h-4a7.85,7.85,0,0,1-7.83-7.4c1.31-.79-5.89-.76-4.55,0V45.13a4.5,4.5,0,1,0,4.5,0V39.41a12.28,12.28,0,0,0,7.88,2.84h4a4.49,4.49,0,1,0,3.87-6.75Zm-18,15.76A2.26,2.26,0,1,1,199,49,2.26,2.26,0,0,1,196.76,51.26Zm18-9A2.25,2.25,0,1,1,217,40,2.25,2.25,0,0,1,214.76,42.25Z"/><path class="cls-1" d="M214.76,57.88a4.47,4.47,0,0,0-3.87,2.25h-4a7.85,7.85,0,0,1-7.83-7.4c1.31-.79-5.89-.76-4.55,0V67.51a4.5,4.5,0,1,0,4.5,0V61.8a12.33,12.33,0,0,0,7.88,2.83h4a4.49,4.49,0,1,0,3.87-6.75Zm-18,15.76A2.25,2.25,0,1,1,199,71.39,2.25,2.25,0,0,1,196.76,73.64Zm18-9A2.25,2.25,0,1,1,217,62.38,2.25,2.25,0,0,1,214.76,64.63Z"/><path class="cls-1" d="M214.76,80.25a4.47,4.47,0,0,0-3.87,2.25h-4a7.86,7.86,0,0,1-7.83-7.41c1.31-.78-5.89-.75-4.55,0V89.87a4.5,4.5,0,1,0,4.5,0V84.16A12.34,12.34,0,0,0,206.89,87h4a4.49,4.49,0,1,0,3.87-6.75ZM196.76,96A2.25,2.25,0,1,1,199,93.75,2.25,2.25,0,0,1,196.76,96Zm18-9A2.25,2.25,0,1,1,217,84.75,2.25,2.25,0,0,1,214.76,87Z"/><path class="cls-1" d="M214.76,102.63a4.47,4.47,0,0,0-3.87,2.25h-4a7.86,7.86,0,0,1-7.83-7.41c1.31-.78-5.89-.75-4.55,0v14.76a4.5,4.5,0,1,0,4.5,0v-5.72a12.34,12.34,0,0,0,7.88,2.84h4a4.49,4.49,0,1,0,3.87-6.75Zm-18,15.75a2.25,2.25,0,1,1,2.25-2.25A2.25,2.25,0,0,1,196.76,118.38Zm18-9a2.25,2.25,0,1,1,2.25-2.25A2.25,2.25,0,0,1,214.76,109.38Z"/><path class="cls-1" d="M214.76,125a4.47,4.47,0,0,0-3.87,2.25h-4a7.86,7.86,0,0,1-7.83-7.41c1.31-.78-5.89-.75-4.55,0v14.76a4.5,4.5,0,1,0,4.5,0v-5.72a12.34,12.34,0,0,0,7.88,2.84h4a4.49,4.49,0,1,0,3.87-6.75Zm-18,15.75a2.25,2.25,0,1,1,2.25-2.25A2.25,2.25,0,0,1,196.76,140.76Zm18-9a2.25,2.25,0,1,1,2.25-2.25A2.25,2.25,0,0,1,214.76,131.76Z"/><path class="cls-1" d="M224.89,65.89a3.92,3.92,0,0,1-1.43-.74l.54-1.21a4.23,4.23,0,0,0,1.27.67,4.64,4.64,0,0,0,1.5.26,2.6,2.6,0,0,0,1.4-.3.91.91,0,0,0,.46-.8.74.74,0,0,0-.26-.59,1.79,1.79,0,0,0-.65-.37l-1.08-.3a12.32,12.32,0,0,1-1.55-.45,2.44,2.44,0,0,1-1-.72,1.88,1.88,0,0,1-.43-1.31,2.28,2.28,0,0,1,.38-1.27,2.5,2.5,0,0,1,1.14-.9,4.51,4.51,0,0,1,1.86-.34,6.46,6.46,0,0,1,1.52.19,4.28,4.28,0,0,1,1.28.56l-.49,1.21a4.63,4.63,0,0,0-1.15-.49,4,4,0,0,0-1.17-.17,2.42,2.42,0,0,0-1.37.31,1,1,0,0,0-.45.83.74.74,0,0,0,.26.59,1.93,1.93,0,0,0,.65.36l1.08.3a10.52,10.52,0,0,1,1.54.45,2.51,2.51,0,0,1,1,.71,1.86,1.86,0,0,1,.43,1.3,2.25,2.25,0,0,1-.38,1.26,2.61,2.61,0,0,1-1.15.9,4.71,4.71,0,0,1-1.87.33A6.57,6.57,0,0,1,224.89,65.89Z"/><path class="cls-1" d="M240.58,66.88a2.79,2.79,0,0,1-1,.75,3.09,3.09,0,0,1-1.22.25,3.28,3.28,0,0,1-1.59-.39,7.29,7.29,0,0,1-1.64-1.35,4.62,4.62,0,0,1-2.09-.68,4.28,4.28,0,0,1-1.44-1.52,4.35,4.35,0,0,1-.51-2.1,4.16,4.16,0,0,1,2.2-3.76,5.09,5.09,0,0,1,4.64,0,4.37,4.37,0,0,1,1.81,5.6,4,4,0,0,1-1.11,1.44A4.23,4.23,0,0,1,237,66a2.43,2.43,0,0,0,.68.54,1.65,1.65,0,0,0,.72.17,1.86,1.86,0,0,0,1.44-.67Zm-7.51-3.52a2.84,2.84,0,0,0,1.06,1.06,3.27,3.27,0,0,0,3,0,2.84,2.84,0,0,0,1.06-1.06,3.23,3.23,0,0,0,0-3,2.74,2.74,0,0,0-1.06-1,3.19,3.19,0,0,0-3,0,2.74,2.74,0,0,0-1.06,1,3.23,3.23,0,0,0,0,3Z"/><path class="cls-1" d="M241.82,57.64h1.56v7.08h4.39V66h-6Z"/><path class="cls-1" d="M254.52,64.1h-4.2L249.49,66h-1.61l3.78-8.4h1.54L257,66h-1.63ZM254,62.87l-1.58-3.67-1.58,3.67Z"/><path class="cls-1" d="M257.91,57.14h1.5V66h-1.5Z"/><path class="cls-1" d="M262.53,65.71a3,3,0,0,1-1.23-1.17,3.25,3.25,0,0,1-.45-1.7,3.19,3.19,0,0,1,.45-1.69A3,3,0,0,1,262.53,60a3.73,3.73,0,0,1,1.79-.42A3.39,3.39,0,0,1,266,60a2.45,2.45,0,0,1,1.08,1.1l-1.16.67a1.74,1.74,0,0,0-.69-.66,1.83,1.83,0,0,0-.9-.23,1.9,1.9,0,0,0-1.39.55,2,2,0,0,0-.56,1.46,2,2,0,0,0,.55,1.46,1.9,1.9,0,0,0,1.4.54,1.82,1.82,0,0,0,.9-.22,1.77,1.77,0,0,0,.69-.67l1.16.68A2.59,2.59,0,0,1,266,65.74a3.41,3.41,0,0,1-1.65.39A3.78,3.78,0,0,1,262.53,65.71Z"/><path class="cls-1" d="M273.87,60.27a2.78,2.78,0,0,1,.73,2.1V66h-1.5V62.56a1.79,1.79,0,0,0-.39-1.26,1.46,1.46,0,0,0-1.13-.43,1.75,1.75,0,0,0-1.31.5,2,2,0,0,0-.48,1.43V66h-1.5v-8.9h1.5v3.24a2.43,2.43,0,0,1,.92-.61,3.36,3.36,0,0,1,1.22-.21A2.68,2.68,0,0,1,273.87,60.27Z"/><path class="cls-1" d="M282.57,63.32h-5a1.77,1.77,0,0,0,.69,1.12,2.27,2.27,0,0,0,1.39.41,2.36,2.36,0,0,0,1.74-.69l.8.92a2.54,2.54,0,0,1-1.09.78,3.88,3.88,0,0,1-1.49.27,4,4,0,0,1-1.86-.42,3,3,0,0,1-1.24-1.17,3.34,3.34,0,0,1-.44-1.7,3.4,3.4,0,0,1,.43-1.69A3,3,0,0,1,277.65,60a3.47,3.47,0,0,1,1.71-.42A3.31,3.31,0,0,1,281,60a2.85,2.85,0,0,1,1.15,1.16,3.49,3.49,0,0,1,.42,1.73Q282.6,63,282.57,63.32Zm-4.43-2.13a1.78,1.78,0,0,0-.61,1.13h3.64a1.81,1.81,0,0,0-.59-1.13,1.95,1.95,0,0,0-2.44,0Z"/><path class="cls-1" d="M294,60.26a2.82,2.82,0,0,1,.71,2.11V66h-1.5V62.56a1.84,1.84,0,0,0-.37-1.26,1.32,1.32,0,0,0-1.07-.43,1.57,1.57,0,0,0-1.21.5,2,2,0,0,0-.46,1.42V66h-1.5V62.56a1.84,1.84,0,0,0-.37-1.26,1.32,1.32,0,0,0-1.07-.43,1.55,1.55,0,0,0-1.21.49,2.06,2.06,0,0,0-.45,1.43V66H284V59.63h1.42v.82a2.29,2.29,0,0,1,.9-.66,3.09,3.09,0,0,1,1.2-.23,2.9,2.9,0,0,1,1.28.27,2.06,2.06,0,0,1,.88.8,2.75,2.75,0,0,1,1-.79,3.47,3.47,0,0,1,1.38-.28A2.63,2.63,0,0,1,294,60.26Z"/><path class="cls-1" d="M302.55,59.63l-3,6.93a3.29,3.29,0,0,1-1,1.47,2.46,2.46,0,0,1-1.45.42,3.09,3.09,0,0,1-.95-.15,2.27,2.27,0,0,1-.77-.43l.6-1.11a1.72,1.72,0,0,0,.51.33,1.61,1.61,0,0,0,.6.12,1,1,0,0,0,.65-.21,1.83,1.83,0,0,0,.48-.68l.1-.25-2.79-6.44h1.56l2,4.74,2-4.74Z"/><path class="cls-1" d="M236.86,80.09l-2.78,8.4h-1.66l-2.07-6.21-2.11,6.21h-1.67l-2.79-8.4h1.62l2.09,6.39,2.17-6.39h1.44l2.13,6.42,2.15-6.42Z"/><path class="cls-1" d="M238.64,88.16A3.05,3.05,0,0,1,237.42,87a3.34,3.34,0,0,1-.44-1.7,3.27,3.27,0,0,1,.44-1.69,3.05,3.05,0,0,1,1.22-1.17,3.62,3.62,0,0,1,1.75-.42,3.67,3.67,0,0,1,1.77.42,3,3,0,0,1,1.21,1.17,3.18,3.18,0,0,1,.44,1.69,3.24,3.24,0,0,1-.44,1.7,3,3,0,0,1-1.21,1.17,3.67,3.67,0,0,1-1.77.42A3.62,3.62,0,0,1,238.64,88.16Zm3.12-1.42a2.22,2.22,0,0,0,0-2.9,1.84,1.84,0,0,0-1.37-.56,1.82,1.82,0,0,0-1.36.56,2.25,2.25,0,0,0,0,2.9,1.81,1.81,0,0,0,1.36.55A1.83,1.83,0,0,0,241.76,86.74Z"/><path class="cls-1" d="M249,82v1.43l-.35,0a1.82,1.82,0,0,0-1.37.5,2.09,2.09,0,0,0-.49,1.47v3.11h-1.5V82.08h1.43V83A2.5,2.5,0,0,1,249,82Z"/><path class="cls-1" d="M256.45,79.59v8.9H255v-.83a2.31,2.31,0,0,1-.92.69,3.14,3.14,0,0,1-1.21.23,3.4,3.4,0,0,1-1.66-.41A2.94,2.94,0,0,1,250.06,87a3.73,3.73,0,0,1,0-3.44,3,3,0,0,1,1.16-1.15,3.4,3.4,0,0,1,1.66-.41,2.94,2.94,0,0,1,1.17.22,2.31,2.31,0,0,1,.9.65V79.59ZM254,87.05a1.86,1.86,0,0,0,.68-.71,2.09,2.09,0,0,0,.25-1,2.16,2.16,0,0,0-.25-1.06,1.9,1.9,0,0,0-.68-.7,2,2,0,0,0-1-.25,2,2,0,0,0-1,.25,1.83,1.83,0,0,0-.68.7,2.16,2.16,0,0,0-.25,1.06,2.09,2.09,0,0,0,.25,1,1.79,1.79,0,0,0,.68.71,2,2,0,0,0,1,.24A2,2,0,0,0,254,87.05Z"/><path class="cls-1" d="M263.92,80.45a2.77,2.77,0,0,1,1.24,1,3.15,3.15,0,0,1,0,3.18,2.77,2.77,0,0,1-1.24,1,4.67,4.67,0,0,1-1.9.36h-1.9v2.42h-1.56v-8.4H262A4.67,4.67,0,0,1,263.92,80.45Zm-.43,3.87a1.72,1.72,0,0,0,0-2.48,2.45,2.45,0,0,0-1.55-.43h-1.82v3.34h1.82A2.45,2.45,0,0,0,263.49,84.32Z"/><path class="cls-1" d="M270.66,82v1.43l-.35,0a1.81,1.81,0,0,0-1.37.5,2,2,0,0,0-.49,1.47v3.11H267V82.08h1.43V83A2.5,2.5,0,0,1,270.66,82Z"/><path class="cls-1" d="M277.87,85.77h-5a1.77,1.77,0,0,0,.69,1.12,2.23,2.23,0,0,0,1.39.41,2.36,2.36,0,0,0,1.74-.69l.8.92a2.61,2.61,0,0,1-1.09.78,3.92,3.92,0,0,1-1.49.27,4,4,0,0,1-1.86-.42A3,3,0,0,1,271.78,87a3.34,3.34,0,0,1-.44-1.7,3.29,3.29,0,0,1,.43-1.69A3,3,0,0,1,273,82.43a3.43,3.43,0,0,1,1.7-.42,3.35,3.35,0,0,1,1.68.42,2.92,2.92,0,0,1,1.15,1.16,3.6,3.6,0,0,1,.41,1.73C277.89,85.43,277.88,85.58,277.87,85.77Zm-4.44-2.13a1.77,1.77,0,0,0-.6,1.13h3.63a1.8,1.8,0,0,0-.58-1.13,2,2,0,0,0-2.45,0Z"/><path class="cls-1" d="M279.79,88.37a3.67,3.67,0,0,1-1.19-.51l.58-1.14a3.77,3.77,0,0,0,1,.46,4.24,4.24,0,0,0,1.2.17c.89,0,1.34-.23,1.34-.71a.46.46,0,0,0-.34-.46,5.73,5.73,0,0,0-1.1-.25,11,11,0,0,1-1.29-.28,1.93,1.93,0,0,1-.86-.55,1.49,1.49,0,0,1-.37-1.08,1.72,1.72,0,0,1,.76-1.46,3.52,3.52,0,0,1,2.06-.55,5.94,5.94,0,0,1,1.32.15,4,4,0,0,1,1.08.4l-.57,1.14a3.58,3.58,0,0,0-1.84-.48,2.05,2.05,0,0,0-1,.2.59.59,0,0,0-.34.53.51.51,0,0,0,.36.5,5.9,5.9,0,0,0,1.14.29A9.58,9.58,0,0,1,283,85a2,2,0,0,1,.84.53,1.46,1.46,0,0,1,.36,1.06,1.67,1.67,0,0,1-.78,1.44,3.69,3.69,0,0,1-2.13.54A5.52,5.52,0,0,1,279.79,88.37Z"/><path class="cls-1" d="M286,88.37a3.67,3.67,0,0,1-1.19-.51l.58-1.14a3.77,3.77,0,0,0,1,.46,4.24,4.24,0,0,0,1.2.17c.89,0,1.34-.23,1.34-.71a.46.46,0,0,0-.34-.46,5.73,5.73,0,0,0-1.1-.25,11,11,0,0,1-1.29-.28,1.93,1.93,0,0,1-.86-.55A1.49,1.49,0,0,1,285,84a1.72,1.72,0,0,1,.76-1.46,3.52,3.52,0,0,1,2.06-.55,5.94,5.94,0,0,1,1.32.15,4,4,0,0,1,1.08.4l-.57,1.14a3.58,3.58,0,0,0-1.84-.48,2.05,2.05,0,0,0-1,.2.59.59,0,0,0-.34.53.51.51,0,0,0,.36.5,5.9,5.9,0,0,0,1.14.29,9.58,9.58,0,0,1,1.26.27,2,2,0,0,1,.84.53,1.46,1.46,0,0,1,.36,1.06,1.67,1.67,0,0,1-.78,1.44,3.69,3.69,0,0,1-2.13.54A5.52,5.52,0,0,1,286,88.37Z"/><path class="cls-1" d="M225.81,103.85v2.56h4.06v1.32h-4.06v3.21h-1.56v-8.4h6.13v1.31Z"/><path class="cls-1" d="M231.7,103.22a.85.85,0,0,1-.27-.64.84.84,0,0,1,.27-.64,1,1,0,0,1,.69-.26,1,1,0,0,1,.68.24.79.79,0,0,1,.28.62.9.9,0,0,1-.27.67.93.93,0,0,1-.69.27A1,1,0,0,1,231.7,103.22Zm-.07,1.31h1.5v6.41h-1.5Z"/><path class="cls-1" d="M238.81,104.46v1.43a2.5,2.5,0,0,0-.35,0,1.83,1.83,0,0,0-1.37.51,2,2,0,0,0-.49,1.47v3.11h-1.5v-6.41h1.43v.94A2.5,2.5,0,0,1,238.81,104.46Z"/><path class="cls-1" d="M246,108.22h-5a1.77,1.77,0,0,0,.69,1.12,2.25,2.25,0,0,0,1.39.41,2.36,2.36,0,0,0,1.74-.69l.8.92a2.61,2.61,0,0,1-1.09.78A3.92,3.92,0,0,1,243,111a4,4,0,0,1-1.86-.42,3,3,0,0,1-1.24-1.17,3.34,3.34,0,0,1-.44-1.7,3.29,3.29,0,0,1,.43-1.69,3,3,0,0,1,1.18-1.17,3.43,3.43,0,0,1,1.7-.42,3.33,3.33,0,0,1,1.68.42,2.92,2.92,0,0,1,1.15,1.16,3.49,3.49,0,0,1,.41,1.73A4,4,0,0,1,246,108.22Zm-4.43-2.13a1.74,1.74,0,0,0-.61,1.13h3.64a1.81,1.81,0,0,0-.59-1.13,1.84,1.84,0,0,0-1.23-.43A1.76,1.76,0,0,0,241.59,106.09Z"/><path class="cls-1" d="M252.71,104.87a3,3,0,0,1,1.16,1.15,3.73,3.73,0,0,1,0,3.44,2.94,2.94,0,0,1-1.16,1.16A3.41,3.41,0,0,1,251,111a3.14,3.14,0,0,1-1.21-.23,2.31,2.31,0,0,1-.92-.69v.83h-1.43V102H249v3.27a2.49,2.49,0,0,1,.91-.63,2.88,2.88,0,0,1,1.15-.22A3.41,3.41,0,0,1,252.71,104.87Zm-.48,4.32a2.25,2.25,0,0,0,0-2.9,1.82,1.82,0,0,0-1.36-.56,1.94,1.94,0,0,0-1,.25,1.79,1.79,0,0,0-.69.7,2.16,2.16,0,0,0-.25,1.06,2.09,2.09,0,0,0,.25,1.05,1.81,1.81,0,0,0,.69.71,1.94,1.94,0,0,0,1,.24A1.81,1.81,0,0,0,252.23,109.19Z"/><path class="cls-1" d="M260.25,105.14a2.62,2.62,0,0,1,.75,2v3.75h-1.42v-.78a1.68,1.68,0,0,1-.79.64,3,3,0,0,1-1.23.23,3.08,3.08,0,0,1-1.26-.25,1.94,1.94,0,0,1-.83-.68,1.74,1.74,0,0,1-.29-1,1.69,1.69,0,0,1,.64-1.39,3.17,3.17,0,0,1,2-.52h1.66v-.1a1.3,1.3,0,0,0-.41-1,1.71,1.71,0,0,0-1.19-.36,3.51,3.51,0,0,0-1.06.17,2.55,2.55,0,0,0-.88.47l-.59-1.1a3.58,3.58,0,0,1,1.21-.58,5.23,5.23,0,0,1,1.5-.21A3.15,3.15,0,0,1,260.25,105.14Zm-1.37,4.54a1.45,1.45,0,0,0,.62-.74v-.75H258c-.87,0-1.3.29-1.3.86a.75.75,0,0,0,.33.64,1.46,1.46,0,0,0,.9.24A2,2,0,0,0,258.88,109.68Z"/><path class="cls-1" d="M263.37,110.82a4,4,0,0,1-1.19-.51l.58-1.14a3.84,3.84,0,0,0,1,.46,4.5,4.5,0,0,0,1.19.17c.9,0,1.35-.23,1.35-.71a.47.47,0,0,0-.35-.46,5.44,5.44,0,0,0-1.09-.26,9.46,9.46,0,0,1-1.29-.27,2.05,2.05,0,0,1-.87-.55,1.53,1.53,0,0,1-.36-1.08,1.7,1.7,0,0,1,.76-1.46,3.42,3.42,0,0,1,2.06-.55,5.94,5.94,0,0,1,1.32.15,4,4,0,0,1,1.08.4l-.58,1.14a3.56,3.56,0,0,0-1.84-.48,2.05,2.05,0,0,0-1,.2.59.59,0,0,0-.34.52.52.52,0,0,0,.37.51,5.76,5.76,0,0,0,1.13.29,9.58,9.58,0,0,1,1.26.27,2,2,0,0,1,.85.53,1.5,1.5,0,0,1,.35,1.06,1.67,1.67,0,0,1-.78,1.44,3.68,3.68,0,0,1-2.12.54A5.65,5.65,0,0,1,263.37,110.82Z"/><path class="cls-1" d="M275.1,108.22h-5a1.77,1.77,0,0,0,.69,1.12,2.22,2.22,0,0,0,1.38.41,2.33,2.33,0,0,0,1.74-.69l.81.92a2.61,2.61,0,0,1-1.09.78,4.29,4.29,0,0,1-3.35-.15,3,3,0,0,1-1.24-1.17,3.24,3.24,0,0,1-.44-1.7,3.39,3.39,0,0,1,.42-1.69,3,3,0,0,1,1.19-1.17,3.43,3.43,0,0,1,1.7-.42,3.31,3.31,0,0,1,1.67.42,2.88,2.88,0,0,1,1.16,1.16,3.6,3.6,0,0,1,.41,1.73C275.12,107.88,275.11,108,275.1,108.22Zm-4.44-2.13a1.77,1.77,0,0,0-.6,1.13h3.63a1.76,1.76,0,0,0-.59-1.13,1.95,1.95,0,0,0-2.44,0Z"/><path class="cls-1" d="M230.24,129.1h1.48v3.34a4.79,4.79,0,0,1-1.52.8,5.84,5.84,0,0,1-1.77.27,4.71,4.71,0,0,1-2.32-.56,4.07,4.07,0,0,1-1.62-1.54,4.23,4.23,0,0,1-.59-2.22,4.28,4.28,0,0,1,.59-2.22,4.17,4.17,0,0,1,1.63-1.54,4.86,4.86,0,0,1,2.33-.56,5.09,5.09,0,0,1,1.92.35,3.68,3.68,0,0,1,1.45,1l-1,1a3.16,3.16,0,0,0-2.32-1,3.22,3.22,0,0,0-1.57.37,2.73,2.73,0,0,0-1.08,1,3,3,0,0,0-.39,1.53,2.93,2.93,0,0,0,.39,1.51,2.82,2.82,0,0,0,1.08,1.06,3.11,3.11,0,0,0,1.56.38,3.37,3.37,0,0,0,1.73-.43Z"/><path class="cls-1" d="M233.7,125.67a.83.83,0,0,1-.28-.64.81.81,0,0,1,.28-.64.92.92,0,0,1,.68-.26,1,1,0,0,1,.68.24.79.79,0,0,1,.28.62.9.9,0,0,1-.27.67.93.93,0,0,1-.69.27A1,1,0,0,1,233.7,125.67Zm-.08,1.31h1.5v6.41h-1.5Z"/><path class="cls-1" d="M240.94,133a1.62,1.62,0,0,1-.64.33,3,3,0,0,1-.8.11,2.27,2.27,0,0,1-1.63-.56,2.11,2.11,0,0,1-.57-1.6v-3.09h-1.06V127h1.06v-1.46h1.5V127h1.71v1.2H238.8v3.05a1,1,0,0,0,.22.71.86.86,0,0,0,.66.25,1.34,1.34,0,0,0,.84-.26Z"/><path class="cls-1" d="M226,36.5v2.56H230v1.32H226v3.21h-1.56v-8.4h6.13V36.5Z"/><path class="cls-1" d="M231.92,34.69h1.5v8.9h-1.5Z"/><path class="cls-1" d="M240,37.79a2.62,2.62,0,0,1,.75,2.05v3.75h-1.41v-.78a1.73,1.73,0,0,1-.79.64,3,3,0,0,1-1.23.23,3.08,3.08,0,0,1-1.26-.25,1.88,1.88,0,0,1-.83-.68,1.75,1.75,0,0,1-.3-1,1.72,1.72,0,0,1,.64-1.39,3.21,3.21,0,0,1,2-.52h1.65v-.1a1.3,1.3,0,0,0-.4-1,1.75,1.75,0,0,0-1.19-.36,3.57,3.57,0,0,0-1.07.17,2.64,2.64,0,0,0-.88.47l-.59-1.1a3.64,3.64,0,0,1,1.22-.58,5.23,5.23,0,0,1,1.5-.21A3.13,3.13,0,0,1,240,37.79Zm-1.37,4.54a1.41,1.41,0,0,0,.62-.74v-.75H237.7c-.86,0-1.29.29-1.29.86a.76.76,0,0,0,.32.64,1.5,1.5,0,0,0,.9.24A1.93,1.93,0,0,0,238.63,42.33Z"/><path class="cls-1" d="M243.13,43.47a3.9,3.9,0,0,1-1.19-.51l.58-1.14a3.77,3.77,0,0,0,1,.46,4.63,4.63,0,0,0,1.2.17c.89,0,1.34-.23,1.34-.71a.46.46,0,0,0-.34-.46,5.77,5.77,0,0,0-1.1-.26,9.46,9.46,0,0,1-1.29-.27,2,2,0,0,1-.86-.55,1.49,1.49,0,0,1-.37-1.08,1.7,1.7,0,0,1,.76-1.46,3.44,3.44,0,0,1,2.06-.55,5.94,5.94,0,0,1,1.32.15,4,4,0,0,1,1.08.4l-.57,1.14a3.58,3.58,0,0,0-1.84-.48,2.05,2.05,0,0,0-1,.2.59.59,0,0,0-.34.52.52.52,0,0,0,.36.51,5.9,5.9,0,0,0,1.14.29,9.58,9.58,0,0,1,1.26.27,2,2,0,0,1,.84.53,1.46,1.46,0,0,1,.36,1.06,1.67,1.67,0,0,1-.78,1.44,3.69,3.69,0,0,1-2.13.54A5.52,5.52,0,0,1,243.13,43.47Z"/><path class="cls-1" d="M251.47,40.84l-1.12,1.06v1.69h-1.5v-8.9h1.5v5.37l3.11-2.88h1.8l-2.68,2.69,2.93,3.72h-1.82Z"/><path class="cls-1" d="M232.08,12.74l-3.66,8.4h-1.54l-3.67-8.4h1.69l2.8,6.48,2.82-6.48Z"/><path class="cls-1" d="M238.82,14.73v6.41h-1.43v-.81a2.39,2.39,0,0,1-.9.66,2.83,2.83,0,0,1-1.16.24,2.54,2.54,0,0,1-2.76-2.84V14.73h1.5v3.46a1.84,1.84,0,0,0,.39,1.29,1.45,1.45,0,0,0,1.11.43,1.71,1.71,0,0,0,1.28-.5,2,2,0,0,0,.47-1.44V14.73Z"/><path class="cls-1" d="M246.79,18.42h-5a1.77,1.77,0,0,0,.69,1.12,2.23,2.23,0,0,0,1.39.41,2.36,2.36,0,0,0,1.74-.69l.8.92a2.61,2.61,0,0,1-1.09.78,3.92,3.92,0,0,1-1.49.27,4,4,0,0,1-1.86-.42,3,3,0,0,1-1.24-1.17,3.34,3.34,0,0,1-.44-1.7,3.29,3.29,0,0,1,.43-1.69,3,3,0,0,1,1.18-1.17,3.43,3.43,0,0,1,1.7-.42,3.35,3.35,0,0,1,1.68.42,2.92,2.92,0,0,1,1.15,1.16,3.6,3.6,0,0,1,.41,1.73C246.81,18.08,246.8,18.23,246.79,18.42Zm-4.44-2.13a1.77,1.77,0,0,0-.6,1.13h3.63a1.8,1.8,0,0,0-.58-1.13,2,2,0,0,0-2.45,0Z"/><path class="cls-1" d="M248,20.94a.91.91,0,0,1-.29-.71,1,1,0,0,1,.28-.72,1,1,0,0,1,.7-.28,1,1,0,0,1,1,1,.94.94,0,0,1-.29.71,1,1,0,0,1-.7.29A.94.94,0,0,1,248,20.94Z"/><path class="cls-1" d="M249.2,23.18l.43-1.11a1.5,1.5,0,0,0,.88.25.81.81,0,0,0,.64-.26,1.13,1.13,0,0,0,.22-.76V14.73h1.5v6.53a2.3,2.3,0,0,1-.59,1.68,2.16,2.16,0,0,1-1.64.61A2.36,2.36,0,0,1,249.2,23.18Zm2.23-9.76a.85.85,0,0,1-.27-.64.84.84,0,0,1,.27-.64,1.06,1.06,0,0,1,1.37,0,.82.82,0,0,1,.28.62.9.9,0,0,1-.27.67.93.93,0,0,1-.69.27A1,1,0,0,1,251.43,13.42Z"/><path class="cls-1" d="M255.3,21a3.57,3.57,0,0,1-1.19-.51l.57-1.14a4,4,0,0,0,1,.46,4.19,4.19,0,0,0,1.2.17c.89,0,1.34-.23,1.34-.71a.46.46,0,0,0-.34-.46,6.66,6.66,0,0,0-1.1-.26,9.46,9.46,0,0,1-1.29-.27,1.93,1.93,0,0,1-.86-.55,1.49,1.49,0,0,1-.37-1.08,1.7,1.7,0,0,1,.76-1.46,3.44,3.44,0,0,1,2.06-.55,5.94,5.94,0,0,1,1.32.15,4,4,0,0,1,1.08.4l-.58,1.14a3.52,3.52,0,0,0-1.83-.48,2,2,0,0,0-1,.2.6.6,0,0,0-.35.52.52.52,0,0,0,.37.51,5.76,5.76,0,0,0,1.13.29,8.91,8.91,0,0,1,1.26.27,2,2,0,0,1,.85.53,1.46,1.46,0,0,1,.35,1.06,1.67,1.67,0,0,1-.78,1.44,3.66,3.66,0,0,1-2.12.54A5.52,5.52,0,0,1,255.3,21Z"/><path class="cls-1" d="M378.38,13.5a4.49,4.49,0,0,0-3.87,2.25h-4a7.86,7.86,0,0,1-7.84-7.4,4.49,4.49,0,1,0-4.54,0V23.13a4.5,4.5,0,1,0,4.5,0V17.42a12.34,12.34,0,0,0,7.88,2.84h4a4.49,4.49,0,1,0,3.87-6.76Zm-18-11.25a2.25,2.25,0,1,1-2.25,2.25A2.25,2.25,0,0,1,360.38,2.25Zm0,27A2.25,2.25,0,1,1,362.63,27,2.25,2.25,0,0,1,360.38,29.26Zm18-9A2.26,2.26,0,1,1,380.63,18,2.25,2.25,0,0,1,378.38,20.26Z"/><path class="cls-1" d="M378.38,35.5a4.47,4.47,0,0,0-3.87,2.25h-4a7.86,7.86,0,0,1-7.84-7.4c1.32-.79-5.88-.76-4.54,0V45.13a4.5,4.5,0,1,0,4.5,0V39.41a12.28,12.28,0,0,0,7.88,2.84h4a4.49,4.49,0,1,0,3.87-6.75Zm-18,15.76A2.26,2.26,0,1,1,362.63,49,2.26,2.26,0,0,1,360.38,51.26Zm18-9A2.25,2.25,0,1,1,380.63,40,2.25,2.25,0,0,1,378.38,42.25Z"/><path class="cls-1" d="M378.38,57.88a4.47,4.47,0,0,0-3.87,2.25h-4a7.86,7.86,0,0,1-7.84-7.4c1.32-.79-5.88-.76-4.54,0V67.51a4.5,4.5,0,1,0,4.5,0V61.8a12.33,12.33,0,0,0,7.88,2.83h4a4.49,4.49,0,1,0,3.87-6.75Zm-18,15.76a2.25,2.25,0,1,1,2.25-2.25A2.25,2.25,0,0,1,360.38,73.64Zm18-9a2.25,2.25,0,1,1,2.25-2.25A2.25,2.25,0,0,1,378.38,64.63Z"/><path class="cls-1" d="M395.71,64.08h-4.2L390.68,66h-1.61l3.78-8.4h1.54l3.79,8.4h-1.63Zm-.52-1.23-1.58-3.67L392,62.85Z"/><path class="cls-1" d="M405.32,57.12V66h-1.44v-.83a2.33,2.33,0,0,1-.92.69,3.09,3.09,0,0,1-1.2.22,3.44,3.44,0,0,1-1.67-.4,2.92,2.92,0,0,1-1.15-1.16,3.73,3.73,0,0,1,0-3.44A2.89,2.89,0,0,1,400.09,60a3.44,3.44,0,0,1,1.67-.41,2.92,2.92,0,0,1,1.16.22,2.4,2.4,0,0,1,.9.64V57.12Zm-2.41,7.45a1.7,1.7,0,0,0,.68-.7,2.09,2.09,0,0,0,.25-1,2.13,2.13,0,0,0-.25-1.06,1.76,1.76,0,0,0-.68-.7,1.87,1.87,0,0,0-1-.25,1.91,1.91,0,0,0-1,.25,1.83,1.83,0,0,0-.68.7,2.13,2.13,0,0,0-.25,1.06,2.09,2.09,0,0,0,.25,1,1.76,1.76,0,0,0,.68.7,1.91,1.91,0,0,0,1,.25A1.87,1.87,0,0,0,402.91,64.57Z"/><path class="cls-1" d="M408.42,65.68a3,3,0,0,1-1.22-1.17,3.48,3.48,0,0,1,0-3.39A3.1,3.1,0,0,1,408.42,60a3.62,3.62,0,0,1,1.75-.42,3.66,3.66,0,0,1,1.76.42,3.1,3.1,0,0,1,1.22,1.16,3.48,3.48,0,0,1,0,3.39,3,3,0,0,1-1.22,1.17,3.55,3.55,0,0,1-1.76.42A3.51,3.51,0,0,1,408.42,65.68Zm3.12-1.41a2,2,0,0,0,.54-1.45,2,2,0,0,0-.54-1.46,1.87,1.87,0,0,0-1.37-.55,1.83,1.83,0,0,0-1.36.55,2,2,0,0,0-.54,1.46,2,2,0,0,0,.54,1.45,1.79,1.79,0,0,0,1.36.55A1.83,1.83,0,0,0,411.54,64.27Z"/><path class="cls-1" d="M420.25,60a2.85,2.85,0,0,1,1.16,1.15,3.73,3.73,0,0,1,0,3.44,2.88,2.88,0,0,1-1.16,1.16,3.41,3.41,0,0,1-1.67.4,3.18,3.18,0,0,1-1.21-.22,2.3,2.3,0,0,1-.91-.69V66H415v-8.9h1.5v3.27a2.45,2.45,0,0,1,.9-.63,2.88,2.88,0,0,1,1.15-.22A3.41,3.41,0,0,1,420.25,60Zm-.48,4.32a2,2,0,0,0,.54-1.45,2,2,0,0,0-.54-1.46,1.83,1.83,0,0,0-1.36-.55,1.87,1.87,0,0,0-1,.25,1.7,1.7,0,0,0-.68.7,2.13,2.13,0,0,0-.26,1.06,2.1,2.1,0,0,0,.26,1,1.64,1.64,0,0,0,.68.7,1.87,1.87,0,0,0,1,.25A1.79,1.79,0,0,0,419.77,64.27Z"/><path class="cls-1" d="M429.26,63.3h-5a1.77,1.77,0,0,0,.69,1.12,2.31,2.31,0,0,0,1.39.41,2.36,2.36,0,0,0,1.74-.69l.8.92a2.7,2.7,0,0,1-1.09.78,3.92,3.92,0,0,1-1.49.26,3.86,3.86,0,0,1-1.86-.42,3,3,0,0,1-1.24-1.17,3.5,3.5,0,0,1,0-3.38A3,3,0,0,1,424.34,60a3.65,3.65,0,0,1,3.38,0,3,3,0,0,1,1.15,1.17,3.49,3.49,0,0,1,.41,1.73A4.14,4.14,0,0,1,429.26,63.3Zm-4.44-2.13a1.77,1.77,0,0,0-.6,1.13h3.64a1.87,1.87,0,0,0-3-1.13Z"/><path class="cls-1" d="M439.54,58a2.75,2.75,0,0,1,1.24,1,3.17,3.17,0,0,1,0,3.19,2.77,2.77,0,0,1-1.24,1,4.67,4.67,0,0,1-1.9.36h-1.9V66h-1.56v-8.4h3.46A4.67,4.67,0,0,1,439.54,58Zm-.43,3.86a1.5,1.5,0,0,0,.53-1.23,1.52,1.52,0,0,0-.53-1.24,2.39,2.39,0,0,0-1.55-.43h-1.82v3.34h1.82A2.39,2.39,0,0,0,439.11,61.84Z"/><path class="cls-1" d="M448.33,60.25a2.78,2.78,0,0,1,.73,2.1V66h-1.5V62.54a1.79,1.79,0,0,0-.4-1.27,1.47,1.47,0,0,0-1.13-.42,1.69,1.69,0,0,0-1.3.5,2,2,0,0,0-.48,1.43V66h-1.5v-8.9h1.5v3.24a2.32,2.32,0,0,1,.91-.61,3.43,3.43,0,0,1,1.22-.21A2.7,2.7,0,0,1,448.33,60.25Z"/><path class="cls-1" d="M452.15,65.68a3,3,0,0,1-1.21-1.17,3.48,3.48,0,0,1,0-3.39A3.07,3.07,0,0,1,452.15,60a3.9,3.9,0,0,1,3.52,0,3.1,3.1,0,0,1,1.22,1.16,3.48,3.48,0,0,1,0,3.39,3,3,0,0,1-1.22,1.17,3.9,3.9,0,0,1-3.52,0Zm3.13-1.41a2,2,0,0,0,.54-1.45,2.05,2.05,0,0,0-.54-1.46,2,2,0,0,0-2.74,0,2,2,0,0,0-.53,1.46,2,2,0,0,0,.53,1.45,2,2,0,0,0,2.74,0Z"/><path class="cls-1" d="M462.62,65.67A1.85,1.85,0,0,1,462,66a3,3,0,0,1-.8.1,2.25,2.25,0,0,1-1.63-.55,2.1,2.1,0,0,1-.58-1.61V60.86h-1.06v-1.2H459V58.2h1.5v1.46h1.72v1.2h-1.72v3a1,1,0,0,0,.23.71.83.83,0,0,0,.66.25,1.28,1.28,0,0,0,.84-.27Z"/><path class="cls-1" d="M464.77,65.68a3,3,0,0,1-1.22-1.17,3.48,3.48,0,0,1,0-3.39A3.1,3.1,0,0,1,464.77,60a3.88,3.88,0,0,1,3.51,0,3.1,3.1,0,0,1,1.22,1.16,3.48,3.48,0,0,1,0,3.39,3,3,0,0,1-1.22,1.17,3.88,3.88,0,0,1-3.51,0Zm3.12-1.41a2,2,0,0,0,.54-1.45,2,2,0,0,0-.54-1.46,1.87,1.87,0,0,0-1.37-.55,1.83,1.83,0,0,0-1.36.55,2,2,0,0,0-.54,1.46,2,2,0,0,0,.54,1.45,1.79,1.79,0,0,0,1.36.55A1.83,1.83,0,0,0,467.89,64.27Z"/><path class="cls-1" d="M471.83,65.9a3.83,3.83,0,0,1-1.18-.52l.57-1.14a3.69,3.69,0,0,0,1,.47,4.5,4.5,0,0,0,1.19.17c.9,0,1.35-.24,1.35-.71a.48.48,0,0,0-.34-.47,6.88,6.88,0,0,0-1.1-.25,9.46,9.46,0,0,1-1.29-.27,2.11,2.11,0,0,1-.87-.55,1.54,1.54,0,0,1-.36-1.09,1.69,1.69,0,0,1,.76-1.45,3.42,3.42,0,0,1,2.06-.55,5.94,5.94,0,0,1,1.32.15,3.65,3.65,0,0,1,1.08.4l-.58,1.14a3.52,3.52,0,0,0-1.83-.48,2,2,0,0,0-1,.2.6.6,0,0,0-.35.52.52.52,0,0,0,.37.51,5.23,5.23,0,0,0,1.13.28,8.73,8.73,0,0,1,1.26.28,2,2,0,0,1,.85.53,1.45,1.45,0,0,1,.35,1.05,1.67,1.67,0,0,1-.78,1.44,3.68,3.68,0,0,1-2.12.54A5.64,5.64,0,0,1,471.83,65.9Z"/><path class="cls-1" d="M483.14,60.25a2.78,2.78,0,0,1,.73,2.1V66h-1.5V62.54a1.79,1.79,0,0,0-.4-1.27,1.46,1.46,0,0,0-1.12-.42,1.7,1.7,0,0,0-1.31.5,2,2,0,0,0-.48,1.43V66h-1.5v-8.9h1.5v3.24a2.36,2.36,0,0,1,.92-.61,3.36,3.36,0,0,1,1.22-.21A2.69,2.69,0,0,1,483.14,60.25Z"/><path class="cls-1" d="M487,65.68a3,3,0,0,1-1.22-1.17,3.48,3.48,0,0,1,0-3.39A3.1,3.1,0,0,1,487,60a3.62,3.62,0,0,1,1.75-.42,3.66,3.66,0,0,1,1.76.42,3.1,3.1,0,0,1,1.22,1.16,3.48,3.48,0,0,1,0,3.39,3,3,0,0,1-1.22,1.17,3.55,3.55,0,0,1-1.76.42A3.51,3.51,0,0,1,487,65.68Zm3.12-1.41a2,2,0,0,0,.54-1.45,2,2,0,0,0-.54-1.46,1.87,1.87,0,0,0-1.37-.55,1.83,1.83,0,0,0-1.36.55,2,2,0,0,0-.54,1.46,2,2,0,0,0,.54,1.45,1.79,1.79,0,0,0,1.36.55A1.83,1.83,0,0,0,490.09,64.27Z"/><path class="cls-1" d="M498.8,60A2.85,2.85,0,0,1,500,61.1a3.73,3.73,0,0,1,0,3.44,2.88,2.88,0,0,1-1.16,1.16,3.41,3.41,0,0,1-1.67.4,2.57,2.57,0,0,1-2.05-.86v3.11h-1.5V59.61H495v.84a2.28,2.28,0,0,1,.91-.68,3.18,3.18,0,0,1,1.21-.23A3.41,3.41,0,0,1,498.8,60Zm-.48,4.32a2,2,0,0,0,.54-1.45,2,2,0,0,0-.54-1.46,1.83,1.83,0,0,0-1.36-.55,1.87,1.87,0,0,0-1,.25,1.7,1.7,0,0,0-.68.7,2.13,2.13,0,0,0-.26,1.06,2.1,2.1,0,0,0,.26,1,1.64,1.64,0,0,0,.68.7,1.87,1.87,0,0,0,1,.25A1.79,1.79,0,0,0,498.32,64.27Z"/><path class="cls-1" d="M395.71,41.64h-4.2l-.83,1.94h-1.61l3.78-8.4h1.54l3.79,8.4h-1.63Zm-.52-1.23-1.58-3.67L392,40.41Z"/><path class="cls-1" d="M405.32,34.68v8.9h-1.44v-.83a2.24,2.24,0,0,1-.92.69,3.09,3.09,0,0,1-1.2.23,3.44,3.44,0,0,1-1.67-.41,2.92,2.92,0,0,1-1.15-1.16,3.73,3.73,0,0,1,0-3.44,3,3,0,0,1,1.15-1.15,3.44,3.44,0,0,1,1.67-.41,2.92,2.92,0,0,1,1.16.22,2.31,2.31,0,0,1,.9.65V34.68Zm-2.41,7.46a1.79,1.79,0,0,0,.68-.71,2.09,2.09,0,0,0,.25-1,2.16,2.16,0,0,0-.25-1.06,1.76,1.76,0,0,0-.68-.7,2,2,0,0,0-1-.25,2,2,0,0,0-1,.25,1.83,1.83,0,0,0-.68.7,2.16,2.16,0,0,0-.25,1.06,2.09,2.09,0,0,0,.25,1,1.86,1.86,0,0,0,.68.71,2,2,0,0,0,1,.24A2,2,0,0,0,402.91,42.14Z"/><path class="cls-1" d="M408.42,43.25a3.05,3.05,0,0,1-1.22-1.17,3.34,3.34,0,0,1-.44-1.7,3.27,3.27,0,0,1,.44-1.69,3.05,3.05,0,0,1,1.22-1.17,3.62,3.62,0,0,1,1.75-.42,3.66,3.66,0,0,1,1.76.42,3.05,3.05,0,0,1,1.22,1.17,3.27,3.27,0,0,1,.44,1.69,3.34,3.34,0,0,1-.44,1.7,3.05,3.05,0,0,1-1.22,1.17,3.66,3.66,0,0,1-1.76.42A3.62,3.62,0,0,1,408.42,43.25Zm3.12-1.42a2.22,2.22,0,0,0,0-2.9,1.84,1.84,0,0,0-1.37-.56,1.8,1.8,0,0,0-1.36.56,2.22,2.22,0,0,0,0,2.9,1.79,1.79,0,0,0,1.36.55A1.83,1.83,0,0,0,411.54,41.83Z"/><path class="cls-1" d="M420.25,37.51a2.92,2.92,0,0,1,1.16,1.15,3.73,3.73,0,0,1,0,3.44,2.88,2.88,0,0,1-1.16,1.16,3.41,3.41,0,0,1-1.67.41,3.18,3.18,0,0,1-1.21-.23,2.21,2.21,0,0,1-.91-.69v.83H415v-8.9h1.5V38a2.45,2.45,0,0,1,.9-.63,2.88,2.88,0,0,1,1.15-.22A3.41,3.41,0,0,1,420.25,37.51Zm-.48,4.32a2.22,2.22,0,0,0,0-2.9,1.8,1.8,0,0,0-1.36-.56,2,2,0,0,0-1,.25,1.7,1.7,0,0,0-.68.7,2.16,2.16,0,0,0-.26,1.06,2.1,2.1,0,0,0,.26,1,1.72,1.72,0,0,0,.68.71,2,2,0,0,0,1,.24A1.79,1.79,0,0,0,419.77,41.83Z"/><path class="cls-1" d="M429.26,40.86h-5a1.77,1.77,0,0,0,.69,1.12,2.25,2.25,0,0,0,1.39.41,2.36,2.36,0,0,0,1.74-.69l.8.92a2.61,2.61,0,0,1-1.09.78,3.92,3.92,0,0,1-1.49.27,4,4,0,0,1-1.86-.42,3,3,0,0,1-1.24-1.17,3.34,3.34,0,0,1-.44-1.7,3.29,3.29,0,0,1,.43-1.69,3,3,0,0,1,1.18-1.17,3.43,3.43,0,0,1,1.7-.42,3.33,3.33,0,0,1,1.68.42,2.92,2.92,0,0,1,1.15,1.16,3.49,3.49,0,0,1,.41,1.73A4,4,0,0,1,429.26,40.86Zm-4.44-2.13a1.77,1.77,0,0,0-.6,1.13h3.64a1.81,1.81,0,0,0-.59-1.13A1.84,1.84,0,0,0,426,38.3,1.8,1.8,0,0,0,424.82,38.73Z"/><path class="cls-1" d="M434.18,35.18h1.56v8.4h-1.56Z"/><path class="cls-1" d="M437.86,34.68h1.5v8.9h-1.5Z"/><path class="cls-1" d="M441.33,34.68h1.5v8.9h-1.5Z"/><path class="cls-1" d="M451,37.17v6.41h-1.43v-.81a2.39,2.39,0,0,1-.9.66,3.09,3.09,0,0,1-3.18-.48,2.82,2.82,0,0,1-.74-2.12V37.17h1.5v3.46a1.84,1.84,0,0,0,.39,1.29,1.45,1.45,0,0,0,1.11.43,1.69,1.69,0,0,0,1.28-.5,2,2,0,0,0,.47-1.44V37.17Z"/><path class="cls-1" d="M453.43,43.46a3.79,3.79,0,0,1-1.19-.51l.58-1.14a3.77,3.77,0,0,0,1,.46,4.57,4.57,0,0,0,1.2.17c.89,0,1.34-.23,1.34-.71a.46.46,0,0,0-.34-.46A5.77,5.77,0,0,0,455,41a9.46,9.46,0,0,1-1.29-.27,2,2,0,0,1-.86-.55,1.49,1.49,0,0,1-.37-1.08,1.7,1.7,0,0,1,.76-1.46,3.44,3.44,0,0,1,2.06-.55,5.94,5.94,0,0,1,1.32.15,4,4,0,0,1,1.08.4l-.58,1.14a3.52,3.52,0,0,0-1.83-.48,2,2,0,0,0-1,.2.59.59,0,0,0-.34.52.52.52,0,0,0,.36.51,5.7,5.7,0,0,0,1.14.29,9,9,0,0,1,1.25.27,2,2,0,0,1,.85.53,1.46,1.46,0,0,1,.36,1.06,1.68,1.68,0,0,1-.79,1.44,3.66,3.66,0,0,1-2.12.54A5.52,5.52,0,0,1,453.43,43.46Z"/><path class="cls-1" d="M463,43.23a1.62,1.62,0,0,1-.64.33,3,3,0,0,1-.8.11,2.27,2.27,0,0,1-1.63-.56,2.11,2.11,0,0,1-.57-1.6V38.42H458.3v-1.2h1.06V35.76h1.5v1.46h1.71v1.2h-1.71v3a1,1,0,0,0,.22.71.85.85,0,0,0,.66.25,1.34,1.34,0,0,0,.84-.26Z"/><path class="cls-1" d="M468,37.1v1.43a2.5,2.5,0,0,0-.35,0,1.81,1.81,0,0,0-1.37.51,2,2,0,0,0-.49,1.47v3.11h-1.5V37.17h1.43v.94A2.5,2.5,0,0,1,468,37.1Z"/><path class="cls-1" d="M473.8,37.78a2.62,2.62,0,0,1,.75,2v3.75h-1.42V42.8a1.68,1.68,0,0,1-.79.64,3,3,0,0,1-1.23.23,3.08,3.08,0,0,1-1.26-.25,1.94,1.94,0,0,1-.83-.68,1.74,1.74,0,0,1-.29-1,1.69,1.69,0,0,1,.64-1.39,3.17,3.17,0,0,1,2-.52h1.66v-.1a1.3,1.3,0,0,0-.41-1,1.71,1.71,0,0,0-1.19-.36,3.51,3.51,0,0,0-1.06.17,2.55,2.55,0,0,0-.88.47l-.59-1.1a3.58,3.58,0,0,1,1.21-.58,5.23,5.23,0,0,1,1.5-.21A3.15,3.15,0,0,1,473.8,37.78Zm-1.37,4.54a1.45,1.45,0,0,0,.62-.74v-.75H471.5c-.87,0-1.3.29-1.3.86a.75.75,0,0,0,.33.64,1.46,1.46,0,0,0,.9.24A2,2,0,0,0,472.43,42.32Z"/><path class="cls-1" d="M480.32,43.23a1.69,1.69,0,0,1-.64.33,3,3,0,0,1-.8.11,2.24,2.24,0,0,1-1.63-.56,2.08,2.08,0,0,1-.58-1.6V38.42h-1.06v-1.2h1.06V35.76h1.5v1.46h1.72v1.2h-1.72v3a1,1,0,0,0,.23.71.83.83,0,0,0,.66.25,1.36,1.36,0,0,0,.84-.26Z"/><path class="cls-1" d="M482.47,43.25a3.05,3.05,0,0,1-1.22-1.17,3.34,3.34,0,0,1-.44-1.7,3.27,3.27,0,0,1,.44-1.69,3.05,3.05,0,0,1,1.22-1.17,3.62,3.62,0,0,1,1.75-.42,3.66,3.66,0,0,1,1.76.42,3.05,3.05,0,0,1,1.22,1.17,3.27,3.27,0,0,1,.44,1.69,3.34,3.34,0,0,1-.44,1.7A3.05,3.05,0,0,1,486,43.25a3.66,3.66,0,0,1-1.76.42A3.62,3.62,0,0,1,482.47,43.25Zm3.12-1.42a2.22,2.22,0,0,0,0-2.9,1.84,1.84,0,0,0-1.37-.56,1.8,1.8,0,0,0-1.36.56,2.22,2.22,0,0,0,0,2.9,1.79,1.79,0,0,0,1.36.55A1.83,1.83,0,0,0,485.59,41.83Z"/><path class="cls-1" d="M492.79,37.1v1.43a2.5,2.5,0,0,0-.35,0,1.81,1.81,0,0,0-1.37.51,2,2,0,0,0-.49,1.47v3.11h-1.5V37.17h1.43v.94A2.5,2.5,0,0,1,492.79,37.1Z"/><path class="cls-1" d="M395.77,19.2h-4.2l-.83,1.94h-1.61l3.78-8.4h1.54l3.79,8.4h-1.63ZM395.25,18l-1.58-3.67L392.1,18Z"/><path class="cls-1" d="M405.38,12.24v8.9h-1.44v-.83A2.24,2.24,0,0,1,403,21a3.09,3.09,0,0,1-1.2.23,3.44,3.44,0,0,1-1.67-.41A2.92,2.92,0,0,1,399,19.66a3.73,3.73,0,0,1,0-3.44,3,3,0,0,1,1.15-1.15,3.44,3.44,0,0,1,1.67-.41,2.92,2.92,0,0,1,1.16.22,2.31,2.31,0,0,1,.9.65V12.24ZM403,19.7a1.79,1.79,0,0,0,.68-.71,2.09,2.09,0,0,0,.25-1,2.16,2.16,0,0,0-.25-1.06,1.76,1.76,0,0,0-.68-.7,2,2,0,0,0-1-.25,2,2,0,0,0-1,.25,1.83,1.83,0,0,0-.68.7,2.16,2.16,0,0,0-.25,1.06,2.09,2.09,0,0,0,.25,1,1.86,1.86,0,0,0,.68.71,2,2,0,0,0,1,.24A2,2,0,0,0,403,19.7Z"/><path class="cls-1" d="M408.48,20.81a3.05,3.05,0,0,1-1.22-1.17,3.34,3.34,0,0,1-.44-1.7,3.27,3.27,0,0,1,.44-1.69,3.05,3.05,0,0,1,1.22-1.17,3.62,3.62,0,0,1,1.75-.42,3.66,3.66,0,0,1,1.76.42,3.05,3.05,0,0,1,1.22,1.17,3.27,3.27,0,0,1,.44,1.69,3.34,3.34,0,0,1-.44,1.7A3.05,3.05,0,0,1,412,20.81a3.66,3.66,0,0,1-1.76.42A3.62,3.62,0,0,1,408.48,20.81Zm3.12-1.42a2,2,0,0,0,.54-1.45,2,2,0,0,0-.54-1.45,1.84,1.84,0,0,0-1.37-.56,1.8,1.8,0,0,0-1.36.56,2,2,0,0,0-.54,1.45,2,2,0,0,0,.54,1.45,1.79,1.79,0,0,0,1.36.55A1.83,1.83,0,0,0,411.6,19.39Z"/><path class="cls-1" d="M420.31,15.07a2.92,2.92,0,0,1,1.16,1.15,3.73,3.73,0,0,1,0,3.44,2.88,2.88,0,0,1-1.16,1.16,3.41,3.41,0,0,1-1.67.41,3.18,3.18,0,0,1-1.21-.23,2.21,2.21,0,0,1-.91-.69v.83h-1.43v-8.9h1.5v3.27a2.57,2.57,0,0,1,.9-.63,2.88,2.88,0,0,1,1.15-.22A3.41,3.41,0,0,1,420.31,15.07Zm-.48,4.32a2,2,0,0,0,.54-1.45,2,2,0,0,0-.54-1.45,1.8,1.8,0,0,0-1.36-.56,2,2,0,0,0-1,.25,1.7,1.7,0,0,0-.68.7,2.16,2.16,0,0,0-.26,1.06,2.1,2.1,0,0,0,.26,1,1.72,1.72,0,0,0,.68.71,2,2,0,0,0,1,.24A1.79,1.79,0,0,0,419.83,19.39Z"/><path class="cls-1" d="M429.32,18.42h-5a1.77,1.77,0,0,0,.69,1.12,2.25,2.25,0,0,0,1.39.41,2.36,2.36,0,0,0,1.74-.69l.8.92a2.61,2.61,0,0,1-1.09.78,3.92,3.92,0,0,1-1.49.27,4,4,0,0,1-1.86-.42,3,3,0,0,1-1.24-1.17,3.34,3.34,0,0,1-.44-1.7,3.29,3.29,0,0,1,.43-1.69,3,3,0,0,1,1.18-1.17,3.43,3.43,0,0,1,1.7-.42,3.33,3.33,0,0,1,1.68.42,2.92,2.92,0,0,1,1.15,1.16,3.49,3.49,0,0,1,.41,1.73A4,4,0,0,1,429.32,18.42Zm-4.43-2.13a1.74,1.74,0,0,0-.61,1.13h3.64a1.75,1.75,0,0,0-1.82-1.56A1.81,1.81,0,0,0,424.89,16.29Z"/><path class="cls-1" d="M439.53,21.14,437.25,18,435,21.14h-1.77l3.12-4.28-2.95-4.12h1.76l2.15,3,2.12-3h1.69l-2.93,4.06,3.15,4.34Z"/><path class="cls-1" d="M442.28,12.74H446a5.38,5.38,0,0,1,2.39.52A3.93,3.93,0,0,1,450,14.74a4.22,4.22,0,0,1,.57,2.2,4.17,4.17,0,0,1-.57,2.2,3.93,3.93,0,0,1-1.62,1.48,5.25,5.25,0,0,1-2.39.52h-3.67Zm3.6,7.08a3.69,3.69,0,0,0,1.63-.35,2.63,2.63,0,0,0,1.08-1,3,3,0,0,0,.37-1.52,3,3,0,0,0-.37-1.51,2.57,2.57,0,0,0-1.08-1,3.56,3.56,0,0,0-1.63-.36h-2v5.76Z"/></svg>