<svg id="Capa_1" data-name="Capa 1" xmlns="http://www.w3.org/2000/svg" viewBox="0 0 578.55 171.62"><defs><style>.cls-1,.cls-2{fill:#faf2f7;}.cls-2{font-size:14px;font-family:Lato-Bold, Lato;font-weight:700;}.cls-3{letter-spacing:0.03em;}.cls-4{letter-spacing:-0.02em;}.cls-5{letter-spacing:-0.02em;}.cls-6{letter-spacing:-0.05em;}.cls-7{letter-spacing:-0.01em;}.cls-8{letter-spacing:0em;}</style></defs><path class="cls-1" d="M27,16.21a5.37,5.37,0,0,0-4.65,2.7h-4.8A9.45,9.45,0,0,1,8.16,10,5.39,5.39,0,1,0,0,5.4a5.37,5.37,0,0,0,2.7,4.65V27.76a5.4,5.4,0,1,0,5.4,0V20.9a14.78,14.78,0,0,0,9.46,3.41h4.8A5.39,5.39,0,1,0,27,16.21ZM5.4,2.7A2.7,2.7,0,1,1,2.7,5.4,2.7,2.7,0,0,1,5.4,2.7Zm0,32.41a2.7,2.7,0,1,1,2.7-2.7A2.7,2.7,0,0,1,5.4,35.11ZM27,24.31a2.7,2.7,0,1,1,2.7-2.7A2.7,2.7,0,0,1,27,24.31Z"/><path class="cls-1" d="M27,42.6a5.37,5.37,0,0,0-4.65,2.7h-4.8a9.44,9.44,0,0,1-9.4-8.88c1.58-1-7.07-.91-5.46,0v17.7a5.4,5.4,0,1,0,5.4,0V47.3a14.83,14.83,0,0,0,9.46,3.4h4.8A5.39,5.39,0,1,0,27,42.6ZM5.4,61.51a2.71,2.71,0,1,1,2.7-2.7A2.7,2.7,0,0,1,5.4,61.51ZM27,50.7a2.7,2.7,0,1,1,2.7-2.7A2.7,2.7,0,0,1,27,50.7Z"/><path class="cls-1" d="M27,69.46a5.37,5.37,0,0,0-4.65,2.7h-4.8a9.44,9.44,0,0,1-9.4-8.89c1.58-.94-7.07-.9-5.46,0V81a5.4,5.4,0,1,0,5.4,0V74.16a14.83,14.83,0,0,0,9.46,3.4h4.8A5.39,5.39,0,1,0,27,69.46ZM5.4,88.36a2.7,2.7,0,1,1,2.7-2.7A2.7,2.7,0,0,1,5.4,88.36ZM27,77.56a2.7,2.7,0,1,1,2.7-2.7A2.7,2.7,0,0,1,27,77.56Z"/><path class="cls-1" d="M27,96.29A5.39,5.39,0,0,0,22.36,99h-4.8a9.44,9.44,0,0,1-9.4-8.88c1.58-.94-7.07-.91-5.46,0v17.71a5.4,5.4,0,1,0,5.4,0V101a14.78,14.78,0,0,0,9.46,3.41h4.8A5.39,5.39,0,1,0,27,96.29ZM5.4,115.2a2.7,2.7,0,1,1,2.7-2.7A2.7,2.7,0,0,1,5.4,115.2ZM27,104.4a2.71,2.71,0,1,1,2.7-2.7A2.7,2.7,0,0,1,27,104.4Z"/><path class="cls-1" d="M27,123.15a5.39,5.39,0,0,0-4.65,2.7h-4.8A9.44,9.44,0,0,1,8.16,117c1.58-1-7.07-.91-5.46,0v17.71a5.39,5.39,0,1,0,8.1,4.65,5.37,5.37,0,0,0-2.7-4.65v-6.86a14.83,14.83,0,0,0,9.46,3.4h4.8a5.39,5.39,0,1,0,4.65-8.1ZM5.4,142.06a2.7,2.7,0,1,1,2.7-2.7A2.7,2.7,0,0,1,5.4,142.06ZM27,131.25a2.7,2.7,0,1,1,2.7-2.7A2.7,2.7,0,0,1,27,131.25Z"/><path class="cls-1" d="M27,150a5.37,5.37,0,0,0-4.65,2.7h-4.8a9.44,9.44,0,0,1-9.4-8.89c1.58-.94-7.07-.9-5.46,0v17.7a5.4,5.4,0,1,0,5.4,0v-6.85a14.83,14.83,0,0,0,9.46,3.4h4.8A5.39,5.39,0,1,0,27,150ZM5.4,168.92a2.71,2.71,0,1,1,2.7-2.71A2.7,2.7,0,0,1,5.4,168.92ZM27,158.11a2.7,2.7,0,1,1,2.7-2.7A2.7,2.7,0,0,1,27,158.11Z"/><text class="cls-2" transform="translate(41.18 78.96)">C</text><text class="cls-2" transform="translate(41.18 106.4)">SQL</text><text class="cls-2" transform="translate(41.74 132.66)">Data Strcutures</text><text class="cls-2" transform="translate(42.3 160.11)">Algorithms</text><text class="cls-2" transform="translate(41.74 52.71)">Python</text><text class="cls-2" transform="translate(41.74 25.29)">HTM<tspan class="cls-3" x="31.93" y="0">L</tspan><tspan x="39.58" y="0">, CSS &amp; JS</tspan></text><path class="cls-1" d="M252.23,16.21a5.37,5.37,0,0,0-4.65,2.7h-4.8a9.45,9.45,0,0,1-9.4-8.89,5.4,5.4,0,1,0-5.46,0V27.76a5.4,5.4,0,1,0,5.4,0V20.9a14.78,14.78,0,0,0,9.46,3.41h4.8a5.39,5.39,0,1,0,4.65-8.1ZM230.62,2.7a2.7,2.7,0,1,1-2.7,2.7A2.7,2.7,0,0,1,230.62,2.7Zm0,32.41a2.7,2.7,0,1,1,2.7-2.7A2.7,2.7,0,0,1,230.62,35.11Zm21.61-10.8a2.7,2.7,0,1,1,2.7-2.7A2.7,2.7,0,0,1,252.23,24.31Z"/><path class="cls-1" d="M252.23,42.6a5.37,5.37,0,0,0-4.65,2.7h-4.8a9.44,9.44,0,0,1-9.4-8.88c1.58-1-7.07-.91-5.46,0v17.7a5.4,5.4,0,1,0,5.4,0V47.3a14.83,14.83,0,0,0,9.46,3.4h4.8a5.39,5.39,0,1,0,4.65-8.1ZM230.62,61.51a2.71,2.71,0,1,1,2.7-2.7A2.7,2.7,0,0,1,230.62,61.51ZM252.23,50.7a2.7,2.7,0,1,1,2.7-2.7A2.7,2.7,0,0,1,252.23,50.7Z"/><path class="cls-1" d="M252.23,69.46a5.37,5.37,0,0,0-4.65,2.7h-4.8a9.44,9.44,0,0,1-9.4-8.89c1.58-.94-7.07-.9-5.46,0V81a5.4,5.4,0,1,0,5.4,0V74.16a14.83,14.83,0,0,0,9.46,3.4h4.8a5.39,5.39,0,1,0,4.65-8.1Zm-21.61,18.9a2.7,2.7,0,1,1,2.7-2.7A2.7,2.7,0,0,1,230.62,88.36Zm21.61-10.8a2.7,2.7,0,1,1,2.7-2.7A2.7,2.7,0,0,1,252.23,77.56Z"/><path class="cls-1" d="M252.23,96.29a5.39,5.39,0,0,0-4.65,2.7h-4.8a9.44,9.44,0,0,1-9.4-8.88c1.58-.94-7.07-.91-5.46,0v17.71a5.4,5.4,0,1,0,5.4,0V101a14.78,14.78,0,0,0,9.46,3.41h4.8a5.39,5.39,0,1,0,4.65-8.11ZM230.62,115.2a2.7,2.7,0,1,1,2.7-2.7A2.7,2.7,0,0,1,230.62,115.2Zm21.61-10.8a2.71,2.71,0,1,1,2.7-2.7A2.7,2.7,0,0,1,252.23,104.4Z"/><path class="cls-1" d="M252.23,123.15a5.39,5.39,0,0,0-4.65,2.7h-4.8a9.44,9.44,0,0,1-9.4-8.88c1.58-1-7.07-.91-5.46,0v17.71a5.4,5.4,0,1,0,5.4,0v-6.86a14.83,14.83,0,0,0,9.46,3.4h4.8a5.39,5.39,0,1,0,4.65-8.1Zm-21.61,18.91a2.7,2.7,0,1,1,2.7-2.7A2.7,2.7,0,0,1,230.62,142.06Zm21.61-10.81a2.7,2.7,0,1,1,2.7-2.7A2.7,2.7,0,0,1,252.23,131.25Z"/><path class="cls-1" d="M252.23,150a5.37,5.37,0,0,0-4.65,2.7h-4.8a9.44,9.44,0,0,1-9.4-8.89c1.58-.94-7.07-.9-5.46,0v17.7a5.4,5.4,0,1,0,5.4,0v-6.85a14.83,14.83,0,0,0,9.46,3.4h4.8a5.39,5.39,0,1,0,4.65-8.1Zm-21.61,18.91a2.71,2.71,0,1,1,2.7-2.71A2.7,2.7,0,0,1,230.62,168.92Zm21.61-10.81a2.7,2.7,0,1,1,2.7-2.7A2.7,2.7,0,0,1,252.23,158.11Z"/><text class="cls-2" transform="translate(266.4 78.96)">SQLAlche<tspan class="cls-4" x="61.8" y="0">m</tspan><tspan x="73.33" y="0">y</tspan></text><text class="cls-2" transform="translate(266.4 106.4)"><tspan class="cls-5">W</tspan><tspan x="14.36" y="0">ordpress</tspan></text><text class="cls-2" transform="translate(266.96 132.66)">Firebase</text><text class="cls-2" transform="translate(267.52 160.11)">Git</text><text class="cls-2" transform="translate(266.96 52.71)">Flask</text><text class="cls-2" transform="translate(266.96 25.29)"><tspan class="cls-6">V</tspan><tspan x="9.25" y="0">ue.js</tspan></text><path class="cls-1" d="M452.34,16.21a5.37,5.37,0,0,0-4.65,2.7h-4.81A9.45,9.45,0,0,1,433.49,10a5.4,5.4,0,1,0-5.46,0V27.76a5.4,5.4,0,1,0,5.4,0V20.9a14.77,14.77,0,0,0,9.45,3.41h4.81a5.39,5.39,0,1,0,4.65-8.1ZM430.73,2.7A2.7,2.7,0,1,1,428,5.4,2.7,2.7,0,0,1,430.73,2.7Zm0,32.41a2.7,2.7,0,1,1,2.7-2.7A2.7,2.7,0,0,1,430.73,35.11Zm21.61-10.8a2.7,2.7,0,1,1,2.7-2.7A2.7,2.7,0,0,1,452.34,24.31Z"/><path class="cls-1" d="M452.34,42.6a5.37,5.37,0,0,0-4.65,2.7h-4.81a9.44,9.44,0,0,1-9.39-8.88c1.58-1-7.07-.91-5.46,0v17.7a5.4,5.4,0,1,0,5.4,0V47.3a14.82,14.82,0,0,0,9.45,3.4h4.81a5.39,5.39,0,1,0,4.65-8.1ZM430.73,61.51a2.71,2.71,0,1,1,2.7-2.7A2.7,2.7,0,0,1,430.73,61.51ZM452.34,50.7A2.7,2.7,0,1,1,455,48,2.7,2.7,0,0,1,452.34,50.7Z"/><path class="cls-1" d="M452.34,69.46a5.37,5.37,0,0,0-4.65,2.7h-4.81a9.44,9.44,0,0,1-9.39-8.89c1.58-.94-7.07-.9-5.46,0V81a5.4,5.4,0,1,0,5.4,0V74.16a14.82,14.82,0,0,0,9.45,3.4h4.81a5.39,5.39,0,1,0,4.65-8.1Zm-21.61,18.9a2.7,2.7,0,1,1,2.7-2.7A2.7,2.7,0,0,1,430.73,88.36Zm21.61-10.8a2.7,2.7,0,1,1,2.7-2.7A2.7,2.7,0,0,1,452.34,77.56Z"/><text class="cls-2" transform="translate(466.51 78.96)">Adobe Photoshop</text><text class="cls-2" transform="translate(467.07 52.71)">Adobe Illust<tspan class="cls-7" x="75.52" y="0">r</tspan><tspan class="cls-8" x="81.04" y="0">ator</tspan></text><text class="cls-2" transform="translate(467.07 25.29)">Adobe XD</text></svg>