<svg id="Capa_1" data-name="Capa 1" xmlns="http://www.w3.org/2000/svg" viewBox="0 0 120.88 299.75"><defs><style>.cls-1{fill:#faf2f7;}</style></defs><path class="cls-1" d="M18.57,10.31a3.17,3.17,0,0,0-2.72,1.57h-2.8A5.51,5.51,0,0,1,7.57,6.7a3.15,3.15,0,1,0-3.18,0V17.05a3.15,3.15,0,1,0,3.15,0v-4a8.62,8.62,0,0,0,5.51,2h2.8a3.15,3.15,0,1,0,2.72-4.73ZM6,2.43A1.58,1.58,0,1,1,6,5.58,1.58,1.58,0,0,1,6,2.43ZM6,21.34a1.58,1.58,0,1,1,1.58-1.58A1.57,1.57,0,0,1,6,21.34ZM18.57,15a1.58,1.58,0,1,1,1.57-1.58A1.58,1.58,0,0,1,18.57,15Z"/><path class="cls-1" d="M18.57,25.71a3.15,3.15,0,0,0-2.72,1.57h-2.8A5.51,5.51,0,0,1,7.57,22.1c.92-.55-4.12-.53-3.18,0V32.45a3.15,3.15,0,1,0,3.15,0v-4a8.62,8.62,0,0,0,5.51,2h2.8a3.15,3.15,0,1,0,2.72-4.72ZM6,36.73a1.58,1.58,0,0,1,0-3.15,1.58,1.58,0,1,1,0,3.15Zm12.61-6.3a1.58,1.58,0,1,1,1.57-1.57A1.57,1.57,0,0,1,18.57,30.43Z"/><path class="cls-1" d="M18.57,41.37A3.16,3.16,0,0,0,15.85,43h-2.8a5.51,5.51,0,0,1-5.48-5.18c.92-.55-4.12-.53-3.18,0V48.11a3.15,3.15,0,1,0,3.15,0v-4a8.62,8.62,0,0,0,5.51,2h2.8a3.15,3.15,0,1,0,2.72-4.73ZM6,52.4a1.58,1.58,0,0,1,0-3.15A1.58,1.58,0,1,1,6,52.4Zm12.61-6.3a1.58,1.58,0,1,1,1.57-1.58A1.58,1.58,0,0,1,18.57,46.1Z"/><path class="cls-1" d="M18.57,57a3.17,3.17,0,0,0-2.72,1.57h-2.8a5.51,5.51,0,0,1-5.48-5.18c.92-.55-4.12-.53-3.18,0V63.77a3.15,3.15,0,1,0,3.15,0v-4a8.62,8.62,0,0,0,5.51,2h2.8A3.15,3.15,0,1,0,18.57,57ZM6,68.06a1.58,1.58,0,1,1,1.58-1.58A1.57,1.57,0,0,1,6,68.06Zm12.61-6.31a1.58,1.58,0,1,1,1.57-1.57A1.57,1.57,0,0,1,18.57,61.75Z"/><path class="cls-1" d="M18.57,72.69a3.16,3.16,0,0,0-2.72,1.58h-2.8a5.51,5.51,0,0,1-5.48-5.18c.92-.55-4.12-.53-3.18,0V79.43a3.15,3.15,0,1,0,3.15,0v-4a8.62,8.62,0,0,0,5.51,2h2.8a3.15,3.15,0,1,0,2.72-4.73ZM6,83.72a1.58,1.58,0,0,1,0-3.15,1.58,1.58,0,1,1,0,3.15Zm12.61-6.3a1.58,1.58,0,1,1,1.57-1.57A1.57,1.57,0,0,1,18.57,77.42Z"/><path class="cls-1" d="M18.57,88.36a3.16,3.16,0,0,0-2.72,1.58h-2.8a5.51,5.51,0,0,1-5.48-5.19c.92-.55-4.12-.52-3.18,0V95.1a3.15,3.15,0,1,0,3.15,0v-4a8.62,8.62,0,0,0,5.51,2h2.8a3.15,3.15,0,1,0,2.72-4.73ZM6,99.39a1.58,1.58,0,1,1,1.58-1.58A1.57,1.57,0,0,1,6,99.39Zm12.61-6.3a1.58,1.58,0,1,1,0-3.15,1.58,1.58,0,0,1,0,3.15Z"/><path class="cls-1" d="M29.46,48.34a3.48,3.48,0,0,1-1.32-1.26,3.56,3.56,0,0,1-.47-1.81,3.41,3.41,0,0,1,1.8-3.08,3.86,3.86,0,0,1,1.87-.45,4,4,0,0,1,1.54.29,3.25,3.25,0,0,1,1.18.85l-.83.78a2.36,2.36,0,0,0-1.83-.8,2.61,2.61,0,0,0-1.26.3,2.27,2.27,0,0,0-.88.86,2.66,2.66,0,0,0,0,2.49,2.21,2.21,0,0,0,.88.86,2.61,2.61,0,0,0,1.26.31,2.35,2.35,0,0,0,1.83-.82l.83.79a3.25,3.25,0,0,1-1.18.85,3.93,3.93,0,0,1-1.55.29A3.86,3.86,0,0,1,29.46,48.34Z"/><path class="cls-1" d="M29.32,63a2.84,2.84,0,0,1-1-.51l.38-.85a2.94,2.94,0,0,0,.88.47,3.28,3.28,0,0,0,1.06.18,1.83,1.83,0,0,0,1-.21.65.65,0,0,0,.32-.56.54.54,0,0,0-.18-.41,1.21,1.21,0,0,0-.46-.26l-.75-.21a8.89,8.89,0,0,1-1.09-.32,1.71,1.71,0,0,1-.72-.5,1.37,1.37,0,0,1-.29-.92,1.52,1.52,0,0,1,.26-.88,1.8,1.8,0,0,1,.8-.64,3.32,3.32,0,0,1,1.3-.23,4.16,4.16,0,0,1,1.06.13,2.85,2.85,0,0,1,.9.39l-.34.85a3.2,3.2,0,0,0-.81-.35,2.94,2.94,0,0,0-.81-.12,1.78,1.78,0,0,0-1,.22.68.68,0,0,0-.31.58.51.51,0,0,0,.18.41,1.35,1.35,0,0,0,.46.26l.75.21A7.76,7.76,0,0,1,32,60a1.91,1.91,0,0,1,.72.5,1.31,1.31,0,0,1,.3.91,1.52,1.52,0,0,1-.27.88,1.85,1.85,0,0,1-.8.63,3.23,3.23,0,0,1-1.31.23A4.48,4.48,0,0,1,29.32,63Z"/><path class="cls-1" d="M40.31,63.67a2,2,0,0,1-.69.52,2,2,0,0,1-.85.18,2.34,2.34,0,0,1-1.11-.28,4.79,4.79,0,0,1-1.15-.94,3.28,3.28,0,0,1-1.46-.48,2.85,2.85,0,0,1-1-1.06,3.16,3.16,0,0,1,.05-3,2.87,2.87,0,0,1,1.13-1.08,3.41,3.41,0,0,1,1.63-.39,3.37,3.37,0,0,1,1.62.39,2.87,2.87,0,0,1,1.13,1.08A2.9,2.9,0,0,1,40,60.14a3,3,0,0,1-.27,1.29,3.08,3.08,0,0,1-.78,1,3,3,0,0,1-1.15.6,1.78,1.78,0,0,0,.48.38,1.25,1.25,0,0,0,.5.11,1.29,1.29,0,0,0,1-.47ZM35.05,61.2a1.82,1.82,0,0,0,.74.74,2.2,2.2,0,0,0,2.11,0,1.82,1.82,0,0,0,.74-.74,2.22,2.22,0,0,0,0-2.12,1.88,1.88,0,0,0-.74-.74,2.2,2.2,0,0,0-2.11,0,1.88,1.88,0,0,0-.74.74,2.22,2.22,0,0,0,0,2.12Z"/><path class="cls-1" d="M41.17,57.2h1.09v5h3.08v.92H41.17Z"/><path class="cls-1" d="M28.46,72.78H31a3.76,3.76,0,0,1,1.67.36,2.75,2.75,0,0,1,1.13,1,3.12,3.12,0,0,1,0,3.09,2.69,2.69,0,0,1-1.13,1,3.76,3.76,0,0,1-1.67.37H28.46Zm2.52,5a2.45,2.45,0,0,0,1.14-.25,1.81,1.81,0,0,0,.75-.7,2.24,2.24,0,0,0,0-2.13,1.81,1.81,0,0,0-.75-.7A2.45,2.45,0,0,0,31,73.7H29.55v4Z"/><path class="cls-1" d="M38.52,74.59A1.86,1.86,0,0,1,39.05,76v2.63h-1v-.55a1.17,1.17,0,0,1-.55.45,2.24,2.24,0,0,1-.86.15,2.08,2.08,0,0,1-.89-.17,1.31,1.31,0,0,1-.58-.48,1.17,1.17,0,0,1-.2-.69,1.18,1.18,0,0,1,.44-1A2.28,2.28,0,0,1,36.84,76H38V76a.89.89,0,0,0-.28-.72,1.22,1.22,0,0,0-.84-.26,2.34,2.34,0,0,0-.74.12,1.83,1.83,0,0,0-.62.33l-.41-.77a2.8,2.8,0,0,1,.85-.41,4,4,0,0,1,1-.14A2.2,2.2,0,0,1,38.52,74.59Zm-1,3.18a1,1,0,0,0,.43-.52v-.52H36.92c-.61,0-.91.2-.91.6a.51.51,0,0,0,.23.45,1,1,0,0,0,.63.17A1.38,1.38,0,0,0,37.57,77.77Z"/><path class="cls-1" d="M43.09,78.41a1.2,1.2,0,0,1-.45.23,2,2,0,0,1-.56.07,1.57,1.57,0,0,1-1.14-.38,1.48,1.48,0,0,1-.4-1.13V75H39.8V74.2h.74v-1h1.05v1h1.2V75h-1.2v2.14a.7.7,0,0,0,.16.5.6.6,0,0,0,.46.17.91.91,0,0,0,.59-.19Z"/><path class="cls-1" d="M47.18,74.59A1.86,1.86,0,0,1,47.71,76v2.63h-1v-.55a1.17,1.17,0,0,1-.55.45,2.24,2.24,0,0,1-.86.15,2,2,0,0,1-.88-.17,1.29,1.29,0,0,1-.59-.48,1.17,1.17,0,0,1-.2-.69,1.21,1.21,0,0,1,.44-1A2.28,2.28,0,0,1,45.5,76h1.16V76a.89.89,0,0,0-.28-.72,1.22,1.22,0,0,0-.84-.26,2.34,2.34,0,0,0-.74.12,1.93,1.93,0,0,0-.62.33l-.41-.77a2.92,2.92,0,0,1,.85-.41,4,4,0,0,1,1.05-.14A2.2,2.2,0,0,1,47.18,74.59Zm-1,3.18a1,1,0,0,0,.43-.52v-.52H45.58c-.61,0-.91.2-.91.6a.51.51,0,0,0,.23.45,1,1,0,0,0,.63.17A1.38,1.38,0,0,0,46.23,77.77Z"/><path class="cls-1" d="M51.69,78.57a2.47,2.47,0,0,1-.83-.36l.4-.8a2.45,2.45,0,0,0,.73.33,3,3,0,0,0,.84.12c.62,0,.94-.17.94-.5a.35.35,0,0,0-.24-.33,4,4,0,0,0-.77-.17,6,6,0,0,1-.91-.2,1.28,1.28,0,0,1-.6-.38,1.06,1.06,0,0,1-.26-.76,1.2,1.2,0,0,1,.54-1A2.44,2.44,0,0,1,53,74.12a4.12,4.12,0,0,1,.92.1,2.57,2.57,0,0,1,.76.29l-.41.79A2.49,2.49,0,0,0,53,75a1.33,1.33,0,0,0-.7.14.4.4,0,0,0-.24.36.36.36,0,0,0,.25.36,4.15,4.15,0,0,0,.8.2,5.7,5.7,0,0,1,.88.19,1.35,1.35,0,0,1,.59.37,1,1,0,0,1,.25.74,1.17,1.17,0,0,1-.55,1,2.57,2.57,0,0,1-1.48.37A3.83,3.83,0,0,1,51.69,78.57Z"/><path class="cls-1" d="M58.39,78.41a1.2,1.2,0,0,1-.45.23,2,2,0,0,1-.55.07,1.58,1.58,0,0,1-1.15-.38,1.52,1.52,0,0,1-.4-1.13V75H55.1V74.2h.74v-1h1v1h1.2V75h-1.2v2.14a.7.7,0,0,0,.16.5.62.62,0,0,0,.46.17.89.89,0,0,0,.59-.19Z"/><path class="cls-1" d="M61.85,74.12v1a1.05,1.05,0,0,0-.24,0,1.27,1.27,0,0,0-1,.36,1.42,1.42,0,0,0-.34,1v2.18H59.26V74.17h1v.66A1.74,1.74,0,0,1,61.85,74.12Z"/><path class="cls-1" d="M67.13,74.17v4.49h-1v-.58a1.63,1.63,0,0,1-.63.47,2,2,0,0,1-.81.16,2,2,0,0,1-1.42-.49,2,2,0,0,1-.52-1.49V74.17h1v2.42a1.26,1.26,0,0,0,.28.9,1,1,0,0,0,.77.3,1.19,1.19,0,0,0,.9-.35,1.39,1.39,0,0,0,.33-1V74.17Z"/><path class="cls-1" d="M69.31,78.42a2.19,2.19,0,0,1-.86-.82,2.42,2.42,0,0,1,0-2.37,2.19,2.19,0,0,1,.86-.82,2.72,2.72,0,0,1,1.26-.29,2.39,2.39,0,0,1,1.16.27,1.8,1.8,0,0,1,.75.77l-.81.47a1.18,1.18,0,0,0-.48-.46,1.23,1.23,0,0,0-.63-.16,1.37,1.37,0,0,0-1,.38,1.41,1.41,0,0,0-.38,1,1.34,1.34,0,0,0,.38,1,1.3,1.3,0,0,0,1,.39,1.34,1.34,0,0,0,.63-.16,1.2,1.2,0,0,0,.48-.47l.81.47a1.79,1.79,0,0,1-.76.78,2.38,2.38,0,0,1-1.15.27A2.6,2.6,0,0,1,69.31,78.42Z"/><path class="cls-1" d="M76.14,78.41a1.2,1.2,0,0,1-.45.23,2,2,0,0,1-.55.07A1.58,1.58,0,0,1,74,78.33a1.48,1.48,0,0,1-.4-1.13V75h-.74V74.2h.74v-1h1v1h1.2V75h-1.2v2.14a.7.7,0,0,0,.16.5.62.62,0,0,0,.46.17.89.89,0,0,0,.59-.19Z"/><path class="cls-1" d="M81.35,74.17v4.49h-1v-.58a1.63,1.63,0,0,1-.63.47,2.24,2.24,0,0,1-2.23-.33A2,2,0,0,1,77,76.73V74.17h1v2.42a1.31,1.31,0,0,0,.27.9,1,1,0,0,0,.78.3,1.18,1.18,0,0,0,.89-.35,1.39,1.39,0,0,0,.33-1V74.17Z"/><path class="cls-1" d="M85.32,74.12v1l-.24,0a1.27,1.27,0,0,0-1,.36,1.42,1.42,0,0,0-.34,1v2.18h-1V74.17h1v.66A1.74,1.74,0,0,1,85.32,74.12Z"/><path class="cls-1" d="M90.37,76.75H86.85a1.21,1.21,0,0,0,.49.78,1.53,1.53,0,0,0,1,.29,1.62,1.62,0,0,0,1.21-.48l.57.64a1.88,1.88,0,0,1-.77.55,2.84,2.84,0,0,1-1,.18,2.71,2.71,0,0,1-1.3-.29,2.09,2.09,0,0,1-.87-.82,2.45,2.45,0,0,1,0-2.37,2.18,2.18,0,0,1,.83-.82,2.47,2.47,0,0,1,1.19-.29,2.36,2.36,0,0,1,1.17.29,2,2,0,0,1,.81.81,2.53,2.53,0,0,1,.29,1.22C90.39,76.51,90.38,76.61,90.37,76.75Zm-3.1-1.49a1.31,1.31,0,0,0-.43.79h2.55a1.22,1.22,0,0,0-.41-.79,1.37,1.37,0,0,0-1.71,0Z"/><path class="cls-1" d="M91.72,78.57a2.53,2.53,0,0,1-.84-.36l.41-.8a2.39,2.39,0,0,0,.72.33,3.15,3.15,0,0,0,.84.12c.63,0,.94-.17.94-.5a.35.35,0,0,0-.24-.33,3.8,3.8,0,0,0-.77-.17,5.62,5.62,0,0,1-.9-.2,1.28,1.28,0,0,1-.6-.38,1,1,0,0,1-.26-.76,1.22,1.22,0,0,1,.53-1A2.48,2.48,0,0,1,93,74.12a4.2,4.2,0,0,1,.93.1,2.4,2.4,0,0,1,.75.29l-.4.79A2.53,2.53,0,0,0,93,75a1.36,1.36,0,0,0-.7.14.4.4,0,0,0-.24.36.37.37,0,0,0,.26.36,4,4,0,0,0,.79.2,5.86,5.86,0,0,1,.89.19,1.41,1.41,0,0,1,.59.37,1,1,0,0,1,.25.74,1.2,1.2,0,0,1-.55,1,2.59,2.59,0,0,1-1.49.37A3.76,3.76,0,0,1,91.72,78.57Z"/><path class="cls-1" d="M31.84,92.87H28.9l-.58,1.36H27.19l2.65-5.88h1.08l2.65,5.88H32.43ZM31.48,92l-1.11-2.57L29.27,92Z"/><path class="cls-1" d="M34.22,88h1.05v6.23H34.22Z"/><path class="cls-1" d="M41.1,89.74v3.81a2.12,2.12,0,0,1-2.42,2.37,4.93,4.93,0,0,1-1.23-.16,2.55,2.55,0,0,1-1-.48l.47-.79a2.41,2.41,0,0,0,.75.39,2.85,2.85,0,0,0,.91.15,1.47,1.47,0,0,0,1.08-.34,1.35,1.35,0,0,0,.35-1v-.24a1.69,1.69,0,0,1-.66.45,2.34,2.34,0,0,1-.85.15,2.44,2.44,0,0,1-1.15-.27,2.1,2.1,0,0,1-.82-.77,2.3,2.3,0,0,1,0-2.27,2.07,2.07,0,0,1,.82-.76,2.44,2.44,0,0,1,1.15-.27,2.52,2.52,0,0,1,.89.16,1.71,1.71,0,0,1,.67.49v-.6Zm-1.42,3a1.2,1.2,0,0,0,.38-.93,1.16,1.16,0,0,0-.38-.91,1.36,1.36,0,0,0-1-.36,1.4,1.4,0,0,0-1,.36,1.19,1.19,0,0,0-.38.91,1.24,1.24,0,0,0,.38.93,1.4,1.4,0,0,0,1,.36A1.36,1.36,0,0,0,39.68,92.78Z"/><path class="cls-1" d="M43.26,94a2.16,2.16,0,0,1-.85-.82,2.44,2.44,0,0,1,0-2.38,2.14,2.14,0,0,1,.85-.81,2.54,2.54,0,0,1,1.23-.3,2.49,2.49,0,0,1,1.23.3,2.17,2.17,0,0,1,.86.81,2.51,2.51,0,0,1,0,2.38,2.19,2.19,0,0,1-.86.82,2.6,2.6,0,0,1-1.23.29A2.66,2.66,0,0,1,43.26,94Zm2.19-1a1.37,1.37,0,0,0,.38-1,1.41,1.41,0,0,0-.38-1,1.27,1.27,0,0,0-1-.39,1.25,1.25,0,0,0-1,.39,1.41,1.41,0,0,0-.38,1,1.37,1.37,0,0,0,.38,1,1.25,1.25,0,0,0,1,.39A1.27,1.27,0,0,0,45.45,93Z"/><path class="cls-1" d="M50.49,89.69v1l-.25,0a1.24,1.24,0,0,0-1,.36,1.41,1.41,0,0,0-.35,1v2.17h-1V89.74h1v.66A1.76,1.76,0,0,1,50.49,89.69Z"/><path class="cls-1" d="M51.43,88.83a.61.61,0,0,1-.2-.45.59.59,0,0,1,.2-.45.68.68,0,0,1,.48-.18.67.67,0,0,1,.48.17.57.57,0,0,1,.19.43.63.63,0,0,1-.19.47.69.69,0,0,1-.48.19A.68.68,0,0,1,51.43,88.83Zm0,.91h1v4.49h-1Z"/><path class="cls-1" d="M56.5,94a1.18,1.18,0,0,1-.45.22,2,2,0,0,1-.56.08,1.58,1.58,0,0,1-1.14-.39,1.46,1.46,0,0,1-.4-1.12V90.62h-.74v-.84H54v-1h1v1h1.2v.84H55v2.13a.68.68,0,0,0,.16.5.57.57,0,0,0,.46.17,1,1,0,0,0,.59-.18Z"/><path class="cls-1" d="M61.27,90.19a2,2,0,0,1,.51,1.47v2.57H60.73V91.79a1.27,1.27,0,0,0-.27-.88,1,1,0,0,0-.79-.3,1.24,1.24,0,0,0-.92.35,1.4,1.4,0,0,0-.33,1v2.27H57.37V88h1.05v2.27a1.61,1.61,0,0,1,.64-.43,2.3,2.3,0,0,1,.85-.15A1.87,1.87,0,0,1,61.27,90.19Z"/><path class="cls-1" d="M70.13,90.19a2,2,0,0,1,.49,1.47v2.57H69.57V91.79a1.32,1.32,0,0,0-.26-.88.93.93,0,0,0-.75-.3,1.09,1.09,0,0,0-.84.35,1.37,1.37,0,0,0-.32,1v2.28H66.35V91.79a1.32,1.32,0,0,0-.26-.88,1,1,0,0,0-.75-.3,1.12,1.12,0,0,0-.85.34,1.45,1.45,0,0,0-.32,1v2.28H63.12V89.74h1v.58a1.63,1.63,0,0,1,.63-.47,2.24,2.24,0,0,1,.84-.16,2.08,2.08,0,0,1,.89.19,1.47,1.47,0,0,1,.62.56,1.9,1.9,0,0,1,.72-.55,2.32,2.32,0,0,1,1-.2A1.83,1.83,0,0,1,70.13,90.19Z"/><path class="cls-1" d="M72.28,94.15a3.08,3.08,0,0,1-.83-.36l.41-.8a2.65,2.65,0,0,0,.72.32,3.1,3.1,0,0,0,.84.12c.63,0,.94-.16.94-.49a.33.33,0,0,0-.24-.33,4.68,4.68,0,0,0-.77-.18,5.76,5.76,0,0,1-.9-.19,1.4,1.4,0,0,1-.61-.38,1.07,1.07,0,0,1-.25-.76,1.19,1.19,0,0,1,.53-1,2.41,2.41,0,0,1,1.44-.39,4.22,4.22,0,0,1,.93.11,2.5,2.5,0,0,1,.75.28l-.4.8a2.53,2.53,0,0,0-1.29-.34,1.44,1.44,0,0,0-.7.14.42.42,0,0,0-.24.37.37.37,0,0,0,.26.35,3.83,3.83,0,0,0,.79.2,7.19,7.19,0,0,1,.88.19,1.55,1.55,0,0,1,.6.37,1.06,1.06,0,0,1,.24.74,1.17,1.17,0,0,1-.54,1,2.61,2.61,0,0,1-1.49.38A4.3,4.3,0,0,1,72.28,94.15Z"/><path class="cls-1" d="M31.78,26.3A1.91,1.91,0,0,1,33,28.14,1.88,1.88,0,0,1,31.78,30a3.25,3.25,0,0,1-1.33.25H29.12v1.7H28V26.05h2.42A3.43,3.43,0,0,1,31.78,26.3ZM31.48,29a1.2,1.2,0,0,0,0-1.73A1.71,1.71,0,0,0,30.39,27H29.12v2.34h1.27A1.71,1.71,0,0,0,31.48,29Z"/><path class="cls-1" d="M38.18,27.45l-2.1,4.84a2.2,2.2,0,0,1-.71,1,1.71,1.71,0,0,1-1,.3,2.17,2.17,0,0,1-.66-.11,1.41,1.41,0,0,1-.54-.3l.42-.77a1.09,1.09,0,0,0,.36.22,1,1,0,0,0,.41.09.69.69,0,0,0,.46-.15,1.18,1.18,0,0,0,.33-.48l.08-.17-2-4.5h1.09l1.41,3.31,1.42-3.31Z"/><path class="cls-1" d="M41.66,31.69a1.18,1.18,0,0,1-.45.22,2,2,0,0,1-.56.08,1.58,1.58,0,0,1-1.14-.39,1.46,1.46,0,0,1-.4-1.12V28.32h-.74v-.84h.74v-1h1v1h1.2v.84h-1.2v2.13a.68.68,0,0,0,.16.5.57.57,0,0,0,.46.17,1,1,0,0,0,.59-.18Z"/><path class="cls-1" d="M46.43,27.89a2,2,0,0,1,.51,1.47v2.57h-1V29.49a1.27,1.27,0,0,0-.27-.88,1,1,0,0,0-.79-.3,1.22,1.22,0,0,0-.92.35,1.41,1.41,0,0,0-.34,1v2.27h-1V25.7h1V28a1.72,1.72,0,0,1,.65-.43,2.3,2.3,0,0,1,.85-.15A1.88,1.88,0,0,1,46.43,27.89Z"/><path class="cls-1" d="M49.11,31.7a2.16,2.16,0,0,1-.85-.82,2.44,2.44,0,0,1,0-2.38,2.21,2.21,0,0,1,.85-.81,2.67,2.67,0,0,1,2.46,0,2.21,2.21,0,0,1,.85.81,2.44,2.44,0,0,1,0,2.38,2.16,2.16,0,0,1-.85.82,2.75,2.75,0,0,1-2.46,0Zm2.18-1a1.33,1.33,0,0,0,.38-1,1.37,1.37,0,0,0-.38-1,1.39,1.39,0,0,0-1.91,0,1.41,1.41,0,0,0-.37,1,1.37,1.37,0,0,0,.37,1,1.36,1.36,0,0,0,1.91,0Z"/><path class="cls-1" d="M57.64,27.89a1.92,1.92,0,0,1,.52,1.47v2.57h-1V29.49a1.27,1.27,0,0,0-.28-.88,1,1,0,0,0-.79-.3,1.24,1.24,0,0,0-.92.35,1.4,1.4,0,0,0-.33,1v2.27h-1V27.45h1V28a1.73,1.73,0,0,1,.65-.47,2.52,2.52,0,0,1,.89-.16A1.87,1.87,0,0,1,57.64,27.89Z"/><path class="cls-1" d="M32.46,10.48v5.88H31.37V13.84h-3v2.52H27.24V10.48h1.09V12.9h3V10.48Z"/><path class="cls-1" d="M35.23,11.4H33.28v-.92h5v.92H36.33v5h-1.1Z"/><path class="cls-1" d="M44.5,16.36v-3.9l-1.93,3.22h-.49l-1.93-3.17v3.85h-1V10.48H40l2.33,3.89,2.29-3.89h.9v5.88Z"/><path class="cls-1" d="M47.12,10.48h1.09v4.95h3.08v.93H47.12Z"/><path class="cls-1" d="M53.13,15.21a.69.69,0,0,1,.2.51,1.45,1.45,0,0,1,0,.28c0,.1-.08.24-.16.44l-.43,1.18H52l.34-1.28a.62.62,0,0,1-.29-.24.7.7,0,0,1-.1-.38.69.69,0,0,1,.19-.51.66.66,0,0,1,.49-.19A.65.65,0,0,1,53.13,15.21Z"/><path class="cls-1" d="M57.88,16.05A2.84,2.84,0,0,1,56.76,15a3.15,3.15,0,0,1,0-3.11,2.93,2.93,0,0,1,1.13-1.08,3.33,3.33,0,0,1,1.61-.39,3.53,3.53,0,0,1,1.32.25,2.85,2.85,0,0,1,1,.73l-.71.67a2,2,0,0,0-1.57-.69,2.27,2.27,0,0,0-1.08.26,2,2,0,0,0-.75.74,2.24,2.24,0,0,0,0,2.13,1.91,1.91,0,0,0,.75.74,2.27,2.27,0,0,0,1.08.26,2,2,0,0,0,1.57-.69l.71.67a2.69,2.69,0,0,1-1,.73,3.56,3.56,0,0,1-2.93-.14Z"/><path class="cls-1" d="M63.35,16.25a2.61,2.61,0,0,1-1-.52l.38-.84a2.92,2.92,0,0,0,.88.46,3.23,3.23,0,0,0,1.06.18,1.79,1.79,0,0,0,1-.21.63.63,0,0,0,.33-.55.54.54,0,0,0-.18-.42,1.27,1.27,0,0,0-.46-.25,5.91,5.91,0,0,0-.76-.21,10.8,10.8,0,0,1-1.08-.32,1.91,1.91,0,0,1-.72-.5,1.36,1.36,0,0,1-.3-.92,1.56,1.56,0,0,1,.27-.89,1.73,1.73,0,0,1,.8-.63,3.14,3.14,0,0,1,1.3-.24,4.23,4.23,0,0,1,1.06.14,2.84,2.84,0,0,1,.9.38l-.34.85a3.57,3.57,0,0,0-.81-.34,3,3,0,0,0-.82-.12,1.66,1.66,0,0,0-1,.22.66.66,0,0,0-.31.58.54.54,0,0,0,.18.41,1.19,1.19,0,0,0,.46.25L65,13a7.62,7.62,0,0,1,1.08.32,1.71,1.71,0,0,1,.72.5,1.33,1.33,0,0,1,.29.9,1.57,1.57,0,0,1-.26.88,1.77,1.77,0,0,1-.8.63,3.23,3.23,0,0,1-1.31.24A4.44,4.44,0,0,1,63.35,16.25Z"/><path class="cls-1" d="M68.63,16.25a2.69,2.69,0,0,1-1-.52l.38-.84a3,3,0,0,0,.89.46,3.22,3.22,0,0,0,1,.18,1.83,1.83,0,0,0,1-.21.64.64,0,0,0,.32-.55.54.54,0,0,0-.18-.42,1.19,1.19,0,0,0-.46-.25,5.27,5.27,0,0,0-.75-.21,11.11,11.11,0,0,1-1.09-.32,1.8,1.8,0,0,1-.71-.5,1.36,1.36,0,0,1-.3-.92,1.63,1.63,0,0,1,.26-.89,1.78,1.78,0,0,1,.8-.63,3.19,3.19,0,0,1,1.31-.24,4.15,4.15,0,0,1,1.05.14,2.84,2.84,0,0,1,.9.38l-.34.85a3.57,3.57,0,0,0-.81-.34,2.94,2.94,0,0,0-.81-.12,1.66,1.66,0,0,0-1,.22.67.67,0,0,0-.32.58.54.54,0,0,0,.18.41,1.19,1.19,0,0,0,.46.25c.18.06.44.13.76.21a7.85,7.85,0,0,1,1.07.32,1.71,1.71,0,0,1,.72.5,1.29,1.29,0,0,1,.3.9,1.5,1.5,0,0,1-.27.88,1.67,1.67,0,0,1-.8.63,3.23,3.23,0,0,1-1.31.24A4.53,4.53,0,0,1,68.63,16.25Z"/><path class="cls-1" d="M80.14,16.45l-.74-.72a2.94,2.94,0,0,1-2,.71,3,3,0,0,1-1.11-.2,1.91,1.91,0,0,1-.76-.56,1.33,1.33,0,0,1-.28-.81,1.54,1.54,0,0,1,.32-1,3.45,3.45,0,0,1,1-.82,2.86,2.86,0,0,1-.5-.66,1.46,1.46,0,0,1-.15-.64,1.22,1.22,0,0,1,.47-1,1.9,1.9,0,0,1,1.23-.38,1.74,1.74,0,0,1,1.15.35,1.15,1.15,0,0,1,.43.94,1.28,1.28,0,0,1-.29.81,3.08,3.08,0,0,1-.92.71l1.27,1.21a3.83,3.83,0,0,0,.33-1l.85.28A4,4,0,0,1,80,15.06l.74.71Zm-1.36-1.31-1.56-1.49a2.65,2.65,0,0,0-.71.53,1,1,0,0,0-.2.58.69.69,0,0,0,.33.6,1.46,1.46,0,0,0,.86.22A2,2,0,0,0,78.78,15.14Zm-1.63-3.81a.53.53,0,0,0-.2.45.67.67,0,0,0,.11.38,2.82,2.82,0,0,0,.42.49,2.93,2.93,0,0,0,.7-.48.66.66,0,0,0,.2-.45.52.52,0,0,0-.19-.41.75.75,0,0,0-.5-.15A.76.76,0,0,0,77.15,11.33Z"/><path class="cls-1" d="M83.86,16.22a2,2,0,0,1-.78-.63l.62-.75a1.41,1.41,0,0,0,1.17.68c.61,0,.91-.37.91-1.09v-3H83.69v-.91h3.19v3.89a2.11,2.11,0,0,1-.51,1.55,2,2,0,0,1-1.48.52A2.35,2.35,0,0,1,83.86,16.22Z"/><path class="cls-1" d="M88.91,16.25a2.69,2.69,0,0,1-1-.52l.38-.84a2.92,2.92,0,0,0,.88.46,3.23,3.23,0,0,0,1.06.18,1.85,1.85,0,0,0,1-.21.64.64,0,0,0,.32-.55.54.54,0,0,0-.18-.42,1.19,1.19,0,0,0-.46-.25,5.47,5.47,0,0,0-.76-.21,10.8,10.8,0,0,1-1.08-.32,1.91,1.91,0,0,1-.72-.5,1.36,1.36,0,0,1-.3-.92,1.56,1.56,0,0,1,.27-.89,1.78,1.78,0,0,1,.8-.63,3.14,3.14,0,0,1,1.3-.24,4.23,4.23,0,0,1,1.06.14,2.84,2.84,0,0,1,.9.38l-.34.85a3.57,3.57,0,0,0-.81-.34,2.94,2.94,0,0,0-.81-.12,1.68,1.68,0,0,0-1,.22.66.66,0,0,0-.31.58.54.54,0,0,0,.18.41,1.19,1.19,0,0,0,.46.25l.75.21a7.62,7.62,0,0,1,1.08.32,1.71,1.71,0,0,1,.72.5,1.33,1.33,0,0,1,.29.9,1.49,1.49,0,0,1-.26.88,1.72,1.72,0,0,1-.8.63,3.23,3.23,0,0,1-1.31.24A4.48,4.48,0,0,1,88.91,16.25Z"/><path class="cls-1" d="M18.61,130a3.12,3.12,0,0,0-2.71,1.57H13.1a5.52,5.52,0,0,1-5.49-5.18,3.15,3.15,0,1,0-3.18,0v10.33a3.16,3.16,0,1,0,3.15,0v-4a8.63,8.63,0,0,0,5.52,2h2.8A3.14,3.14,0,1,0,18.61,130ZM6,122.13a1.58,1.58,0,1,1-1.58,1.57A1.58,1.58,0,0,1,6,122.13ZM6,141a1.58,1.58,0,1,1,1.57-1.57A1.57,1.57,0,0,1,6,141Zm12.6-6.3a1.58,1.58,0,1,1,1.58-1.57A1.57,1.57,0,0,1,18.61,134.73Z"/><path class="cls-1" d="M18.61,145.4A3.13,3.13,0,0,0,15.9,147H13.1a5.52,5.52,0,0,1-5.49-5.19c.92-.55-4.12-.52-3.18,0v10.33a3.16,3.16,0,1,0,3.15,0v-4a8.63,8.63,0,0,0,5.52,2h2.8a3.14,3.14,0,0,0,5.86-1.58A3.16,3.16,0,0,0,18.61,145.4ZM6,156.43a1.58,1.58,0,1,1,1.57-1.57A1.57,1.57,0,0,1,6,156.43Zm12.6-6.3a1.58,1.58,0,1,1,1.58-1.58A1.58,1.58,0,0,1,18.61,150.13Z"/><path class="cls-1" d="M18.61,161.07a3.13,3.13,0,0,0-2.71,1.58H13.1a5.52,5.52,0,0,1-5.49-5.19c.92-.55-4.12-.53-3.18,0v10.33a3.16,3.16,0,1,0,3.15,0v-4a8.63,8.63,0,0,0,5.52,2h2.8a3.14,3.14,0,1,0,2.71-4.73ZM6,172.1a1.58,1.58,0,1,1,1.57-1.58A1.58,1.58,0,0,1,6,172.1Zm12.6-6.3a1.58,1.58,0,1,1,1.58-1.58A1.58,1.58,0,0,1,18.61,165.8Z"/><path class="cls-1" d="M18.61,176.72a3.13,3.13,0,0,0-2.71,1.58H13.1a5.52,5.52,0,0,1-5.49-5.18c.92-.55-4.12-.53-3.18,0v10.33a3.16,3.16,0,1,0,3.15,0v-4a8.63,8.63,0,0,0,5.52,2h2.8a3.14,3.14,0,1,0,2.71-4.73ZM6,187.75a1.58,1.58,0,1,1,1.57-1.57A1.57,1.57,0,0,1,6,187.75Zm12.6-6.3a1.58,1.58,0,1,1,1.58-1.58A1.58,1.58,0,0,1,18.61,181.45Z"/><path class="cls-1" d="M18.61,192.39A3.13,3.13,0,0,0,15.9,194H13.1a5.52,5.52,0,0,1-5.49-5.19c.92-.55-4.12-.52-3.18,0v10.33a3.16,3.16,0,1,0,3.15,0v-4a8.63,8.63,0,0,0,5.52,2h2.8a3.14,3.14,0,1,0,2.71-4.73ZM6,203.42a1.58,1.58,0,1,1,1.57-1.58A1.58,1.58,0,0,1,6,203.42Zm12.6-6.3a1.58,1.58,0,1,1,1.58-1.58A1.58,1.58,0,0,1,18.61,197.12Z"/><path class="cls-1" d="M18.61,208.06a3.14,3.14,0,0,0-2.71,1.57H13.1a5.52,5.52,0,0,1-5.49-5.18c.92-.55-4.12-.53-3.18,0V214.8a3.16,3.16,0,1,0,3.15,0v-4a8.62,8.62,0,0,0,5.52,2h2.8a3.14,3.14,0,1,0,2.71-4.72ZM6,219.09a1.58,1.58,0,1,1,1.57-1.58A1.58,1.58,0,0,1,6,219.09Zm12.6-6.31a1.58,1.58,0,1,1,1.58-1.57A1.57,1.57,0,0,1,18.61,212.78Z"/><path class="cls-1" d="M25.7,166.67a2.75,2.75,0,0,1-1-.51l.38-.85a2.94,2.94,0,0,0,.88.47A3.23,3.23,0,0,0,27,166a1.79,1.79,0,0,0,1-.21.64.64,0,0,0,.33-.56.54.54,0,0,0-.18-.41,1.29,1.29,0,0,0-.46-.26l-.76-.21a7.23,7.23,0,0,1-1.08-.32,1.71,1.71,0,0,1-.72-.5,1.32,1.32,0,0,1-.3-.92,1.52,1.52,0,0,1,.27-.88,1.74,1.74,0,0,1,.8-.64,3.32,3.32,0,0,1,1.3-.23,4.22,4.22,0,0,1,1.06.13,2.85,2.85,0,0,1,.9.39l-.34.85a3.61,3.61,0,0,0-.81-.35,2.94,2.94,0,0,0-.82-.11,1.75,1.75,0,0,0-1,.21.68.68,0,0,0-.31.58.51.51,0,0,0,.18.41,1.21,1.21,0,0,0,.46.26l.75.21a7.76,7.76,0,0,1,1.08.31,1.91,1.91,0,0,1,.72.5,1.38,1.38,0,0,1,.29.91,1.52,1.52,0,0,1-.26.88,1.91,1.91,0,0,1-.8.63,3.23,3.23,0,0,1-1.31.24A4.44,4.44,0,0,1,25.7,166.67Z"/><path class="cls-1" d="M36.68,167.37a1.9,1.9,0,0,1-.68.52,2,2,0,0,1-.85.18,2.18,2.18,0,0,1-1.11-.28,4.79,4.79,0,0,1-1.15-.94,3.12,3.12,0,0,1-1.46-.48,2.78,2.78,0,0,1-1-1.06,3,3,0,0,1-.36-1.47,2.92,2.92,0,0,1,.41-1.55,2.87,2.87,0,0,1,1.13-1.08,3.56,3.56,0,0,1,3.24,0A2.89,2.89,0,0,1,36,162.29a3,3,0,0,1,.41,1.55,2.9,2.9,0,0,1-.28,1.29,2.84,2.84,0,0,1-.77,1,3,3,0,0,1-1.15.6,1.78,1.78,0,0,0,.48.38,1.08,1.08,0,0,0,.5.12,1.34,1.34,0,0,0,1-.47Zm-5.25-2.47a1.76,1.76,0,0,0,.74.74,2.2,2.2,0,0,0,2.11,0,1.82,1.82,0,0,0,.74-.74,2.09,2.09,0,0,0,.27-1.06,2.12,2.12,0,0,0-.27-1.06,1.88,1.88,0,0,0-.74-.74,2.27,2.27,0,0,0-2.11,0,1.82,1.82,0,0,0-.74.74,2.12,2.12,0,0,0-.27,1.06A2.09,2.09,0,0,0,31.43,164.9Z"/><path class="cls-1" d="M37.55,160.9h1.09v5h3.08v.92H37.55Z"/><path class="cls-1" d="M46.44,165.42H43.5l-.58,1.36H41.79l2.65-5.88h1.07l2.66,5.88H47Zm-.36-.86L45,162l-1.1,2.57Z"/><path class="cls-1" d="M48.81,160.55h1v6.23h-1Z"/><path class="cls-1" d="M52.05,166.55a2.22,2.22,0,0,1-.87-.82,2.44,2.44,0,0,1,0-2.38,2.31,2.31,0,0,1,.86-.81,2.6,2.6,0,0,1,1.26-.29,2.51,2.51,0,0,1,1.16.26,1.67,1.67,0,0,1,.75.78l-.8.47a1.35,1.35,0,0,0-.48-.47,1.4,1.4,0,0,0-.64-.15,1.29,1.29,0,0,0-1,.38,1.35,1.35,0,0,0-.39,1,1.38,1.38,0,0,0,.38,1,1.35,1.35,0,0,0,1,.38,1.4,1.4,0,0,0,.64-.15,1.35,1.35,0,0,0,.48-.47l.8.47a1.74,1.74,0,0,1-.76.78,2.35,2.35,0,0,1-1.15.27A2.68,2.68,0,0,1,52.05,166.55Z"/><path class="cls-1" d="M60,162.74a2,2,0,0,1,.51,1.47v2.57h-1v-2.43a1.24,1.24,0,0,0-.28-.89,1,1,0,0,0-.79-.3,1.21,1.21,0,0,0-.91.35,1.36,1.36,0,0,0-.34,1v2.27H56.08v-6.23h1.05v2.27a1.68,1.68,0,0,1,.64-.43,2.58,2.58,0,0,1,.86-.14A1.89,1.89,0,0,1,60,162.74Z"/><path class="cls-1" d="M66.08,164.88H62.56a1.19,1.19,0,0,0,.48.78,1.6,1.6,0,0,0,1,.29,1.63,1.63,0,0,0,1.22-.49l.56.65a2,2,0,0,1-.76.55,2.89,2.89,0,0,1-1.05.18,2.86,2.86,0,0,1-1.3-.29,2.22,2.22,0,0,1-.87-.82,2.36,2.36,0,0,1-.3-1.19,2.43,2.43,0,0,1,.29-1.18,2.18,2.18,0,0,1,.83-.82,2.36,2.36,0,0,1,1.19-.29,2.32,2.32,0,0,1,1.18.29,2,2,0,0,1,.8.81,2.41,2.41,0,0,1,.29,1.21C66.09,164.64,66.09,164.74,66.08,164.88ZM63,163.38a1.28,1.28,0,0,0-.42.8h2.54a1.2,1.2,0,0,0-.41-.79,1.25,1.25,0,0,0-.86-.3A1.31,1.31,0,0,0,63,163.38Z"/><path class="cls-1" d="M74.11,162.74a2,2,0,0,1,.49,1.47v2.57h-1v-2.43a1.33,1.33,0,0,0-.26-.89.93.93,0,0,0-.75-.3,1.09,1.09,0,0,0-.84.35,1.38,1.38,0,0,0-.32,1v2.27h-1v-2.43a1.33,1.33,0,0,0-.26-.89,1,1,0,0,0-.75-.3,1.09,1.09,0,0,0-.85.35,1.43,1.43,0,0,0-.32,1v2.27H67.1V162.3h1v.57a1.61,1.61,0,0,1,.63-.46,2.06,2.06,0,0,1,.84-.16,1.94,1.94,0,0,1,.89.19,1.38,1.38,0,0,1,.62.55,2,2,0,0,1,.72-.55,2.32,2.32,0,0,1,1-.19A1.82,1.82,0,0,1,74.11,162.74Z"/><path class="cls-1" d="M80.06,162.3,78,167.14a2.2,2.2,0,0,1-.71,1,1.71,1.71,0,0,1-1,.3,2.17,2.17,0,0,1-.66-.11,1.41,1.41,0,0,1-.54-.3l.42-.77a1.09,1.09,0,0,0,.36.22,1,1,0,0,0,.41.09.69.69,0,0,0,.46-.15A1.21,1.21,0,0,0,77,167l.08-.18-2-4.5h1.09l1.41,3.31,1.42-3.31Z"/><path class="cls-1" d="M34.08,176.62l-1.95,5.88H31l-1.45-4.35L28,182.5H26.87l-1.95-5.88h1.14l1.46,4.47L29,176.62h1l1.49,4.49,1.5-4.49Z"/><path class="cls-1" d="M35.32,182.26a2.16,2.16,0,0,1-.85-.82,2.42,2.42,0,0,1,0-2.37,2.14,2.14,0,0,1,.85-.81,2.54,2.54,0,0,1,1.23-.3,2.49,2.49,0,0,1,1.23.3,2.1,2.1,0,0,1,.86.81,2.49,2.49,0,0,1,0,2.37,2.12,2.12,0,0,1-.86.82,2.49,2.49,0,0,1-1.23.3A2.54,2.54,0,0,1,35.32,182.26Zm2.19-1a1.41,1.41,0,0,0,.38-1,1.39,1.39,0,0,0-.38-1,1.27,1.27,0,0,0-1-.39,1.25,1.25,0,0,0-.95.39,1.39,1.39,0,0,0-.38,1,1.41,1.41,0,0,0,.38,1,1.25,1.25,0,0,0,.95.39A1.27,1.27,0,0,0,37.51,181.27Z"/><path class="cls-1" d="M42.55,178v1a1.1,1.1,0,0,0-.25,0,1.25,1.25,0,0,0-.95.35,1.43,1.43,0,0,0-.35,1v2.18H40V178h1v.66A1.76,1.76,0,0,1,42.55,178Z"/><path class="cls-1" d="M47.79,176.26v6.24h-1v-.58a1.69,1.69,0,0,1-.64.48,2.34,2.34,0,0,1-.85.16,2.38,2.38,0,0,1-1.16-.29,2.1,2.1,0,0,1-.81-.81,2.65,2.65,0,0,1,0-2.41,2.14,2.14,0,0,1,.81-.8,2.38,2.38,0,0,1,1.16-.29,2.18,2.18,0,0,1,.82.15,1.52,1.52,0,0,1,.63.46v-2.31Zm-1.69,5.23a1.28,1.28,0,0,0,.48-.5,1.47,1.47,0,0,0,.18-.74,1.44,1.44,0,0,0-.18-.73,1.28,1.28,0,0,0-.48-.5,1.45,1.45,0,0,0-1.36,0,1.28,1.28,0,0,0-.48.5,1.44,1.44,0,0,0-.18.73,1.47,1.47,0,0,0,.18.74,1.28,1.28,0,0,0,.48.5,1.44,1.44,0,0,0,1.36,0Z"/><path class="cls-1" d="M53,176.87a2,2,0,0,1,.87.72,2.06,2.06,0,0,1,.3,1.12,2,2,0,0,1-.3,1.11,1.91,1.91,0,0,1-.87.73,3.22,3.22,0,0,1-1.33.25H50.36v1.7H49.27v-5.88h2.42A3.22,3.22,0,0,1,53,176.87Zm-.3,2.7a1,1,0,0,0,.37-.86,1.06,1.06,0,0,0-.37-.87,1.69,1.69,0,0,0-1.08-.3H50.36v2.34h1.28A1.64,1.64,0,0,0,52.72,179.57Z"/><path class="cls-1" d="M57.73,178v1a1,1,0,0,0-.24,0,1.26,1.26,0,0,0-1,.35,1.42,1.42,0,0,0-.34,1v2.18h-1V178h1v.66A1.74,1.74,0,0,1,57.73,178Z"/><path class="cls-1" d="M62.78,180.59H59.26a1.3,1.3,0,0,0,.49.79,1.6,1.6,0,0,0,1,.29,1.63,1.63,0,0,0,1.21-.49l.57.65a1.86,1.86,0,0,1-.77.54,2.79,2.79,0,0,1-1,.19,2.71,2.71,0,0,1-1.3-.3,2,2,0,0,1-.87-.82,2.45,2.45,0,0,1,0-2.37,2.09,2.09,0,0,1,.83-.81,2.51,2.51,0,0,1,2.36,0,2,2,0,0,1,.81.82,2.49,2.49,0,0,1,.29,1.21C62.8,180.35,62.79,180.46,62.78,180.59Zm-3.1-1.49a1.31,1.31,0,0,0-.43.79H61.8a1.25,1.25,0,0,0-.41-.79,1.37,1.37,0,0,0-1.71,0Z"/><path class="cls-1" d="M64.13,182.41a2.38,2.38,0,0,1-.83-.36l.4-.8a2.34,2.34,0,0,0,.73.33,3,3,0,0,0,.83.12c.63,0,.94-.17.94-.5a.33.33,0,0,0-.24-.32,3.66,3.66,0,0,0-.77-.18,7.21,7.21,0,0,1-.9-.19,1.39,1.39,0,0,1-.6-.39,1.06,1.06,0,0,1-.26-.76,1.22,1.22,0,0,1,.53-1A2.48,2.48,0,0,1,65.4,178a4.22,4.22,0,0,1,.93.11,2.4,2.4,0,0,1,.75.28l-.4.8a2.43,2.43,0,0,0-1.28-.34,1.48,1.48,0,0,0-.71.14.4.4,0,0,0-.24.36.37.37,0,0,0,.26.36,4,4,0,0,0,.79.2,5.86,5.86,0,0,1,.89.19,1.41,1.41,0,0,1,.59.37,1,1,0,0,1,.25.74,1.18,1.18,0,0,1-.55,1,2.59,2.59,0,0,1-1.49.38A3.77,3.77,0,0,1,64.13,182.41Z"/><path class="cls-1" d="M68.45,182.41a2.56,2.56,0,0,1-.83-.36l.4-.8a2.57,2.57,0,0,0,.73.33,3,3,0,0,0,.84.12c.62,0,.94-.17.94-.5a.33.33,0,0,0-.24-.32,3.83,3.83,0,0,0-.77-.18,7.21,7.21,0,0,1-.9-.19,1.36,1.36,0,0,1-.61-.39,1.06,1.06,0,0,1-.25-.76,1.19,1.19,0,0,1,.53-1,2.46,2.46,0,0,1,1.44-.38,4.06,4.06,0,0,1,.92.11,2.57,2.57,0,0,1,.76.28l-.4.8a2.44,2.44,0,0,0-1.29-.34,1.44,1.44,0,0,0-.7.14.4.4,0,0,0-.24.36.37.37,0,0,0,.26.36,3.83,3.83,0,0,0,.79.2,5.7,5.7,0,0,1,.88.19,1.44,1.44,0,0,1,.6.37,1,1,0,0,1,.24.74,1.17,1.17,0,0,1-.54,1,2.61,2.61,0,0,1-1.49.38A3.89,3.89,0,0,1,68.45,182.41Z"/><path class="cls-1" d="M26.34,193.25V195h2.84V196H26.34v2.25H25.25v-5.88h4.29v.92Z"/><path class="cls-1" d="M30.47,192.81a.63.63,0,0,1,0-.9.68.68,0,0,1,.48-.18.67.67,0,0,1,.48.17.54.54,0,0,1,.19.43.63.63,0,0,1-.19.47A.69.69,0,0,1,31,193,.68.68,0,0,1,30.47,192.81Zm0,.92h1v4.48h-1Z"/><path class="cls-1" d="M35.44,193.68v1l-.24,0a1.27,1.27,0,0,0-1,.36,1.42,1.42,0,0,0-.34,1v2.17h-1v-4.48h1v.65A1.74,1.74,0,0,1,35.44,193.68Z"/><path class="cls-1" d="M40.49,196.31H37a1.19,1.19,0,0,0,.48.78,1.77,1.77,0,0,0,2.19-.2l.56.65a1.94,1.94,0,0,1-.76.55,2.87,2.87,0,0,1-1,.18,2.83,2.83,0,0,1-1.3-.29,2.09,2.09,0,0,1-.87-.82,2.27,2.27,0,0,1-.31-1.19,2.33,2.33,0,0,1,.3-1.18,2.11,2.11,0,0,1,.83-.82,2.36,2.36,0,0,1,1.19-.29,2.26,2.26,0,0,1,1.17.29,2.1,2.1,0,0,1,.81.81,2.52,2.52,0,0,1,.29,1.21C40.51,196.07,40.5,196.17,40.49,196.31Zm-3.1-1.5a1.24,1.24,0,0,0-.43.8h2.55a1.29,1.29,0,0,0-.41-.79,1.27,1.27,0,0,0-.86-.3A1.29,1.29,0,0,0,37.39,194.81Z"/><path class="cls-1" d="M45.17,194a2,2,0,0,1,.81.81,2.55,2.55,0,0,1,0,2.4,2,2,0,0,1-.81.81,2.26,2.26,0,0,1-1.17.29,2.06,2.06,0,0,1-.84-.16,1.63,1.63,0,0,1-.65-.48v.58h-1V192h1.05v2.29a1.88,1.88,0,0,1,.64-.44,2.07,2.07,0,0,1,.8-.15A2.36,2.36,0,0,1,45.17,194Zm-.33,3a1.59,1.59,0,0,0,0-2,1.42,1.42,0,0,0-1.64-.21,1.26,1.26,0,0,0-.48.49,1.7,1.7,0,0,0,0,1.48,1.26,1.26,0,0,0,.48.49,1.4,1.4,0,0,0,.68.17A1.3,1.3,0,0,0,44.84,197Z"/><path class="cls-1" d="M50.45,194.15a1.83,1.83,0,0,1,.52,1.43v2.63H50v-.54a1.3,1.3,0,0,1-.55.45,2.21,2.21,0,0,1-.86.15,2.16,2.16,0,0,1-.88-.17,1.49,1.49,0,0,1-.59-.48,1.27,1.27,0,0,1-.2-.69,1.17,1.17,0,0,1,.45-1,2.18,2.18,0,0,1,1.41-.37h1.16v-.07a.91.91,0,0,0-.28-.72,1.19,1.19,0,0,0-.83-.25,2.4,2.4,0,0,0-.75.12,1.76,1.76,0,0,0-.61.32l-.42-.76a2.49,2.49,0,0,1,.85-.41,3.6,3.6,0,0,1,1-.14A2.18,2.18,0,0,1,50.45,194.15Zm-1,3.18a1,1,0,0,0,.43-.52v-.52H48.84c-.61,0-.91.2-.91.59a.55.55,0,0,0,.23.46,1,1,0,0,0,.63.17A1.35,1.35,0,0,0,49.49,197.33Z"/><path class="cls-1" d="M52.64,198.13a3,3,0,0,1-.84-.36l.41-.8a2.65,2.65,0,0,0,.72.32,3.15,3.15,0,0,0,.84.12c.63,0,.94-.16.94-.49a.33.33,0,0,0-.24-.33,4.43,4.43,0,0,0-.77-.18,5.76,5.76,0,0,1-.9-.19,1.37,1.37,0,0,1-.6-.38,1,1,0,0,1-.26-.76,1.19,1.19,0,0,1,.53-1,2.41,2.41,0,0,1,1.44-.38,4.2,4.2,0,0,1,.93.1,2.5,2.5,0,0,1,.75.28l-.4.8a2.53,2.53,0,0,0-1.29-.34,1.47,1.47,0,0,0-.7.14A.43.43,0,0,0,53,195a.37.37,0,0,0,.26.36,4.15,4.15,0,0,0,.79.19,5.73,5.73,0,0,1,.89.2,1.32,1.32,0,0,1,.59.37,1,1,0,0,1,.25.73,1.18,1.18,0,0,1-.55,1,2.59,2.59,0,0,1-1.49.38A4.17,4.17,0,0,1,52.64,198.13Z"/><path class="cls-1" d="M60.84,196.31H57.32a1.25,1.25,0,0,0,.49.78,1.75,1.75,0,0,0,2.18-.2l.57.65a2,2,0,0,1-.77.55,2.8,2.8,0,0,1-1,.18,2.83,2.83,0,0,1-1.3-.29,2.09,2.09,0,0,1-.87-.82,2.37,2.37,0,0,1-.31-1.19,2.33,2.33,0,0,1,.3-1.18,2.18,2.18,0,0,1,.83-.82,2.36,2.36,0,0,1,1.19-.29,2.26,2.26,0,0,1,1.17.29,2,2,0,0,1,.81.81,2.52,2.52,0,0,1,.29,1.21C60.86,196.07,60.85,196.17,60.84,196.31Zm-3.1-1.5a1.34,1.34,0,0,0-.43.8h2.55a1.2,1.2,0,0,0-.41-.79,1.27,1.27,0,0,0-.86-.3A1.31,1.31,0,0,0,57.74,194.81Z"/><path class="cls-1" d="M29.44,210.92h1v2.34a3.46,3.46,0,0,1-1.06.56,4,4,0,0,1-1.24.19,3.41,3.41,0,0,1-1.63-.39,2.87,2.87,0,0,1-1.13-1.08,3.15,3.15,0,0,1,0-3.11,2.83,2.83,0,0,1,1.14-1.08,3.39,3.39,0,0,1,1.63-.39,3.45,3.45,0,0,1,1.35.25,2.61,2.61,0,0,1,1,.71l-.69.67a2.17,2.17,0,0,0-1.62-.67,2.32,2.32,0,0,0-1.1.26,1.91,1.91,0,0,0-.76.73,2.14,2.14,0,0,0-.27,1.08,2.12,2.12,0,0,0,.27,1.06,1.91,1.91,0,0,0,.76.73,2.2,2.2,0,0,0,1.09.27,2.36,2.36,0,0,0,1.21-.3Z"/><path class="cls-1" d="M31.86,208.52a.63.63,0,0,1,0-.9.68.68,0,0,1,.48-.18.72.72,0,0,1,.48.17.56.56,0,0,1,.19.44.6.6,0,0,1-.19.46.62.62,0,0,1-.48.19A.68.68,0,0,1,31.86,208.52Zm-.05.92h1.05v4.49H31.81Z"/><path class="cls-1" d="M36.94,213.68a1.37,1.37,0,0,1-.45.23,2.1,2.1,0,0,1-.56.08,1.58,1.58,0,0,1-1.14-.39,1.49,1.49,0,0,1-.41-1.13v-2.16h-.74v-.84h.74v-1h1v1h1.2v.84h-1.2v2.14a.75.75,0,0,0,.16.5.62.62,0,0,0,.46.17.92.92,0,0,0,.59-.18Z"/><path class="cls-1" d="M26.46,146.1v1.79H29.3v.93H26.46v2.25H25.37v-5.88h4.29v.91Z"/><path class="cls-1" d="M30.62,144.83h1.05v6.24H30.62Z"/><path class="cls-1" d="M36.28,147a1.82,1.82,0,0,1,.52,1.43v2.63h-1v-.55a1.17,1.17,0,0,1-.55.45,2.2,2.2,0,0,1-.86.16,2,2,0,0,1-.88-.18,1.34,1.34,0,0,1-.59-.48,1.24,1.24,0,0,1-.2-.69,1.2,1.2,0,0,1,.45-1,2.25,2.25,0,0,1,1.41-.36h1.16v-.07a.9.9,0,0,0-.28-.72,1.22,1.22,0,0,0-.84-.26,2.34,2.34,0,0,0-.74.12,1.93,1.93,0,0,0-.62.33l-.41-.76a2.7,2.7,0,0,1,.85-.42,4,4,0,0,1,1-.14A2.18,2.18,0,0,1,36.28,147Zm-1,3.17a1,1,0,0,0,.43-.52v-.52H34.67c-.61,0-.91.2-.91.6a.53.53,0,0,0,.23.45,1,1,0,0,0,.63.17A1.38,1.38,0,0,0,35.32,150.18Z"/><path class="cls-1" d="M38.46,151a2.56,2.56,0,0,1-.83-.36l.41-.8a2.39,2.39,0,0,0,.72.33,3.1,3.1,0,0,0,.84.12c.63,0,.94-.17.94-.5a.33.33,0,0,0-.24-.32,3.83,3.83,0,0,0-.77-.18,7.21,7.21,0,0,1-.9-.19,1.42,1.42,0,0,1-.61-.39,1.06,1.06,0,0,1-.25-.76,1.22,1.22,0,0,1,.53-1,2.48,2.48,0,0,1,1.44-.38,4.22,4.22,0,0,1,.93.11,2.5,2.5,0,0,1,.75.28l-.4.8a2.44,2.44,0,0,0-1.29-.34,1.47,1.47,0,0,0-.7.14.4.4,0,0,0-.24.36.37.37,0,0,0,.26.36,3.83,3.83,0,0,0,.79.2,5.7,5.7,0,0,1,.88.19,1.44,1.44,0,0,1,.6.37,1,1,0,0,1,.24.74,1.17,1.17,0,0,1-.54,1,2.61,2.61,0,0,1-1.49.38A3.89,3.89,0,0,1,38.46,151Z"/><path class="cls-1" d="M44.3,149.14l-.78.74v1.19H42.47v-6.24h1.05v3.77l2.18-2H47l-1.88,1.88,2.05,2.61H45.86Z"/><path class="cls-1" d="M30.73,129.47l-2.56,5.88H27.09l-2.57-5.88h1.19L27.66,134l2-4.54Z"/><path class="cls-1" d="M35.45,130.87v4.48h-1v-.57a1.74,1.74,0,0,1-.63.47,2,2,0,0,1-.82.16,2,2,0,0,1-1.41-.5,2,2,0,0,1-.52-1.48v-2.56h1v2.42a1.26,1.26,0,0,0,.28.9,1,1,0,0,0,.77.3,1.19,1.19,0,0,0,.9-.35,1.41,1.41,0,0,0,.33-1v-2.26Z"/><path class="cls-1" d="M41,133.45H37.51a1.19,1.19,0,0,0,.48.78,1.6,1.6,0,0,0,1,.29,1.63,1.63,0,0,0,1.22-.49l.56.65a2,2,0,0,1-.76.55,3.1,3.1,0,0,1-2.35-.11,2.22,2.22,0,0,1-.87-.82,2.36,2.36,0,0,1-.3-1.19,2.33,2.33,0,0,1,.3-1.18,2.09,2.09,0,0,1,.82-.82,2.4,2.4,0,0,1,1.2-.29,2.31,2.31,0,0,1,1.17.29,2,2,0,0,1,.8.81,2.41,2.41,0,0,1,.29,1.21C41,133.21,41,133.31,41,133.45ZM37.92,132a1.28,1.28,0,0,0-.42.8H40a1.2,1.2,0,0,0-.41-.79,1.24,1.24,0,0,0-.85-.3A1.33,1.33,0,0,0,37.92,132Z"/><path class="cls-1" d="M41.9,135.21a.67.67,0,0,1-.2-.5.65.65,0,0,1,.2-.5.66.66,0,0,1,.49-.19.67.67,0,0,1,.49.19.69.69,0,0,1,.2.5.67.67,0,0,1-.2.5.7.7,0,0,1-1,0Z"/><path class="cls-1" d="M42.72,136.78,43,136a1,1,0,0,0,.61.18.53.53,0,0,0,.45-.19.8.8,0,0,0,.16-.53v-4.59h1v4.57a1.6,1.6,0,0,1-.42,1.17,1.49,1.49,0,0,1-1.15.43A1.64,1.64,0,0,1,42.72,136.78ZM44.28,130a.61.61,0,0,1,0-.9.68.68,0,0,1,.48-.18.72.72,0,0,1,.48.17.57.57,0,0,1,.19.43.63.63,0,0,1-.19.47.69.69,0,0,1-.48.19A.68.68,0,0,1,44.28,130Z"/><path class="cls-1" d="M47,135.27a3.08,3.08,0,0,1-.83-.36l.4-.8a2.87,2.87,0,0,0,.73.32,3,3,0,0,0,.84.12c.62,0,.94-.16.94-.49a.33.33,0,0,0-.24-.33,4.68,4.68,0,0,0-.77-.18,5.76,5.76,0,0,1-.9-.19,1.34,1.34,0,0,1-.61-.38,1.07,1.07,0,0,1-.25-.76,1.17,1.17,0,0,1,.53-1,2.37,2.37,0,0,1,1.44-.38,4.05,4.05,0,0,1,.92.1,2.57,2.57,0,0,1,.76.28l-.4.8a2.53,2.53,0,0,0-1.29-.34,1.44,1.44,0,0,0-.7.14.43.43,0,0,0-.24.37.37.37,0,0,0,.26.36,4,4,0,0,0,.79.19,5.57,5.57,0,0,1,.88.2,1.26,1.26,0,0,1,.59.37,1,1,0,0,1,.25.73,1.16,1.16,0,0,1-.54,1,2.61,2.61,0,0,1-1.49.38A4.3,4.3,0,0,1,47,135.27Z"/><path class="cls-1" d="M18.61,250.56a3.14,3.14,0,0,0-2.71,1.57H13.1A5.52,5.52,0,0,1,7.61,247a3.15,3.15,0,1,0-3.18,0V257.3a3.16,3.16,0,1,0,3.15,0v-4a8.62,8.62,0,0,0,5.52,2h2.8a3.14,3.14,0,1,0,2.71-4.72ZM6,242.68a1.58,1.58,0,1,1-1.58,1.58A1.58,1.58,0,0,1,6,242.68Zm0,18.91A1.58,1.58,0,1,1,7.58,260,1.58,1.58,0,0,1,6,261.59Zm12.6-6.31a1.58,1.58,0,1,1,1.58-1.57A1.57,1.57,0,0,1,18.61,255.28Z"/><path class="cls-1" d="M18.61,266a3.13,3.13,0,0,0-2.71,1.58H13.1a5.52,5.52,0,0,1-5.49-5.18c.92-.55-4.12-.53-3.18,0v10.32a3.16,3.16,0,1,0,3.15,0v-4a8.63,8.63,0,0,0,5.52,2h2.8A3.14,3.14,0,1,0,18.61,266ZM6,277a1.58,1.58,0,1,1,1.57-1.57A1.57,1.57,0,0,1,6,277Zm12.6-6.3a1.58,1.58,0,1,1,1.58-1.57A1.57,1.57,0,0,1,18.61,270.68Z"/><path class="cls-1" d="M18.61,281.62a3.13,3.13,0,0,0-2.71,1.58H13.1A5.52,5.52,0,0,1,7.61,278c.92-.55-4.12-.52-3.18,0v10.33a3.16,3.16,0,1,0,3.15,0v-4a8.63,8.63,0,0,0,5.52,2h2.8a3.14,3.14,0,0,0,5.86-1.58A3.16,3.16,0,0,0,18.61,281.62ZM6,292.65a1.58,1.58,0,1,1,1.57-1.58A1.58,1.58,0,0,1,6,292.65Zm12.6-6.3a1.58,1.58,0,1,1,1.58-1.58A1.58,1.58,0,0,1,18.61,286.35Z"/><path class="cls-1" d="M30.74,286H27.8l-.58,1.36H26.09l2.65-5.88h1.07l2.66,5.88H31.33Zm-.36-.86-1.11-2.57-1.1,2.57Z"/><path class="cls-1" d="M37.47,281.09v6.23h-1v-.58a1.77,1.77,0,0,1-.64.48,2.41,2.41,0,0,1-2-.13,2,2,0,0,1-.81-.81,2.38,2.38,0,0,1-.3-1.2,2.32,2.32,0,0,1,.3-1.2,2,2,0,0,1,.81-.81,2.35,2.35,0,0,1,1.16-.29,2.18,2.18,0,0,1,.82.15,1.9,1.9,0,0,1,.63.46v-2.3Zm-1.69,5.22a1.33,1.33,0,0,0,.48-.49,1.61,1.61,0,0,0,.17-.74,1.58,1.58,0,0,0-.17-.74,1.19,1.19,0,0,0-.48-.49,1.37,1.37,0,0,0-1.36,0,1.19,1.19,0,0,0-.48.49,1.47,1.47,0,0,0-.18.74,1.5,1.5,0,0,0,.18.74,1.33,1.33,0,0,0,.48.49,1.44,1.44,0,0,0,1.36,0Z"/><path class="cls-1" d="M39.63,287.08a2.1,2.1,0,0,1-.85-.82,2.42,2.42,0,0,1,0-2.37,2.07,2.07,0,0,1,.85-.81,2.54,2.54,0,0,1,1.23-.3,2.49,2.49,0,0,1,1.23.3,2.1,2.1,0,0,1,.86.81,2.49,2.49,0,0,1,0,2.37,2.12,2.12,0,0,1-.86.82,2.49,2.49,0,0,1-1.23.3A2.54,2.54,0,0,1,39.63,287.08Zm2.19-1a1.37,1.37,0,0,0,.37-1,1.41,1.41,0,0,0-.37-1,1.29,1.29,0,0,0-1-.39,1.25,1.25,0,0,0-1,.39,1.41,1.41,0,0,0-.38,1,1.37,1.37,0,0,0,.38,1,1.25,1.25,0,0,0,1,.39A1.29,1.29,0,0,0,41.82,286.09Z"/><path class="cls-1" d="M47.92,283.07a2.1,2.1,0,0,1,.81.81,2.32,2.32,0,0,1,.29,1.2,2.37,2.37,0,0,1-.29,1.2,2.1,2.1,0,0,1-.81.81,2.42,2.42,0,0,1-1.17.29,2.34,2.34,0,0,1-.85-.16,1.69,1.69,0,0,1-.64-.48v.58h-1v-6.23h1.05v2.29a1.81,1.81,0,0,1,.64-.45,2.07,2.07,0,0,1,.8-.15A2.42,2.42,0,0,1,47.92,283.07Zm-.34,3a1.37,1.37,0,0,0,.38-1,1.41,1.41,0,0,0-.38-1,1.25,1.25,0,0,0-.95-.39,1.3,1.3,0,0,0-.68.18,1.19,1.19,0,0,0-.48.49,1.47,1.47,0,0,0-.18.74,1.5,1.5,0,0,0,.18.74,1.33,1.33,0,0,0,.48.49,1.4,1.4,0,0,0,.68.17A1.25,1.25,0,0,0,47.58,286.09Z"/><path class="cls-1" d="M54.22,285.41H50.7a1.3,1.3,0,0,0,.49.79,1.6,1.6,0,0,0,1,.29,1.63,1.63,0,0,0,1.22-.49l.56.65a1.86,1.86,0,0,1-.77.54,2.61,2.61,0,0,1-1,.19,2.71,2.71,0,0,1-1.3-.3,2,2,0,0,1-.87-.82,2.44,2.44,0,0,1,0-2.36,2.11,2.11,0,0,1,.83-.82,2.51,2.51,0,0,1,2.36,0,2.06,2.06,0,0,1,.81.82,2.49,2.49,0,0,1,.29,1.21C54.24,285.17,54.23,285.28,54.22,285.41Zm-3.1-1.49a1.25,1.25,0,0,0-.42.79h2.54a1.2,1.2,0,0,0-.41-.78,1.23,1.23,0,0,0-.86-.31A1.26,1.26,0,0,0,51.12,283.92Z"/><path class="cls-1" d="M61.42,281.69a2,2,0,0,1,.87.72,2.06,2.06,0,0,1,.3,1.12,2,2,0,0,1-.3,1.11,1.91,1.91,0,0,1-.87.73,3.22,3.22,0,0,1-1.33.25H58.76v1.7H57.67v-5.88h2.42A3.22,3.22,0,0,1,61.42,281.69Zm-.3,2.71a1.06,1.06,0,0,0,.37-.87,1,1,0,0,0-.37-.86,1.64,1.64,0,0,0-1.08-.31H58.76v2.34H60A1.69,1.69,0,0,0,61.12,284.4Z"/><path class="cls-1" d="M67.57,283.28a2,2,0,0,1,.51,1.47v2.57H67v-2.44a1.27,1.27,0,0,0-.27-.88,1,1,0,0,0-.79-.3,1.18,1.18,0,0,0-.92.35,1.39,1.39,0,0,0-.34,1v2.27h-1v-6.23h1v2.26a1.82,1.82,0,0,1,.65-.42,2.3,2.3,0,0,1,.85-.15A1.87,1.87,0,0,1,67.57,283.28Z"/><path class="cls-1" d="M70.25,287.08a2.1,2.1,0,0,1-.85-.82,2.42,2.42,0,0,1,0-2.37,2.07,2.07,0,0,1,.85-.81,2.67,2.67,0,0,1,2.46,0,2,2,0,0,1,.85.81,2.42,2.42,0,0,1,0,2.37,2,2,0,0,1-.85.82,2.67,2.67,0,0,1-2.46,0Zm2.18-1a1.33,1.33,0,0,0,.38-1,1.37,1.37,0,0,0-.38-1,1.36,1.36,0,0,0-1.91,0,1.41,1.41,0,0,0-.37,1,1.37,1.37,0,0,0,.37,1,1.36,1.36,0,0,0,1.91,0Z"/><path class="cls-1" d="M77.58,287.08a1.35,1.35,0,0,1-.45.22,2.1,2.1,0,0,1-.56.08,1.54,1.54,0,0,1-1.14-.39,1.48,1.48,0,0,1-.41-1.12v-2.16h-.74v-.84H75v-1h1v1h1.2v.84h-1.2v2.13a.73.73,0,0,0,.16.5.58.58,0,0,0,.46.17.94.94,0,0,0,.59-.18Z"/><path class="cls-1" d="M79.08,287.08a2,2,0,0,1-.85-.82,2.42,2.42,0,0,1,0-2.37,2,2,0,0,1,.85-.81,2.49,2.49,0,0,1,1.23-.3,2.52,2.52,0,0,1,1.23.3,2.07,2.07,0,0,1,.85.81,2.42,2.42,0,0,1,0,2.37,2.1,2.1,0,0,1-.85.82,2.52,2.52,0,0,1-1.23.3A2.49,2.49,0,0,1,79.08,287.08Zm2.18-1a1.37,1.37,0,0,0,.38-1,1.41,1.41,0,0,0-.38-1,1.36,1.36,0,0,0-1.91,0,1.41,1.41,0,0,0-.37,1,1.37,1.37,0,0,0,.37,1,1.36,1.36,0,0,0,1.91,0Z"/><path class="cls-1" d="M84,287.24a2.75,2.75,0,0,1-.84-.37l.41-.79a2.65,2.65,0,0,0,.72.32,3.15,3.15,0,0,0,.84.12c.63,0,.94-.16.94-.49a.33.33,0,0,0-.24-.33,4.43,4.43,0,0,0-.77-.18,5.76,5.76,0,0,1-.9-.19,1.37,1.37,0,0,1-.6-.38,1,1,0,0,1-.26-.76,1.19,1.19,0,0,1,.53-1,2.41,2.41,0,0,1,1.44-.39,4.22,4.22,0,0,1,.93.11,2.4,2.4,0,0,1,.75.28l-.4.8a2.44,2.44,0,0,0-1.29-.34,1.47,1.47,0,0,0-.7.14.41.41,0,0,0-.24.37.37.37,0,0,0,.26.35,4,4,0,0,0,.79.2,7.4,7.4,0,0,1,.89.19,1.52,1.52,0,0,1,.59.37,1.07,1.07,0,0,1,.25.74,1.18,1.18,0,0,1-.55,1,2.59,2.59,0,0,1-1.49.38A4.17,4.17,0,0,1,84,287.24Z"/><path class="cls-1" d="M91.94,283.28a2,2,0,0,1,.51,1.47v2.57h-1v-2.44a1.22,1.22,0,0,0-.28-.88,1,1,0,0,0-.79-.3,1.18,1.18,0,0,0-.91.35,1.39,1.39,0,0,0-.34,1v2.27H88v-6.23h1v2.26a1.82,1.82,0,0,1,.65-.42,2.26,2.26,0,0,1,.85-.15A1.88,1.88,0,0,1,91.94,283.28Z"/><path class="cls-1" d="M94.62,287.08a2,2,0,0,1-.85-.82,2.42,2.42,0,0,1,0-2.37,2,2,0,0,1,.85-.81,2.49,2.49,0,0,1,1.23-.3,2.52,2.52,0,0,1,1.23.3,2.07,2.07,0,0,1,.85.81,2.42,2.42,0,0,1,0,2.37,2.1,2.1,0,0,1-.85.82,2.52,2.52,0,0,1-1.23.3A2.49,2.49,0,0,1,94.62,287.08Zm2.18-1a1.37,1.37,0,0,0,.38-1,1.41,1.41,0,0,0-.38-1,1.36,1.36,0,0,0-1.91,0,1.41,1.41,0,0,0-.37,1,1.37,1.37,0,0,0,.37,1,1.36,1.36,0,0,0,1.91,0Z"/><path class="cls-1" d="M102.91,283.07a2.1,2.1,0,0,1,.81.81,2.42,2.42,0,0,1,.29,1.2,2.48,2.48,0,0,1-.29,1.2,2.1,2.1,0,0,1-.81.81,2.43,2.43,0,0,1-1.18.29,1.78,1.78,0,0,1-1.43-.61V289h-1v-6.12h1v.59a1.62,1.62,0,0,1,.64-.48,2.28,2.28,0,0,1,.84-.16A2.43,2.43,0,0,1,102.91,283.07Zm-.34,3a1.37,1.37,0,0,0,.37-1,1.41,1.41,0,0,0-.37-1,1.36,1.36,0,0,0-1.63-.21,1.08,1.08,0,0,0-.48.49,1.47,1.47,0,0,0-.18.74,1.5,1.5,0,0,0,.18.74,1.19,1.19,0,0,0,.48.49,1.37,1.37,0,0,0,.68.17A1.27,1.27,0,0,0,102.57,286.09Z"/><path class="cls-1" d="M30.74,270.25H27.8l-.58,1.36H26.09l2.65-5.88h1.07l2.66,5.88H31.33Zm-.36-.86-1.11-2.57-1.1,2.57Z"/><path class="cls-1" d="M37.47,265.38v6.23h-1V271a1.72,1.72,0,0,1-.65.48,2.06,2.06,0,0,1-.84.16,2.25,2.25,0,0,1-1.16-.29,2,2,0,0,1-.81-.81,2.38,2.38,0,0,1-.3-1.2,2.35,2.35,0,0,1,.3-1.2,2,2,0,0,1,.81-.81,2.34,2.34,0,0,1,1.16-.28,2.18,2.18,0,0,1,.82.15,1.74,1.74,0,0,1,.63.45v-2.3Zm-1.69,5.22a1.33,1.33,0,0,0,.48-.49,1.61,1.61,0,0,0,.17-.74,1.58,1.58,0,0,0-.17-.74,1.26,1.26,0,0,0-.48-.49,1.3,1.3,0,0,0-.68-.17,1.27,1.27,0,0,0-.68.17,1.19,1.19,0,0,0-.48.49,1.47,1.47,0,0,0-.18.74,1.5,1.5,0,0,0,.18.74,1.26,1.26,0,0,0,.48.49,1.37,1.37,0,0,0,.68.17A1.4,1.4,0,0,0,35.78,270.6Z"/><path class="cls-1" d="M39.63,271.38a2.16,2.16,0,0,1-.85-.82,2.44,2.44,0,0,1,0-2.38,2.21,2.21,0,0,1,.85-.81,2.54,2.54,0,0,1,1.23-.29,2.48,2.48,0,0,1,1.23.29,2.24,2.24,0,0,1,.86.81,2.51,2.51,0,0,1,0,2.38,2.19,2.19,0,0,1-.86.82,2.6,2.6,0,0,1-1.23.29A2.66,2.66,0,0,1,39.63,271.38Zm2.19-1a1.59,1.59,0,0,0,0-2,1.28,1.28,0,0,0-1-.38,1.23,1.23,0,0,0-1,.38,1.56,1.56,0,0,0,0,2,1.27,1.27,0,0,0,1,.38A1.32,1.32,0,0,0,41.82,270.39Z"/><path class="cls-1" d="M47.92,267.36a2.1,2.1,0,0,1,.81.81,2.35,2.35,0,0,1,.29,1.2,2.37,2.37,0,0,1-.29,1.2,2.1,2.1,0,0,1-.81.81,2.31,2.31,0,0,1-1.17.29,2.15,2.15,0,0,1-.85-.16,1.69,1.69,0,0,1-.64-.48v.58h-1v-6.23h1.05v2.29a1.79,1.79,0,0,1,.64-.44,2.07,2.07,0,0,1,.8-.15A2.41,2.41,0,0,1,47.92,267.36Zm-.34,3a1.56,1.56,0,0,0,0-2,1.24,1.24,0,0,0-.95-.38,1.3,1.3,0,0,0-.68.17,1.26,1.26,0,0,0-.48.49,1.47,1.47,0,0,0-.18.74,1.5,1.5,0,0,0,.18.74,1.33,1.33,0,0,0,.48.49,1.4,1.4,0,0,0,.68.17A1.28,1.28,0,0,0,47.58,270.39Z"/><path class="cls-1" d="M54.22,269.7H50.7a1.24,1.24,0,0,0,.49.79,1.75,1.75,0,0,0,2.18-.2l.57.65a2,2,0,0,1-.77.55,2.8,2.8,0,0,1-1,.18,2.83,2.83,0,0,1-1.3-.29,2.09,2.09,0,0,1-.87-.82,2.37,2.37,0,0,1-.31-1.19,2.33,2.33,0,0,1,.3-1.18,2.18,2.18,0,0,1,.83-.82,2.36,2.36,0,0,1,1.19-.29,2.26,2.26,0,0,1,1.17.29,2,2,0,0,1,.81.81,2.49,2.49,0,0,1,.29,1.21C54.24,269.47,54.23,269.57,54.22,269.7Zm-3.1-1.49a1.28,1.28,0,0,0-.42.8h2.54a1.2,1.2,0,0,0-.41-.79,1.27,1.27,0,0,0-.86-.3A1.31,1.31,0,0,0,51.12,268.21Z"/><path class="cls-1" d="M57.67,265.73h1.09v5.88H57.67Z"/><path class="cls-1" d="M60.25,265.38h1v6.23h-1Z"/><path class="cls-1" d="M62.67,265.38h1v6.23h-1Z"/><path class="cls-1" d="M69.44,267.13v4.48h-1V271a1.58,1.58,0,0,1-.63.47,1.86,1.86,0,0,1-2.74-1.82v-2.56h1.05v2.41a1.32,1.32,0,0,0,.27.91,1,1,0,0,0,.78.3,1.18,1.18,0,0,0,.89-.35,1.41,1.41,0,0,0,.33-1v-2.26Z"/><path class="cls-1" d="M71.14,271.53a2.94,2.94,0,0,1-.83-.36l.4-.8a2.73,2.73,0,0,0,.73.32,3,3,0,0,0,.83.12c.63,0,.94-.16.94-.49A.32.32,0,0,0,73,270a4.68,4.68,0,0,0-.77-.18,6.19,6.19,0,0,1-.91-.19,1.37,1.37,0,0,1-.6-.38,1.08,1.08,0,0,1-.26-.76,1.18,1.18,0,0,1,.54-1,2.37,2.37,0,0,1,1.44-.38,4.12,4.12,0,0,1,.92.1,2.57,2.57,0,0,1,.76.28l-.41.8a2.52,2.52,0,0,0-1.28-.34,1.44,1.44,0,0,0-.7.14.42.42,0,0,0-.24.37.34.34,0,0,0,.25.35,4,4,0,0,0,.8.2,5.57,5.57,0,0,1,.88.2,1.33,1.33,0,0,1,.59.36,1,1,0,0,1,.25.74,1.16,1.16,0,0,1-.55,1,2.57,2.57,0,0,1-1.48.38A4.24,4.24,0,0,1,71.14,271.53Z"/><path class="cls-1" d="M77.84,271.37a1.18,1.18,0,0,1-.45.22,2,2,0,0,1-.55.08,1.59,1.59,0,0,1-1.15-.39,1.46,1.46,0,0,1-.4-1.12V268h-.74v-.84h.74v-1h1v1h1.2V268h-1.2v2.13a.68.68,0,0,0,.16.5.59.59,0,0,0,.46.18,1,1,0,0,0,.59-.19Z"/><path class="cls-1" d="M81.3,267.08v1l-.24,0a1.27,1.27,0,0,0-1,.36,1.42,1.42,0,0,0-.34,1v2.17H78.71v-4.48h1v.65A1.74,1.74,0,0,1,81.3,267.08Z"/><path class="cls-1" d="M85.4,267.55a1.83,1.83,0,0,1,.52,1.43v2.63h-1v-.54a1.21,1.21,0,0,1-.55.44,2,2,0,0,1-.86.16,2.19,2.19,0,0,1-.88-.17,1.39,1.39,0,0,1-.58-.48,1.2,1.2,0,0,1-.21-.69,1.17,1.17,0,0,1,.45-1,2.18,2.18,0,0,1,1.41-.37h1.16v-.07a.91.91,0,0,0-.28-.72,1.18,1.18,0,0,0-.83-.25,2.45,2.45,0,0,0-.75.12,1.76,1.76,0,0,0-.61.32l-.42-.76a2.49,2.49,0,0,1,.85-.41,3.6,3.6,0,0,1,1-.14A2.18,2.18,0,0,1,85.4,267.55Zm-1,3.18a1,1,0,0,0,.43-.52v-.52H83.79c-.6,0-.91.2-.91.59a.55.55,0,0,0,.23.46,1,1,0,0,0,.63.17A1.35,1.35,0,0,0,84.44,270.73Z"/><path class="cls-1" d="M90,271.37a1.21,1.21,0,0,1-.44.22,2.1,2.1,0,0,1-.56.08,1.59,1.59,0,0,1-1.15-.39,1.5,1.5,0,0,1-.4-1.12V268h-.74v-.84h.74v-1h1v1h1.2V268h-1.2v2.13a.68.68,0,0,0,.16.5.59.59,0,0,0,.46.18,1,1,0,0,0,.59-.19Z"/><path class="cls-1" d="M91.47,271.38a2.1,2.1,0,0,1-.85-.82,2.44,2.44,0,0,1,0-2.38,2.14,2.14,0,0,1,.85-.81,2.47,2.47,0,0,1,1.22-.29,2.52,2.52,0,0,1,1.24.29,2.21,2.21,0,0,1,.85.81,2.44,2.44,0,0,1,0,2.38,2.16,2.16,0,0,1-.85.82,2.64,2.64,0,0,1-1.24.29A2.59,2.59,0,0,1,91.47,271.38Zm2.18-1a1.56,1.56,0,0,0,0-2,1.39,1.39,0,0,0-1.91,0,1.59,1.59,0,0,0,0,2,1.39,1.39,0,0,0,1.91,0Z"/><path class="cls-1" d="M98.69,267.08v1l-.24,0a1.27,1.27,0,0,0-1,.36,1.42,1.42,0,0,0-.34,1v2.17H96.1v-4.48h1v.65A1.74,1.74,0,0,1,98.69,267.08Z"/><path class="cls-1" d="M30.78,254.54H27.84l-.58,1.36H26.13L28.78,250h1.08l2.65,5.88H31.37Zm-.36-.85-1.11-2.57-1.1,2.57Z"/><path class="cls-1" d="M37.51,249.67v6.23h-1v-.58a1.51,1.51,0,0,1-.64.48A2.15,2.15,0,0,1,35,256a2.34,2.34,0,0,1-1.16-.28,2.1,2.1,0,0,1-.81-.81,2.65,2.65,0,0,1,0-2.41,2.1,2.1,0,0,1,.81-.81,2.34,2.34,0,0,1,1.16-.28,2.18,2.18,0,0,1,.82.15,1.74,1.74,0,0,1,.63.45v-2.3Zm-1.69,5.22a1.26,1.26,0,0,0,.48-.49,1.47,1.47,0,0,0,.17-.74,1.5,1.5,0,0,0-.17-.74,1.33,1.33,0,0,0-.48-.49,1.45,1.45,0,0,0-1.36,0,1.33,1.33,0,0,0-.48.49,1.5,1.5,0,0,0-.18.74,1.47,1.47,0,0,0,.18.74,1.26,1.26,0,0,0,.48.49,1.44,1.44,0,0,0,1.36,0Z"/><path class="cls-1" d="M39.67,255.67a2.23,2.23,0,0,1-.85-.82,2.36,2.36,0,0,1-.3-1.19,2.3,2.3,0,0,1,.3-1.18,2.23,2.23,0,0,1,.85-.82,2.77,2.77,0,0,1,2.47,0,2.23,2.23,0,0,1,.85.82,2.31,2.31,0,0,1,.31,1.18,2.37,2.37,0,0,1-.31,1.19,2.23,2.23,0,0,1-.85.82,2.77,2.77,0,0,1-2.47,0Zm2.19-1a1.41,1.41,0,0,0,.38-1,1.37,1.37,0,0,0-.38-1,1.27,1.27,0,0,0-1-.39,1.25,1.25,0,0,0-.95.39,1.37,1.37,0,0,0-.38,1,1.41,1.41,0,0,0,.38,1,1.24,1.24,0,0,0,.95.38A1.27,1.27,0,0,0,41.86,254.68Z"/><path class="cls-1" d="M48,251.65a2,2,0,0,1,.81.81,2.57,2.57,0,0,1,0,2.41,2,2,0,0,1-.81.81,2.36,2.36,0,0,1-1.17.28,2.06,2.06,0,0,1-.84-.16,1.54,1.54,0,0,1-.65-.48v.58h-1v-6.23h1.05V252a1.79,1.79,0,0,1,.64-.44,2.07,2.07,0,0,1,.8-.15A2.36,2.36,0,0,1,48,251.65Zm-.33,3a1.45,1.45,0,0,0,.37-1,1.41,1.41,0,0,0-.37-1,1.27,1.27,0,0,0-1-.39,1.4,1.4,0,0,0-.68.17,1.33,1.33,0,0,0-.48.49,1.61,1.61,0,0,0-.17.74,1.58,1.58,0,0,0,.17.74,1.26,1.26,0,0,0,.48.49,1.3,1.3,0,0,0,.68.17A1.27,1.27,0,0,0,47.63,254.68Z"/><path class="cls-1" d="M54.27,254H50.75a1.19,1.19,0,0,0,.48.78,1.53,1.53,0,0,0,1,.29,1.66,1.66,0,0,0,1.22-.48l.56.64a1.91,1.91,0,0,1-.76.55,2.89,2.89,0,0,1-1,.18,2.74,2.74,0,0,1-1.3-.29,2.22,2.22,0,0,1-.87-.82,2.36,2.36,0,0,1-.3-1.19,2.43,2.43,0,0,1,.29-1.18,2.18,2.18,0,0,1,.83-.82,2.47,2.47,0,0,1,1.19-.29,2.43,2.43,0,0,1,1.18.29,2,2,0,0,1,.8.81,2.42,2.42,0,0,1,.29,1.22C54.28,253.76,54.28,253.86,54.27,254Zm-3.11-1.49a1.25,1.25,0,0,0-.42.79h2.54a1.22,1.22,0,0,0-.41-.79,1.37,1.37,0,0,0-1.71,0Z"/><path class="cls-1" d="M61.41,255.9l-1.59-2.23-1.58,2.23H57l2.18-3L57.11,250h1.24l1.5,2.1,1.49-2.1h1.18l-2.06,2.84,2.21,3Z"/><path class="cls-1" d="M63.34,250h2.57a3.76,3.76,0,0,1,1.67.37,2.69,2.69,0,0,1,1.13,1,3.12,3.12,0,0,1,0,3.09,2.69,2.69,0,0,1-1.13,1,3.76,3.76,0,0,1-1.67.36H63.34Zm2.52,5a2.45,2.45,0,0,0,1.14-.25,1.75,1.75,0,0,0,.75-.7,2.24,2.24,0,0,0,0-2.13,1.75,1.75,0,0,0-.75-.7,2.45,2.45,0,0,0-1.14-.25H64.43v4Z"/></svg>