<svg id="Capa_1" data-name="Capa 1" xmlns="http://www.w3.org/2000/svg" viewBox="0 0 169.66 481.88"><defs><style>.cls-1,.cls-2{fill:#faf2f7;}.cls-2{font-size:14px;font-family:Lato-Bold, Lato;font-weight:700;}.cls-3{letter-spacing:-0.01em;}.cls-4{letter-spacing:0.03em;}.cls-5{letter-spacing:-0.02em;}.cls-6{letter-spacing:-0.02em;}.cls-7{letter-spacing:-0.05em;}.cls-8{letter-spacing:0em;}</style></defs><path class="cls-1" d="M27,16.21a5.37,5.37,0,0,0-4.65,2.7h-4.8A9.45,9.45,0,0,1,8.16,10,5.39,5.39,0,1,0,0,5.4a5.37,5.37,0,0,0,2.7,4.65V27.76a5.4,5.4,0,1,0,5.4,0V20.9a14.78,14.78,0,0,0,9.46,3.41h4.8A5.39,5.39,0,1,0,27,16.21ZM5.4,2.7A2.7,2.7,0,1,1,2.7,5.4,2.7,2.7,0,0,1,5.4,2.7Zm0,32.41a2.7,2.7,0,1,1,2.7-2.7A2.7,2.7,0,0,1,5.4,35.11ZM27,24.31a2.7,2.7,0,1,1,2.7-2.7A2.7,2.7,0,0,1,27,24.31Z"/><path class="cls-1" d="M27,42.6a5.37,5.37,0,0,0-4.65,2.7h-4.8a9.44,9.44,0,0,1-9.4-8.88c1.58-1-7.07-.91-5.46,0v17.7a5.4,5.4,0,1,0,5.4,0V47.3a14.83,14.83,0,0,0,9.46,3.4h4.8A5.39,5.39,0,1,0,27,42.6ZM5.4,61.51a2.71,2.71,0,1,1,2.7-2.7A2.7,2.7,0,0,1,5.4,61.51ZM27,50.7a2.7,2.7,0,1,1,2.7-2.7A2.7,2.7,0,0,1,27,50.7Z"/><path class="cls-1" d="M27,69.46a5.37,5.37,0,0,0-4.65,2.7h-4.8a9.44,9.44,0,0,1-9.4-8.89c1.58-.94-7.07-.9-5.46,0V81a5.4,5.4,0,1,0,5.4,0V74.16a14.83,14.83,0,0,0,9.46,3.4h4.8A5.39,5.39,0,1,0,27,69.46ZM5.4,88.36a2.7,2.7,0,1,1,2.7-2.7A2.7,2.7,0,0,1,5.4,88.36ZM27,77.56a2.7,2.7,0,1,1,2.7-2.7A2.7,2.7,0,0,1,27,77.56Z"/><path class="cls-1" d="M27,96.29A5.39,5.39,0,0,0,22.36,99h-4.8a9.44,9.44,0,0,1-9.4-8.88c1.58-.94-7.07-.91-5.46,0v17.71a5.4,5.4,0,1,0,5.4,0V101a14.78,14.78,0,0,0,9.46,3.41h4.8A5.39,5.39,0,1,0,27,96.29ZM5.4,115.2a2.7,2.7,0,1,1,2.7-2.7A2.7,2.7,0,0,1,5.4,115.2ZM27,104.4a2.71,2.71,0,1,1,2.7-2.7A2.7,2.7,0,0,1,27,104.4Z"/><path class="cls-1" d="M27,123.15a5.39,5.39,0,0,0-4.65,2.7h-4.8A9.44,9.44,0,0,1,8.16,117c1.58-1-7.07-.91-5.46,0v17.71a5.39,5.39,0,1,0,8.1,4.65,5.37,5.37,0,0,0-2.7-4.65v-6.86a14.83,14.83,0,0,0,9.46,3.4h4.8a5.39,5.39,0,1,0,4.65-8.1ZM5.4,142.06a2.7,2.7,0,1,1,2.7-2.7A2.7,2.7,0,0,1,5.4,142.06ZM27,131.25a2.7,2.7,0,1,1,2.7-2.7A2.7,2.7,0,0,1,27,131.25Z"/><path class="cls-1" d="M27,150a5.37,5.37,0,0,0-4.65,2.7h-4.8a9.44,9.44,0,0,1-9.4-8.89c1.58-.94-7.07-.9-5.46,0v17.7a5.4,5.4,0,1,0,5.4,0v-6.85a14.83,14.83,0,0,0,9.46,3.4h4.8A5.39,5.39,0,1,0,27,150ZM5.4,168.92a2.71,2.71,0,1,1,2.7-2.71A2.7,2.7,0,0,1,5.4,168.92ZM27,158.11a2.7,2.7,0,1,1,2.7-2.7A2.7,2.7,0,0,1,27,158.11Z"/><text class="cls-2" transform="translate(41.18 78.96)">C</text><text class="cls-2" transform="translate(41.18 106.4)">SQL</text><text class="cls-2" transform="translate(41.74 132.66)">Estrcutu<tspan class="cls-3" x="53.28" y="0">r</tspan><tspan x="58.8" y="0">as de datos</tspan></text><text class="cls-2" transform="translate(42.3 160.11)">Algoritmos</text><text class="cls-2" transform="translate(41.74 52.71)">Python</text><text class="cls-2" transform="translate(41.74 25.29)">HTM<tspan class="cls-4" x="31.93" y="0">L</tspan><tspan x="39.58" y="0">, CSS &amp; JS</tspan></text><path class="cls-1" d="M27.17,211.61a5.38,5.38,0,0,0-4.65,2.71H17.71a9.45,9.45,0,0,1-9.39-8.89,5.4,5.4,0,1,0-5.46,0v17.71a5.4,5.4,0,1,0,5.4,0v-6.86a14.77,14.77,0,0,0,9.45,3.41h4.81a5.39,5.39,0,1,0,4.65-8.11ZM5.56,198.11a2.7,2.7,0,1,1-2.7,2.7A2.7,2.7,0,0,1,5.56,198.11Zm0,32.41a2.7,2.7,0,1,1,2.7-2.7A2.7,2.7,0,0,1,5.56,230.52Zm21.61-10.8a2.7,2.7,0,1,1,2.7-2.7A2.7,2.7,0,0,1,27.17,219.72Z"/><path class="cls-1" d="M27.17,238a5.37,5.37,0,0,0-4.65,2.7H17.71a9.44,9.44,0,0,1-9.39-8.88c1.57-1-7.07-.91-5.46,0v17.7a5.4,5.4,0,1,0,5.4,0v-6.85a14.82,14.82,0,0,0,9.45,3.4h4.81a5.39,5.39,0,1,0,4.65-8.1ZM5.56,256.92a2.71,2.71,0,1,1,2.7-2.7A2.7,2.7,0,0,1,5.56,256.92Zm21.61-10.81a2.7,2.7,0,1,1,2.7-2.7A2.7,2.7,0,0,1,27.17,246.11Z"/><path class="cls-1" d="M27.17,264.87a5.37,5.37,0,0,0-4.65,2.7H17.71a9.44,9.44,0,0,1-9.39-8.89c1.57-.94-7.07-.9-5.46,0v17.7a5.4,5.4,0,1,0,5.4,0v-6.86A14.77,14.77,0,0,0,17.71,273h4.81a5.39,5.39,0,1,0,4.65-8.1ZM5.56,283.77a2.7,2.7,0,1,1,2.7-2.7A2.7,2.7,0,0,1,5.56,283.77ZM27.17,273a2.7,2.7,0,1,1,2.7-2.7A2.7,2.7,0,0,1,27.17,273Z"/><path class="cls-1" d="M27.17,291.7a5.39,5.39,0,0,0-4.65,2.7H17.71a9.44,9.44,0,0,1-9.39-8.88c1.57-.94-7.07-.91-5.46,0v17.71a5.4,5.4,0,1,0,5.4,0V296.4a14.77,14.77,0,0,0,9.45,3.41h4.81a5.39,5.39,0,1,0,4.65-8.11ZM5.56,310.61a2.7,2.7,0,1,1,2.7-2.7A2.7,2.7,0,0,1,5.56,310.61Zm21.61-10.8a2.71,2.71,0,1,1,2.7-2.7A2.7,2.7,0,0,1,27.17,299.81Z"/><path class="cls-1" d="M27.17,318.56a5.39,5.39,0,0,0-4.65,2.7H17.71a9.44,9.44,0,0,1-9.39-8.88c1.57-.95-7.07-.91-5.46,0v17.71a5.39,5.39,0,1,0,8.1,4.65,5.37,5.37,0,0,0-2.7-4.65v-6.86a14.82,14.82,0,0,0,9.45,3.4h4.81a5.39,5.39,0,1,0,4.65-8.1ZM5.56,337.47a2.7,2.7,0,1,1,2.7-2.7A2.7,2.7,0,0,1,5.56,337.47Zm21.61-10.81a2.7,2.7,0,1,1,2.7-2.7A2.7,2.7,0,0,1,27.17,326.66Z"/><path class="cls-1" d="M27.17,345.42a5.37,5.37,0,0,0-4.65,2.7H17.71a9.44,9.44,0,0,1-9.39-8.89c1.57-.94-7.07-.9-5.46,0V357a5.4,5.4,0,1,0,5.4,0v-6.85a14.82,14.82,0,0,0,9.45,3.4h4.81a5.39,5.39,0,1,0,4.65-8.1ZM5.56,364.33a2.71,2.71,0,1,1,2.7-2.71A2.7,2.7,0,0,1,5.56,364.33Zm21.61-10.81a2.7,2.7,0,1,1,2.7-2.7A2.7,2.7,0,0,1,27.17,353.52Z"/><text class="cls-2" transform="translate(41.34 274.37)">SQLAlche<tspan class="cls-5" x="61.8" y="0">m</tspan><tspan x="73.33" y="0">y</tspan></text><text class="cls-2" transform="translate(41.34 301.81)"><tspan class="cls-6">W</tspan><tspan x="14.36" y="0">ordpress</tspan></text><text class="cls-2" transform="translate(41.9 328.07)">Firebase</text><text class="cls-2" transform="translate(42.46 355.52)">Git</text><text class="cls-2" transform="translate(41.9 248.12)">Flask</text><text class="cls-2" transform="translate(41.9 220.7)"><tspan class="cls-7">V</tspan><tspan x="9.25" y="0">ue.js</tspan></text><path class="cls-1" d="M27.45,407a5.39,5.39,0,0,0-4.66,2.71H18a9.44,9.44,0,0,1-9.39-8.89,5.4,5.4,0,1,0-5.46,0v17.71a5.4,5.4,0,1,0,5.4,0v-6.86A14.77,14.77,0,0,0,18,415.13h4.8A5.4,5.4,0,1,0,27.45,407ZM5.84,393.52a2.7,2.7,0,1,1-2.7,2.7A2.7,2.7,0,0,1,5.84,393.52Zm0,32.41a2.7,2.7,0,1,1,2.7-2.7A2.7,2.7,0,0,1,5.84,425.93Zm21.61-10.8a2.7,2.7,0,1,1,2.7-2.7A2.7,2.7,0,0,1,27.45,415.13Z"/><path class="cls-1" d="M27.45,433.42a5.38,5.38,0,0,0-4.66,2.7H18a9.43,9.43,0,0,1-9.39-8.89c1.57-.94-7.07-.9-5.46,0V445a5.4,5.4,0,1,0,5.4,0v-6.85a14.82,14.82,0,0,0,9.45,3.4h4.8a5.39,5.39,0,1,0,4.66-8.1ZM5.84,452.33a2.71,2.71,0,1,1,2.7-2.71A2.7,2.7,0,0,1,5.84,452.33Zm21.61-10.81a2.7,2.7,0,1,1,2.7-2.7A2.7,2.7,0,0,1,27.45,441.52Z"/><path class="cls-1" d="M27.45,460.28a5.38,5.38,0,0,0-4.66,2.7H18a9.43,9.43,0,0,1-9.39-8.89c1.57-.94-7.07-.9-5.46,0v17.71a5.4,5.4,0,1,0,5.4,0V465A14.77,14.77,0,0,0,18,468.38h4.8a5.39,5.39,0,1,0,4.66-8.1ZM5.84,479.18a2.7,2.7,0,1,1,2.7-2.7A2.7,2.7,0,0,1,5.84,479.18Zm21.61-10.8a2.7,2.7,0,1,1,2.7-2.7A2.7,2.7,0,0,1,27.45,468.38Z"/><text class="cls-2" transform="translate(41.62 469.78)">Adobe Photoshop</text><text class="cls-2" transform="translate(42.18 443.53)">Adobe Illust<tspan class="cls-3" x="75.52" y="0">r</tspan><tspan class="cls-8" x="81.04" y="0">ator</tspan></text><text class="cls-2" transform="translate(42.18 416.11)">Adobe XD</text></svg>